<svg version="1.1" xmlns="http://www.w3.org/2000/svg" xmlns:xlink="http://www.w3.org/1999/xlink" x="0px" y="0px"
	 width="428.979px" height="167.992px" viewBox="0 0 428.979 167.992" enable-background="new 0 0 428.979 167.992"
	 xml:space="preserve" fill="white">
<g id="Layer_1">
	<g>
		<g>
			<path d="M25.195,28.29c1.679,19.753,1.21,39.708-1.048,59.395c-2.205,19.239-6.037,39.381-14.94,56.746
				c3.622,0.981,7.244,1.962,10.866,2.943c-0.227-27.444,6.706-54.536,12.334-81.223c1.768-8.383,2.333-16.98,4.218-25.364
				c1.756-7.811,4.407-18.032,12.188-21.942c-2.269-0.595-4.537-1.189-6.806-1.784c14.238,21.907,18.93,48.335,25.116,73.291
				c2.994,12.077,6.302,24.01,11.311,35.421c4.859,11.071,10.227,21.853,10.355,34.197c2.812-1.613,5.622-3.226,8.433-4.839
				c-3.002-1.572-5.449-2.557-7.944-4.931c-1.686-1.604-5.046-0.035-4.146,2.413c1.498,4.076,2.076,8.178,5.299,11.319
				c3.035,2.958,8.194,1.607,9.367-2.473c3.531-12.287-3.395-25.581-8.37-36.499c-5.357-11.757-9.111-23.764-12.355-36.265
				c-6.789-26.167-12.022-54.473-28.476-76.657c-1.614-2.177-4.27-3.262-6.806-1.784c-8.057,4.694-11.646,13.65-14.306,22.147
				c-2.91,9.3-4.059,19.071-5.508,28.673c-2.082,13.793-6.52,27.377-9.481,41.014c-3.232,14.88-5.765,30.033-6.086,45.285
				c-0.121,5.762,8.074,8.017,10.866,2.943c9.868-17.936,13.115-39.709,15.416-59.763c2.359-20.567,3.823-43.134-1.775-63.309
				C31.761,23.076,24.812,23.771,25.195,28.29L25.195,28.29z"/>
		</g>
	</g>
	<g>
		<g>
			<path d="M54.554,101.336c-2.501-2.533-5.077-4.978-7.712-7.371c-1.532-1.393-6.939-5.177-7.217-7.278
				c-1.591,1.591-3.182,3.182-4.772,4.772c5.209,0.248,10.801-2.372,15.812-3.634c5.757-1.45,11.55-2.714,17.417-3.63
				c11.732-1.832,23.657-2.263,35.475-2.559c2.938-0.074,4.059-3.988,1.496-5.524c-10.999-6.593-24.849-6.898-37.212-5.031
				c-6.401,0.967-12.824,2.218-19.004,4.17c-5.645,1.784-13.192,3.622-17.357,8.062c-2.616,2.789-1.013,8.545,3.374,8.146
				c2.887-0.262,7.09,3.828,9.027,5.469c2.717,2.302,5.344,4.705,7.912,7.17C53.608,105.843,56.327,103.132,54.554,101.336
				L54.554,101.336z"/>
		</g>
	</g>
	<g>
		<g>
			<path d="M125.83,9.969c-1.903,40.571,4.961,80.883-0.326,121.374c5.214,0,10.429,0,15.643,0
				c0.478-13.578,5.625-32.989,17.308-41.725c6.235-4.663,13.008-4.207,20.196-0.4c2.077,1.101,2.058,1.198,3.263,2.311
				c0.507,0.468,0.964,0.987,1.417,1.506c-1.104-1.263,0.136,0.275,0.292,0.524c0.186,0.293,1.053,2.127,0.292,0.314
				c0.225,0.535,0.381,1.096,0.536,1.653c0.121,0.436,0.331,2.296,0.105,0.196c0.081,0.756,0.059,1.519,0.023,2.276
				c-0.091,1.948,0.346-1.691-0.061,0.237c-0.122,0.58-0.3,1.147-0.476,1.712c-0.102,0.328-0.875,2.189-0.095,0.402
				c-0.251,0.574-0.545,1.128-0.836,1.682c-0.606,1.151-1.33,2.239-2.077,3.303c-1.275,1.818,1.026-1.231-0.392,0.507
				c-0.579,0.71-1.199,1.384-1.823,2.054c-4.245,4.556-6.794,6.334-12.863,9.276c-0.372,0.181-2.438,1.054-0.298,0.17
				c-0.577,0.238-1.165,0.449-1.752,0.659c-1.113,0.398-2.255,0.709-3.405,0.979c-0.54,0.126-1.086,0.218-1.632,0.308
				c2.736-0.452,0.98-0.152,0.329-0.114c-0.485,0.029-0.973,0.014-1.458-0.003c-1.652-0.058,2.514,0.537,0.207,0.003
				c-2.073-0.48,1.841,1.254-0.393-0.238c2.297,1.534,1.306,0.989,0.697,0.406c-1.175-1.125,1.35,1.993,0.454,0.576
				c-0.909-1.438,0.795,2.249,0.194,0.557c-0.168-0.475-0.264-0.974-0.362-1.466c-0.108-0.542-0.198-1.089-0.308-1.632
				c0.505,2.51,0.085-0.129,0.13-0.882c0.145-2.412-0.337,1.796,0.087-0.824c0.205-1.265,0.603-2.619,0.603-3.89
				c0-2.247-0.39-3.054-0.35-5.628c0.076-4.98-6.611-8.063-10.089-4.179c-3,3.349-5.469,6.292-6.71,10.8
				c-1.053,3.824-1.607,7.688-0.934,11.617c1.061,6.177,5.946,11.259,12.091,12.513c12.305,2.51,24.687-5.604,33.338-13.494
				c8.782-8.01,16.578-20.84,12.575-33.084c-5.681-17.379-28.985-23.259-44.271-16.283c-9.887,4.513-16.652,14.948-20.918,24.512
				c-4.604,10.322-7.39,21.521-8.28,32.789c-0.69,8.74,14.104,10.804,15.363,2.079c5.927-41.086-2.443-82.421-4.625-123.453
				C135.887,3.268,126.145,3.25,125.83,9.969L125.83,9.969z"/>
		</g>
	</g>
	<g>
		<g>
			<path d="M204.317,104.139c4.787,0,4.787-7.424,0-7.424S199.53,104.139,204.317,104.139L204.317,104.139z"/>
		</g>
	</g>
	<g>
		<g>
			<path d="M225.693,99.765c4.201-0.972,6.931-2.858,10.259-5.49c2.54-2.008,0.998-6.416-1.877-7.11
				c-14.552-3.512-29.278,8.256-37.323,19.13c-8.027,10.849-10.769,27.649,2.432,35.72c7.788,4.761,18.094,4.003,26.659,2.526
				c9.352-1.613,17.937-6.611,25.255-12.446c6.78-5.407,12.858-14.232,11.934-23.28c-1.006-9.845-8.95-17.494-18-20.634
				c-11.361-3.942-23.805,2.486-30.49,11.536c-3.318,4.492-4.32,10.901-1.598,15.904c3.211,5.902,9.594,6.891,15.566,5.519
				c4.352-1.001,4.448-6.669,1.159-8.874c-1.167-0.782-2.165-1.982-3.185-2.98c0.95,0.93-0.084-0.512-0.205-0.755
				c0.194,0.388,0.429,2.434,0.412,0.885c-0.022-2.01-0.387,1.519,0.091-0.554c0.461-2.003-0.658,1.068,0.321-0.899
				c0.789-1.585,1.229-1.979,2.33-3.125c5.075-5.277,12.989-7.365,18.933-2.243c14.146,12.191-18.313,26.025-27.169,27.049
				c-3.858,0.446-8.166,0.684-11.238,0.044c-2.226-0.463-1.542-0.255-2.972-1.023c-0.292-0.157-1.913-1.419-0.514-0.259
				c-0.461-0.382-0.857-0.833-1.251-1.282c-0.271-0.309-0.183-0.237-0.32-0.619c-0.2-0.554-0.321-1.133-0.442-1.708
				c0.384,1.81,0.025-0.08,0.007-0.467c-0.03-0.638,0.01-1.277,0.047-1.914c0.124-2.119-0.286,1.417,0.11-0.749
				c0.302-1.646,0.831-3.245,1.416-4.809c4.276-11.44,15.736-19.086,28.035-21.49c-1.744-1.744-3.488-3.489-5.233-5.233
				c-0.857,2.323-3.313,3.389-5.365,4.372C220.423,95.972,222.64,100.472,225.693,99.765L225.693,99.765z"/>
		</g>
	</g>
	<g>
		<g>
			<path d="M273.343,89.778c-3.476,9.566-6.376,20.188-4.733,30.396c1.879,11.67,15.144,13.972,23.212,7.197
				c8.022-6.738,12.438-18.132,15.672-27.772c2.673-7.967,6.129-18.108,5.208-26.651c-0.54-5.01-5.049-7.896-9.744-5.592
				c-10.292,5.049-14.314,16.241-6.651,25.288c3.188,3.762,9.835-0.226,8.262-4.809c-1.121-3.266-0.223,2.638-0.28-1.792
				c-0.014-1.038-0.007-1.6,0.206-2.617c0.554-2.638,2.719-3.821,5.001-4.886c-3.248-1.864-6.496-3.728-9.744-5.592
				c0.251,2.856-0.041,3.464-0.549,6.097c-0.776,4.024-1.906,7.981-3.133,11.888c-2.49,7.932-5.571,15.923-10.172,22.888
				c-0.796,1.205-1.497,1.993-2.55,3.057c-0.021,0.021-1.789,1.409-0.778,0.7c-0.2,0.14-1.955,0.915-0.579,0.405
				c-0.825,0.306,0.992,0.373-1.063-0.167c1.142,0.3,0.233-0.609-0.063-1.933c-1.611-7.177,1.257-16.26,3.284-23.124
				C286.221,85.734,275.773,83.089,273.343,89.778L273.343,89.778z"/>
		</g>
	</g>
	<g>
		<g>
			<path d="M353.358,54.794c0.519-1.542,0.879-5.066,1.949-6.049c-3.561-1.475-7.121-2.95-10.683-4.425
				c-0.985,11.215-0.973,22.49-2.026,33.719c-0.766,8.161-1.881,16.408-1.984,24.609c-0.092,7.232-3.037,22.897,5.07,26.663
				c6.693,3.109,12.551-6.818,5.816-9.95c-2.97-1.381-0.399-0.188-0.128,0.041c-1.746-1.473-3.814-1.473-5.561,0
				c0.271-0.229,2.842-1.421-0.128-0.041c-6.734,3.131-0.877,13.059,5.816,9.95c8.107-3.766,5.162-19.431,5.07-26.663
				c-0.251-19.874,4.351-40.249,0.346-59.992c-1.593-7.853-14.057-4.547-12.068,3.327c0.454,1.796-0.573,4.468-1.021,6.183
				C342.2,58.381,351.342,60.792,353.358,54.794L353.358,54.794z"/>
		</g>
	</g>
	<g>
		<g>
			<path d="M313.399,92.109c15.165,13.012,35.387,11.125,53.553,6.704c18.505-4.505,37.003-10.695,53.671-19.84
				c3.239-1.776,2.591-7.044-1.033-7.909c-17.186-4.1-34.42,4.737-50.544,9.611c-12.92,3.905-32.789,10.074-44.801,0.589
				c-3.277-2.588-7.633-3.212-10.846,0C310.614,84.05,310.225,89.385,313.399,92.109L313.399,92.109z"/>
		</g>
	</g>
</g>
<g id="Layer_2">
</g>
</svg>
