
<svg version="1.1" xmlns="http://www.w3.org/2000/svg" xmlns:xlink="http://www.w3.org/1999/xlink" x="0px" y="0px"
	 width="644.968px" height="173.991px" viewBox="0 0 644.968 173.991" enable-background="new 0 0 644.968 173.991"
	 xml:space="preserve" fill="white">
<g id="Layer_1">
	<g>
		<g>
			<path d="M74.717,42.427c-19.975,3.596-36.108,20.324-47.518,36.031C15.1,95.117,6.112,116.49,9.422,137.364
				c2.946,18.579,18.136,29.988,35.983,31.865c18.138,1.907,36.833-5.458,53.169-12.413c15.106-6.431,29.017-14.987,43.445-22.65
				c2.695-1.432,1.548-6.087-1.589-5.865c-15.286,1.083-30.452,7.807-44.718,13.045c-16.139,5.926-33.369,12.18-50.308,10.935
				c-0.739-0.054-2.034-0.248-3.872-0.673c-0.893-0.207-4.302-1.394-3.608-1.088c-3.746-1.652-5.021-2.749-7.713-5.855
				c-4.372-5.046-6.122-13.687-5.761-21.094c0.981-20.061,13.595-40.401,27.12-54.504c7.084-7.387,15.9-13.905,26.038-16.149
				C84.521,51.385,81.524,41.202,74.717,42.427L74.717,42.427z"/>
		</g>
	</g>
	<g>
		<g>
			<path d="M180.402,106.265c1.48-6.84-2.946-12.067-11.166-11.416c-8.414,0.667-16.876,5.243-23.786,9.805
				c-7.636,5.04-14.109,10.589-16.575,19.703c-2.945,10.883,2.042,20.523,10.816,26.779c7.822,5.578,18.833,6.843,28.16,6.551
				c9.271-0.291,18.268-2.558,26.074-7.642c15.756-10.26,32.677-30.379,28.98-50.517c-1.66-9.042-8.126-16.539-16.604-19.788
				c-8.097-3.103-18.229-1-26.074,1.808c-8.241,2.95-16.291,7.648-22.335,14.044c-6.47,6.847-9.758,17.73-0.529,23.865
				c3.888,2.584,9.802,0.071,10.838-4.409c0.374-1.621-0.967,1.659-0.147,0.2c-0.586,1.043,2.389-5.119,0.611-1.489
				c0.538-1.098,1.043-2.211,1.475-3.361c-0.897,2.388-0.015,0.268,0.249-0.211c0.162-0.293,1.605-2.273,0.306-0.624
				c0.526-0.668,1.118-1.284,1.704-1.9c1.444-1.519,3.117-2.837,3.907-3.407c3.39-2.442,7.132-4.367,10.938-6.064
				c0.561-0.25,3.316-1.13,4.698-1.525c2.541-0.726,3.378-0.842,5.307-0.964c2.526-0.16,1.881-0.197,3.741,0.244
				c0.232,0.055,2.503,1.038,0.946,0.282c0.234,0.113,2.087,1.54,0.832,0.46c2.918,2.512,3.375,5.142,3.342,8.01
				c-0.077,6.711-6.151,14.78-11.607,20.311c-3.168,3.21-5.961,5.42-9.502,7.693c-1.688,1.084-3.467,2.017-5.261,2.912
				c-2.684,1.337,1.681-0.578-0.966,0.403c-1.005,0.372-2.044,0.632-3.089,0.859c-7.507,1.627-15.208,1.448-23.188-1.272
				c-2.943-1.003,1.474,0.787-1.222-0.563c-0.836-0.419-1.618-0.933-2.395-1.45c1.616,1.076-0.524-0.583-0.72-0.779
				c-1.873-1.872,0.832,1.447-0.535-0.79c-0.394-0.646-0.477-1.081-0.535-2.066c0.008,0.119,0.251-2.966,0.041-1.731
				c0.154-0.783,0.346-1.556,0.574-2.32c-0.391,0.654-0.396,0.646-0.016-0.024c0.188-0.341,1.435-2.042,0.148-0.392
				c0.492-0.632,1.036-1.223,1.573-1.815c1.235-1.361,2.594-2.61,3.96-3.836c3.07-2.756,6.367-5.147,9.853-7.483
				c2.294-1.537,5.913-3.699,7.785-4.399c0.513-0.191,3.261-0.781,1.956-0.678c1-0.079,1.391,0.092,2.574-0.154
				c-1.436,0.298-3.853-0.059-4.091-2.07C172.01,109.776,179.225,111.705,180.402,106.265L180.402,106.265z"/>
		</g>
	</g>
	<g>
		<g>
			<path d="M236.686,98.354c1.083-0.4,2.001-0.837,2.611-1.88c0.325-0.555,0.742-3.293,0.524-2.565
				c-2.322,0.613-4.645,1.227-6.967,1.84c-1.567-1.283-0.634,2.307-0.628,3.033c0.016,1.756,0.043,3.508,0.074,5.265
				c0.063,3.535-0.174,7.067-0.518,10.583c-0.744,7.607-3.107,14.897-6,21.925c4.306,1.187,8.61,2.374,12.916,3.561
				c4.775-14.617,7.759-29.867,15.123-43.525c2.628-4.874,7.091-12.723,13.008-13.492c1.187-0.154,2.09-0.082,3.112,0.204
				c-1.415-0.395-1.031-0.312-1.519-0.997c0.285,0.402,1.262,2.639,0.674,1.142c0.448,1.14,0.769,2.336,1.09,3.517
				c3.248,11.947,3.318,24.507,4.848,37.188c0.965,8,2.173,28.659,14.726,27.296c2.177-0.236,4.097-0.813,5.741-2.335
				c-1.84,1.703,0.078,0.005,0.727-0.569c0.634-0.561,1.287-1.473,1.729-2.113c1.908-2.763,2.404-5.663,3.159-9.436
				c0.685-3.424-3.314-6.132-5.997-3.491c-1.857,1.829-3.713,3.322-5.27,4.236c-2.08,1.223,0.702,0.124,0.707,0.124
				c1.354-0.121,2.753,0.94,3.599,2.141c-0.401-0.569-0.762-1.171-1.076-1.792c-0.691-1.366,0.664,1.736,0.102,0.201
				c-0.168-0.458-0.313-0.922-0.49-1.377c-0.947-2.435-1.528-5.029-2.089-7.575c-2.83-12.851-3.811-26.039-6.488-38.922
				c-2.298-11.054-7.189-22.751-20.901-18.145c-15.434,5.185-23.138,25.983-28.576,39.616c-3.226,8.085-5.694,16.441-8.853,24.546
				c-3.142,8.063,9.807,11.508,12.916,3.561c3.588-9.171,4.883-19.21,4.982-29.01c0.062-6.089,0.892-22.057-7.88-22.473
				c-2.085-0.099-4.415,1.98-4.169,4.168c0.097,0.851,0.596,2.272,0.662,2.758c0.328-1.243,0.656-2.485,0.984-3.728
				c-0.085,0.077-0.171,0.154-0.256,0.231C230.301,94.516,233.137,99.667,236.686,98.354L236.686,98.354z"/>
		</g>
	</g>
	<g>
		<g>
			<path d="M325.508,35.422c1.445-3.359,2.68-6.829,4.254-10.128c2.043-4.283,4.168-7.007,7.839-9.979
				c-3.441-2.003-6.884-4.007-10.325-6.01c-2.04,10.839-1.452,22.272-1.665,33.263c-0.227,11.702-0.14,23.413-0.257,35.116
				c-0.11,11.049-0.328,22.097-0.554,33.145c-0.241,11.818-1.318,23.729-1.152,35.539c5.524-0.748,11.049-1.495,16.574-2.243
				c-0.647-3.979-1.884-8.267-2.235-12.224c-0.359-4.037-0.603-8.025-2.145-11.816c-1.5-3.69-6.014-3.69-7.514,0
				c-1.542,3.791-1.785,7.779-2.145,11.816c-0.352,3.958-1.588,8.245-2.235,12.224c-1.972,12.125,15.212,14.424,16.574,2.243
				c1.238-11.058,0.976-22.461,1.166-33.581c0.2-11.701,0.121-23.402-0.004-35.103c-0.118-11.052-0.265-22.107-0.512-33.157
				c-0.259-11.597,0.176-23.798-1.983-35.223c-1.153-6.102-10.507-5.721-11.914,0c-0.987,4.016-1.584,7.837-2.887,11.792
				c-1.337,4.058-2.776,8.042-4.392,12.001C318.708,36.256,324.163,38.547,325.508,35.422L325.508,35.422z"/>
		</g>
	</g>
	<g>
		<g>
			<path d="M298.804,91.906c16.866,1.227,34.271-5.167,50.686-8.198c8.091-1.494,16.244-2.834,24.505-2.341
				c6.911,0.412,12.695,4.1,19.155,6.32c2.187,0.751,4.229-1.197,4.319-3.29c0.381-8.959-8.696-15.253-16.295-17.837
				c-9.217-3.135-19.541-2.188-28.969-0.919c-9.906,1.333-19.545,4.113-29.203,6.61c-8.059,2.083-16.334,4.602-24.198,4.636
				C289.019,76.929,289.25,91.21,298.804,91.906L298.804,91.906z"/>
		</g>
	</g>
	<g>
		<g>
			<path d="M427.684,86.346c-10.136-11.114-27.594-8.389-39.01-0.879c-11.546,7.596-19.171,23.985-10.692,36.76
				c8.35,12.579,22.356,3.697,30.188-4.159c4.381-4.395,8.25-9.638,11.58-14.867c1.417-2.226,2.767-4.494,4.08-6.782
				c1.019-1.773,1.738-3.427,2.265-4.084c-3.542-2.062-7.083-4.124-10.625-6.185c-2.275,9.83-2.077,21.275,1.895,30.602
				c1.987,4.667,6.778,9.337,12.235,9.017c6.065-0.355,10.59-4.744,13.157-9.9c1.138-2.286-0.768-5.847-3.654-4.752
				c-1.224,0.464-3.703,1.802-4.974,1.709c0,0-2.26-0.247-1.045,0.01c2.023,0.429,0.563,0.256-0.877-0.756
				c1.567,1.102-0.385-1.07,0.653,0.499c-0.369-0.558-0.632-1.188-0.98-1.762c-0.794-1.31-0.822-1.672-1.44-3.958
				c-1.73-6.397-2.496-12.196-2.482-19.019c0.012-6.033-9.01-9.073-11.847-3.208c-0.083,0.172-0.859,1.516-0.07,0.554
				c-0.408,0.498-0.822,0.99-1.237,1.481c-1.188,1.406-2.412,2.779-3.647,4.142c-3.018,3.331-6.119,6.614-9.301,9.788
				c-2.356,2.351-6.77,6.485-8.148,7.531c-1.427,1.082-2.951,2.02-4.561,2.802c1.948-0.946,0.258-0.191-0.257-0.057
				c1.446-0.134,1.694-0.177,0.744-0.129c1.536,0.276,1.838,0.314,0.904,0.114c0.343,0.078,2.957,2.064,1.854,0.965
				c1.811,1.803-0.014-0.789,0.738,1.152c-0.847-2.184-0.805-3.189-0.734-5.104c0.068-1.861,2.425-5.521,4.997-7.488
				c6.196-4.738,15.316-7.319,21.832-3.071C426.124,101.808,432.848,92.007,427.684,86.346L427.684,86.346z"/>
		</g>
	</g>
	<g>
		<g>
			<path d="M474.285,85.093c-5.699,8.156-14.671,13.608-19.771,22.28c-5.063,8.61-2.209,21.084,6.535,26.053
				c8.406,4.776,18.736,2.446,27.3-0.429c8.244-2.769,16.768-7.801,22.821-14.118c2.42-2.524-0.042-6.155-3.233-5.555
				c-6.519,1.225-12.852,3.531-19.4,4.505c-6.778,1.008-13.749,3.457-19.264,1.864c-1.147-0.331-0.039,0.236-0.887-0.49
				c-0.176-0.15-1.443-1.826-0.677-0.672c-1.037-1.56,0.09,0.744-0.531-1.216c-0.959-3.028,0.393-4.896,2.163-7.609
				c4.22-6.467,13.774-12.397,14.885-20.422C485.063,83.24,477.986,79.798,474.285,85.093L474.285,85.093z"/>
		</g>
	</g>
	<g>
		<g>
			<path d="M551.129,56.928c0.871-3.516,2.938-10.542,6.397-12.496c-2.784-1.598-5.569-3.196-8.354-4.794
				c-0.69,7.473-0.465,15.083-0.974,22.587c-0.587,8.651-1.732,17.249-3.164,25.797c-1.414,8.44-3.043,16.851-4.96,25.191
				c-0.917,3.984-2.043,7.993-2.239,12.092c-0.156,3.274,3.063,7.521,6.561,7.521c8.866,0,9.903-12.027,11.256-18.511
				c1.792-8.591,3.154-17.243,4.203-25.954c1.912-15.894,4.318-34.471,0.223-50.2c-1.343-5.155-9.552-5.465-10.707,0
				c-0.545,2.579-2.768,5.114-3.964,7.455c-1.433,2.803-2.469,5.799-3.153,8.865C540.968,60.251,549.697,62.705,551.129,56.928
				L551.129,56.928z"/>
		</g>
	</g>
	<g>
		<g>
			<path d="M518.001,95.743c19.313-1.316,38.423-4.594,57.8-5.149c9.56-0.274,19.113,0.173,28.551,1.718
				c4.369,0.715,8.599,2.034,12.918,2.969c4.438,0.961,8.546,3.241,12.982,4.391c4.425,1.146,7.963-3.583,5.794-7.536
				c-4.825-8.793-15.031-13.773-24.261-16.642c-10.1-3.139-21.101-3.793-31.616-3.679c-20.86,0.228-41.413,4.248-62.168,5.825
				C506.453,78.517,506.32,96.539,518.001,95.743L518.001,95.743z"/>
		</g>
	</g>
	
</g>
</svg>
