<svg version="1.1" xmlns="http://www.w3.org/2000/svg" xmlns:xlink="http://www.w3.org/1999/xlink" x="0px" y="0px"
	 width="97.495px" height="97.495px" viewBox="0 0 97.495 97.495" enable-background="new 0 0 97.495 97.495" xml:space="preserve" fill="white">
<g id="Layer_1">
	<g>
		<g>
			<path d="M13.746,63.334c11.12,0.512,22.151-0.783,33.227-1.551C52.84,61.376,58.701,61,64.586,61.095
				c4.777,0.077,10.381,1.061,14.648-1.52c2.008-1.214,2.884-3.986,1.586-6.047c-5.574-8.849-22.083-5.942-30.804-5.194
				c-12.124,1.04-24.118,3.48-36.271,4.219C6.823,52.973,6.775,63.013,13.746,63.334L13.746,63.334z"/>
		</g>
	</g>
	<g>
		<g>
			<path d="M36.997,20.573c3.77,9.915,10.703,17.044,18.957,23.466c8.008,6.23,16.599,12.674,25.366,17.782
				c4.81,2.803,11.815-1.847,9.815-7.546c-0.164-0.421-0.286-0.854-0.365-1.3c-0.212,1.619-0.424,3.238-0.636,4.857
				c0.068-0.124,0.138-0.247,0.206-0.37c4.206-7.544-6.387-13.232-11.297-6.604c-2.499,3.373-4.409,7.236-6.84,10.691
				c-2.594,3.687-5.731,6.992-8.983,10.098c-3.247,3.101-6.861,5.546-10.714,7.822c-3.621,2.14-8.059,3.128-10.244,7.006
				c-1.448,2.568-0.588,5.741,1.908,7.276c8.763,5.393,21.722-5.616,27.89-11.083C79.625,75.963,88.369,65.896,91,55.899
				c-3.985,0.521-7.971,1.042-11.956,1.563c0.068,0.124,0.138,0.247,0.206,0.37c-0.212-1.619-0.424-3.238-0.636-4.857
				c-0.079,0.446-0.201,0.879-0.365,1.3c3.723-0.983,7.445-1.966,11.169-2.949c-6.442-6.497-15.44-10.996-22.955-16.135
				c-7.369-5.041-14.965-11.057-19.745-18.715C43.646,11.554,34.778,14.739,36.997,20.573L36.997,20.573z"/>
		</g>
	</g>
</g>
</svg>
