<svg version="1.1" xmlns="http://www.w3.org/2000/svg" xmlns:xlink="http://www.w3.org/1999/xlink" x="0px" y="0px"
	 width="94.495px" height="148.766px" viewBox="0 0 94.495 148.766" enable-background="new 0 0 94.495 148.766"
	 xml:space="preserve" fill="white">
<g id="Layer_1">
	<g>
		<g>
			<path d="M47.273,26.469C42.74,44.524,37.129,62.187,33.656,80.526c-1.988,10.502-3.636,21.215-3.783,31.921
				c-0.062,4.462,0.365,8.927,1.182,13.313c0.42,2.258,1.436,4.381,2.402,6.447c0.512,1.094,1.313,1.999,2.133,2.873
				c3.566,3.805-0.41-0.452,1.914,1.711c5.166,4.808,15.972,0.136,12.891-7.504c-0.377-0.935-0.11-1.773-0.274-0.226
				c0.124-1.175-0.234-2.499-0.613-3.62c-0.49-1.45-0.745-2.979-1.108-4.464c-0.851-3.479-0.9-5.953-0.943-10.577
				c-0.09-9.763,1.229-19.532,2.777-29.149c2.833-17.598,7.614-35.426,7.847-53.319C58.159,21.732,48.793,20.421,47.273,26.469
				L47.273,26.469z"/>
		</g>
	</g>
	<g>
		<g>
			<path d="M6.069,97.932c0.123,4.928,2.568,9.562,4.613,13.953c2.898,6.222,6.035,12.33,10.188,17.817
				c4.228,5.585,9.147,10.429,16.395,11.27c6.214,0.722,11.694-1.532,16.365-5.496c8.384-7.114,11.314-20,14.85-29.901
				c1.863-5.217,3.459-9.21,6.496-14.081c0.977-1.566,2.115-2.847,4.16-4.604c1.063-0.912,5.338-3.149,6.438-5.7
				c1.486-3.455,0.83-6.598-2.313-8.818c-5.434-3.84-13.303,0.933-17.414,4.67c-3.941,3.582-6.798,8.458-8.967,13.265
				c-4.386,9.718-6.774,20.885-11.445,29.394c-0.505,0.919-1.079,1.796-1.672,2.659c0.87-1.268-0.854,0.922-1.089,1.164
				c-1.261,1.29-1.305,1.134-2.98,1.58c-0.922,0.18-0.938,0.192-0.045,0.038c-0.521,0.035-1.044,0.043-1.566,0.024
				c-2.036-0.019,1.266,0.738-0.485-0.195c-2.062-1.099-3.804-3.227-5.539-5.267c-3.995-4.697-7.229-10.184-10.385-15.462
				c-2.158-3.609-4.493-8.474-8.414-10.435C10.146,92.25,5.976,94.108,6.069,97.932L6.069,97.932z"/>
		</g>
	</g>
</g>
</svg>
