<?xml version="1.0" encoding="utf-8"?>
<!-- Generator: Adobe Illustrator 16.0.0, SVG Export Plug-In . SVG Version: 6.00 Build 0)  -->
<!DOCTYPE svg PUBLIC "-//W3C//DTD SVG 1.1//EN" "http://www.w3.org/Graphics/SVG/1.1/DTD/svg11.dtd">
<svg version="1.1" xmlns="http://www.w3.org/2000/svg" xmlns:xlink="http://www.w3.org/1999/xlink" x="0px" y="0px" width="288px"
	 height="391.333px" viewBox="0 0 288 391.333" enable-background="new 0 0 288 391.333" xml:space="preserve" fill="white">
<g id="Layer_2">
	<g>
		<g>
			<path d="M27.881,235.248c3.01,14.973,6.035,29.922,8.875,44.933c2.595,13.715,4.221,29.228,11.404,41.461
				c6.146,10.47,16.736,18.567,25.313,26.967c9.948,9.745,21.432,18.157,34.162,23.865c11.752,5.269,26.402,8.07,39.279,7.172
				c12.986-0.906,23.724-8.983,34.496-15.436c12.107-7.252,22.084-17.686,32.254-27.32c10.189-9.653,19.129-19.24,25.898-31.673
				c5.174-9.504,10.92-22.001,6.395-32.625c-1.305-3.061-5.309-1.058-5.578,1.511c-0.764,7.268-1.52,13.742-4.244,20.618
				c-2.553,6.446-6.033,12.555-9.936,18.269c-8.03,11.762-19.81,21.193-30.232,30.772c-10.438,9.592-22.313,17.445-34.828,24.081
				c-12.992,6.889-27.632,4.943-41.355,1.354c-13.613-3.56-25.703-11.739-36.222-20.844c-4.879-4.223-9.333-8.901-14.232-13.105
				c-4.964-4.259-9.872-8.451-14.041-13.524c-4.62-5.622-6.571-12.59-8.545-19.453c-2.208-7.676-4.035-15.479-5.474-23.334
				c-2.73-14.917-4.352-30.419-9.205-44.842C31.168,231.434,27.33,232.507,27.881,235.248L27.881,235.248z"/>
		</g>
	</g>
	<g>
		<g>
			<path d="M246.973,231.638c2.662,7.834,1.957,15.938,0.558,23.947c-1.021,5.839-4.62,14.356-2.233,20.108
				c0.533,1.287,2.113,1.63,2.947,0.385c2.092-3.125,2.188-7.359,2.84-10.987c0.721-4.018,1.524-8.027,2.029-12.081
				c0.986-7.925,0.826-15.532-3.072-22.667C249.137,228.688,246.354,229.82,246.973,231.638L246.973,231.638z"/>
		</g>
	</g>
	<g>
		<g>
			<path d="M247.577,269.628c-6.613,0.953-1.46,9.027,1.618,10.811c6.316,3.661,13.343,1.477,18.326-3.135
				c5.896-5.458,6.171-13.999,5.773-21.417c-0.32-5.94,0.299-10.906,1.841-16.581c2.691-9.901,7.076-20.792,6.021-31.227
				c-0.366-3.612-1.85-6.661-5.319-8.077c-3.863-1.577-10.722,0.915-12.442,4.597c-0.24,0.513-0.094,1.353,0.591,1.453
				c5.728,0.839,12.168-5.327,12.274,3.997c0.092,7.995-2.805,16.226-4.986,23.822c-2.311,8.042-3.544,14.881-3.696,23.326
				c-0.126,7.015-0.837,13.413-6.968,17.765c-2.305,1.635-5.91,1.316-8.361,0.254c-2.442-1.058-1.841-2.432-2.66-4.445
				C249.219,269.861,248.545,269.488,247.577,269.628L247.577,269.628z"/>
		</g>
	</g>
	<g>
		<g>
			<path d="M259.896,209.181c1.074-1.591,2.183-2.872,3.814-3.908c1.67-1.061,3.546-1.634,4.929-3.113
				c1.221-1.305,0.386-3.533-1.466-3.538c-4.67-0.011-10.299,4.306-11.568,8.75C254.846,210.033,258.449,211.325,259.896,209.181
				L259.896,209.181z"/>
		</g>
	</g>
	<g>
		<g>
			<path d="M266.646,200.022c1.493-2.042,2.016-4.622,3.438-6.778c2.02-3.063,5.087-5.572,8.089-7.607
				c2.228-1.51,0.803-4.691-1.782-4.226c-4.326,0.779-3.913-2.507-5.309-5.5c-1.373-2.941-3.721-5.144-5.816-7.588
				c-1.26-1.469-1.089-2.813-0.794-4.652c0.597-3.727,1.481-7.361,1.826-11.127c0.298-3.262-0.032-6.672-1.44-9.665
				c-1.572-3.343-4.465-5.551-4.972-9.455c-0.339-2.608,1.56-4.586,2.859-6.619c1.468-2.293,1.921-4.853,1.739-7.533
				c-0.117-1.739-1.533-2.797-3.235-2.465c-1.808,0.354-4.05,1.311-3.419-0.837c0.488-1.666,1.531-3.233,2.39-4.725
				c1.462-2.542,3.313-5.26,3.823-8.206c0.252-1.458-0.598-2.677-2.114-2.776c-1.989-0.129-3.829-0.817-5.778-1.145
				c-3.242-0.546-3.856,4.042-0.601,4.436c2.145,0.259,4.215,0.916,6.379,1.095c-0.704-0.925-1.409-1.851-2.114-2.776
				c-0.975,5.098-5.885,8.876-7.025,14.078c-1.38,6.285,5.621,6.37,9.819,5.787c-1.079-0.821-2.157-1.643-3.235-2.465
				c-0.158,6.077-6.232,9.351-4.822,15.964c0.857,4.02,3.396,6.341,4.898,9.922c2.051,4.891,0.229,10.843-0.712,15.777
				c-1.302,6.832,0.38,9.685,5.051,14.547c1.524,1.587,2.898,2.927,3.704,4.991c0.473,1.21,0.912,2.378,1.689,3.429
				c2.038,2.753,5.424,2.438,8.439,1.967c-0.594-1.409-1.188-2.817-1.782-4.226c-4.72,3.047-15.082,11.838-11.669,18.378
				C264.713,201.062,266.055,200.832,266.646,200.022L266.646,200.022z"/>
		</g>
	</g>
	<g>
		<g>
			<path d="M259.225,99.752c-0.107,0.163-0.217,0.326-0.324,0.488c0.135,1.034,0.27,2.067,0.404,3.1
				c5.787-4.075,6.994-23.233-2.64-23.704c-4.489-0.219-5.889,6.914-8.511-0.087c-0.829-2.212-1.283-4.566-1.949-6.828
				c-1.094-3.707-4.227-7.221-6.43-10.318c-8.669-12.189-16.195-25.19-29.262-33.284c-5.533-3.427-12.176-5.764-18.317-7.811
				c-4.611-1.537-13.46-4.788-17.912-1.58c-1.343,0.967-1.835,3.395,0,4.246c1.981,0.919,3.856,0.862,6.015,1.054
				c2.96,0.263,5.926,1.234,8.746,2.116c5.764,1.8,11.471,4.209,16.88,6.885c13.022,6.44,20.357,20.256,28.853,31.295
				c3.547,4.609,6.463,8.973,8.566,14.376c1.209,3.107,1.945,6.775,5.475,7.832c3.211,0.962,5.582-1.648,7.993-3.182
				c0.301-0.191,2.081,4.331,2.026,4.161c0.518,1.609,0.126,3.843-0.137,5.433c-0.438,2.64-2.166,5.277-1.948,7.932
				c0.206,2.509,3.974,1.896,3.332-0.451c0.059-0.428,0.081-0.857,0.068-1.289C260.16,99.658,259.557,99.421,259.225,99.752
				L259.225,99.752z"/>
		</g>
	</g>
	<g>
		<g>
			<path d="M170.004,23.313c-2.898-2.469-3.982-6.563-5.479-9.993c-1.337-3.063-2.894-7.774-6.612-8.445
				c-0.662-0.119-1.565,0.172-1.683,0.955c-0.55,3.688,2.407,7.868,3.858,11.194c1.754,4.018,4.799,6.032,8.447,8.192
				C169.697,25.905,171.07,24.222,170.004,23.313L170.004,23.313z"/>
		</g>
	</g>
	<g>
		<g>
			<path d="M160.977,15.872c-6.068-1.414-11.672-1.078-17.369-4.046c-2.449-1.276-4.617-3.549-7.239-4.444
				c-6.205-2.12-5.468,9.765-5.808,12.729c0.878-0.877,1.755-1.754,2.633-2.632c-4.357-0.231-7.534-2.094-10.695-4.972
				c-2.055-1.87-3.408-4.078-6.125-4.926c-1.571-0.49-3.131,1.114-2.669,2.668c1.024,3.443,4.735,6.26,7.575,8.305
				c3.654,2.632,7.408,3.998,11.914,4.188c1.542,0.065,2.488-1.254,2.631-2.632c0.256-2.466,0.035-6.063,1.131-8.356
				c-1.068,2.235-3.421,0.125-1.826,1.374c0.975,0.763,1.942,1.529,2.955,2.241c7.021,4.939,14.526,6.427,22.893,4.341
				C162.863,19.241,162.9,16.319,160.977,15.872L160.977,15.872z"/>
		</g>
	</g>
	<g>
		<g>
			<path d="M119.246,15.724c-1.338,4.987-6.305,4.502-10.586,5.58c-6.25,1.573-12.479,3.313-18.631,5.237
				c-11.107,3.475-21.652,9.016-31.159,15.697c-7.793,5.477-14.712,11.983-20.808,19.29c-3.16,3.787-6.104,7.778-8.932,11.814
				c-2.595,3.703-6.285,8.188-6.369,12.877c-0.02,1.085,1.209,1.741,2.125,1.219c4.064-2.318,6.301-7.633,8.763-11.455
				c2.951-4.58,6.126-8.952,9.655-13.105c7.268-8.555,15.926-15.55,25.624-21.166c11.715-6.782,24.822-10.441,37.804-13.958
				c5.736-1.554,19.537-3.114,14.769-12.326C121.002,14.465,119.513,14.727,119.246,15.724L119.246,15.724z"/>
		</g>
	</g>
	<g>
		<g>
			<path d="M64.201,45.18c-2.291,2.223-4.229,5.681-5.46,8.603c-0.66,1.567,1.179,2.766,2.507,2.507
				c2.867-0.558,5.79-0.726,8.648-1.344c-0.6-1.029-1.199-2.059-1.798-3.087c-2.567,3.149-7.389,4.49-8.983,8.555
				c-1.025,2.616-0.057,5.038,2.631,5.905c3.346,1.079,7.877-0.634,11-1.683c3.37-1.132,6.956-2.229,9.972-4.142
				c0.751-0.477,0.722-1.813-0.263-2.011c-4.245-0.859-9.369,2.366-13.301,3.653c-1.369,0.448-6.947,2.71-7.688,0.518
				c-1.09-3.23,6.074-6.866,8.43-7.708c1.832-0.654,1.699-3.902-0.492-3.629c-3.081,0.385-6.196,0.392-9.24,1.042
				c0.836,0.836,1.672,1.671,2.508,2.507c1.12-2.802,3.667-5.068,4.357-8.041C67.41,45.188,65.444,43.974,64.201,45.18L64.201,45.18
				z"/>
		</g>
	</g>
	<g>
		<g>
			<path d="M23.492,83.501c-0.929,1.587-1.091,3.06-0.164,4.766c0.604,1.112,1.354,2.192,1.841,3.362
				c0.605,1.457-1.43,4.174-2.155,5.389c-2.625,4.401-1.854,7.903,2.476,10.634c-0.306-0.749-0.61-1.498-0.915-2.247
				c-2.453,7.216-6.987,13.391-9.882,20.402c-2.964,7.181-3.763,15.071-8.337,21.535c-0.863,1.218,0.318,2.675,1.581,2.756
				c2.579,0.167,4.554-0.421,6.47-2.171c2.471-2.257,2.731-5.484,6.867-5.018c-0.533-0.534-1.066-1.068-1.601-1.602
				c-0.849,18.177-18.918,30.399-20.099,48.711c-0.04,0.62,0.393,1.459,0.982,1.712c5.592,2.397,8.432-1.608,11.283-6.005
				c-1.139-0.309-2.279-0.618-3.419-0.926c0.279,5.843-2.028,11.204-2.825,16.912c-0.22,1.57,1.742,3.376,3.053,1.777
				c1.779-2.172,3.346-4.92,5.227-6.95c-0.579-0.24-1.158-0.48-1.738-0.72c-0.084,1.354-0.115,2.704-0.148,4.059
				c-0.037,1.505,2.371,1.505,2.334,0c-0.033-1.355-0.064-2.706-0.148-4.059c-0.064-1.024-1.326-1.374-1.898-0.514
				c-1.449,2.181-4.229,3.966-6.211,5.602c1.018,0.592,2.035,1.185,3.053,1.777c0.914-6.022,3.27-11.71,2.974-17.882
				c-0.089-1.869-2.394-2.446-3.419-0.926c-1.469,2.173-3.074,5.701-6.587,4.233c0.485,0.638,0.971,1.275,1.456,1.913
				c1.008-18.233,19.221-29.924,19.334-48.711c0.006-0.92-0.734-1.539-1.602-1.602c-6.229-0.447-7.545,7.339-13.337,6.728
				c0.432,1.042,0.863,2.085,1.296,3.127c4.76-5.818,6.032-12.428,8.275-19.433c2.656-8.3,8.153-15.371,10.904-23.666
				c0.284-0.859-0.186-1.792-0.915-2.247c-4.722-2.947,1.025-7.38,1.329-11.164c0.279-3.484-2.482-6.556-3.972-9.552
				C24.586,82.96,23.775,83.017,23.492,83.501L23.492,83.501z"/>
		</g>
	</g>
	<g>
		<g>
			<path d="M27.038,217.904c1.138-6.351-3.583-17.502-10.848-18.282c-9.876-1.061-9.466,12.207-8.554,18.443
				c0.705,4.828,2.146,9.548,3.531,14.213c1.666,5.606,2.525,11.556,3.596,17.305c2.198,11.8,5.236,23.686,12.945,33.163
				c0.815,1.002,2.527,0.854,3.367,0c2.586-2.629,3.099-6.199,3.463-9.729c0.299-2.903,1.2-8.138-1.28-10.318
				c-0.582-0.512-1.353-0.523-1.934,0c-4.186,3.765,0.636,12.271-3.616,16.681c1.123,0,2.244,0,3.367,0
				c-11.84-14.263-10.504-32.618-15.313-49.415c-1.904-6.648-4.483-14.313-3.197-21.284c1.022-5.544,4.68-2.846,6.638,0.236
				c1.733,2.728,2.434,5.912,3.265,8.988C23.048,220.051,26.611,220.288,27.038,217.904L27.038,217.904z"/>
		</g>
	</g>
	<g>
		<g>
			<path d="M33.66,239.31c0.041-0.879-0.361-1.354-1.244-1.412c-1.068-0.07-1.08,1.698,0,1.666c0.49-0.015-0.166,0.093-0.34-0.426
				c-0.055-0.165,0.006,0.167,0.007,0.173C32.134,240.326,33.613,240.328,33.66,239.31L33.66,239.31z"/>
		</g>
	</g>
	<g>
		<g>
			<path d="M34.951,239.31c0.226,1.942,5.936,1.408,7.779,1.195c2.283-0.263,3.559-2.271,2.533-4.417
				c-1.543-3.234-2.781-6.581-3.967-9.96c-1.221-3.48-3.332-6.525-4.678-9.938c-2.981-7.56,3.211-16.544,4.592-24.047
				c3.4-18.473-3.661-36.954-2.504-55.474c-1.011,0.418-2.021,0.837-3.031,1.255c0.045,0.124,0.092,0.248,0.137,0.373
				c0.247,1.821,2.953,1.538,3.396,0c1.221-4.238,8.079-13.133,3.481-16.956c-1.251-1.041,0.351-7.059,0.427-8.901
				c0.094-2.244,0.08-4.58,0.423-6.803c-0.95-0.129-1.899-0.257-2.849-0.386c0.002,0.035,0.005,0.069,0.008,0.104
				c0.119,1.585,2.401,2.035,2.85,0.386c0.426-1.563,0.562-4.944,1.955-4.569c2.295,0.618,3.332,0.49,5.017,2.287
				c3.343,3.565,6.394-0.974,8.405-3.214c4.584-5.105,8.447-10.765,13.053-15.833c1.635-1.798,4.5-3.789,4.141-6.463
				c-0.363-2.695-0.758-4.17-2.887-5.995c-2.063-1.768-4.756-0.512-5.041,2.088c-0.928,8.498,5.266,14.157,13.633,13.124
				c8.596-1.061,15.979-7.292,17.092-16.023c-2.236,0.303-4.473,0.605-6.71,0.908c1.207,2.88,0.097,5.932-0.024,8.95
				c-0.055,1.33,1.039,2.999,2.436,3.201c11.932,1.722,17.434-7.264,21.675-16.971c-1.49,0-2.98,0-4.471,0
				c2.474,3.406,0.478,4.42-1.736,7.03c-1.376,1.623-1.913,3.589-1.097,5.599c0.399,0.983,1.069,1.595,2.169,1.651
				c8.886,0.458,10.583-8.747,11.528-15.706c-0.71,0.404-1.42,0.807-2.131,1.21c3.486,0.922,3.088,7.359,4.355,10.169
				c2.007,4.451,7.564,2.511,10.656,0.675c-1.178-0.905-2.355-1.811-3.533-2.717c-0.506,1.202-0.569,1.673-0.631,2.959
				c1.553-0.21,3.104-0.42,4.656-0.63c-0.955-6.408,1.97-7.84,7.529-9.81c4.708-1.668,10.086-3.275,15.12-2.897
				c-0.745-0.568-1.491-1.135-2.237-1.703c2.079,5.789-4.393,11.566-5.229,17.32c-0.372,2.556,2.723,4.118,4.26,1.796
				c4.99-7.537,11.326-13.184,19.468-17.127c-1.149-0.468-2.298-0.935-3.447-1.402c0.823,4.732-0.989,8.111-4.593,11.077
				c-1.787,1.47,0.121,4.611,2.252,3.869c3.111-1.084,6.933-3.419,7.964,0.76c1.301,5.273,0.773,10.772,1.662,16.099
				c0.272,1.638,3.006,2.045,3.671,0.479c1.563-3.683,3.068-7.385,4.734-11.023c1.515-3.309,3.951-9.851,7.99-10.641
				c-0.836-0.835-1.671-1.67-2.506-2.506c-1.351,6.053-4.451,10.961-4.244,17.358c0.066,2.039,2.974,3.06,4.004,1.084
				c4.906-9.402,7.073-20.811,14.891-28.411c-1.343-0.556-2.686-1.112-4.027-1.668c-0.947,9.549-5.779,18.178-8.801,27.156
				c-0.917,2.723,3.458,4.606,4.666,1.967c1.07-2.338,2.792-7.052,6.008-5.686c1.975,0.839,2.151,3.369,2.238,5.191
				c0.198,4.133-0.336,8.001-1.863,11.779c-1.673,4.14,0.992,6.544,4.091,8.906c3.118,2.375,8.702,1.119,12.257,1.03
				c-0.932-0.931-1.861-1.862-2.793-2.793c0.1,1.791,0.181,2.672-0.501,4.471c-0.408,1.077,0.234,2.7,1.294,3.179
				c0.051,0.049,0.103,0.099,0.154,0.148c0.959,2.094,3.76,1.54,4.852,0c2.871-4.044,5.751-8.468,9.992-11.201
				c-1.391-0.798-2.783-1.597-4.174-2.396c-0.159,9.524-3.974,26.192,9.563,28.231c-0.655-1.155-1.312-2.31-1.968-3.465
				c-1.324,8.043,0.495,20.214,11.549,16.093c-1.011-1.313-2.021-2.627-3.03-3.941c-3.163,4.833-3.653,10.653-3.913,16.287
				c-0.311,6.757-0.354,13.19-1.473,19.891c-1.189,7.12,0.943,12.395,2.516,19.228c0.891,3.866,0.343,8.546,0.244,12.495
				c-0.103,4.123,0.167,8.201,0.229,12.32c0.021,1.344,2.218,1.744,2.424,0.328c1.019-6.976,0.513-13.877,1.17-20.862
				c0.64-6.803-2.823-12.933-2.35-19.731c0.425-6.09,1.816-11.868,1.901-18.025c0.09-6.575-0.212-13.681,3.884-19.222
				c1.431-1.935-0.921-4.592-3.03-3.941c-5.987,1.85-5.337-5.412-4.688-9.421c0.22-1.363-0.336-3.224-1.968-3.465
				c-9.606-1.419-5.606-16.102-5.513-22.799c0.027-2.038-2.402-3.545-4.176-2.396c-5.078,3.293-8.563,8.311-12.043,13.155
				c1.617,0,3.234,0,4.852,0c-0.522-1.16-1.008-1.643-2.164-2.172c0.431,1.06,0.861,2.119,1.293,3.179
				c0.769-2.081,0.797-3.767,0.658-5.967c-0.094-1.479-1.199-2.846-2.793-2.793c-2.213,0.073-4.41,0.302-6.627,0.31
				c-1.407,0.005-2.474-0.212-3.586-1.045c-2.016-1.51-0.685-2.232-0.016-4c1.451-3.832,1.361-9.22,0.922-13.262
				c-0.445-4.095-2.493-6.927-6.271-8.496c-6.002-2.493-9.488,3.539-11.562,8.281c1.556,0.656,3.11,1.312,4.667,1.967
				c3.021-9.511,7.725-18.437,8.595-28.513c0.183-2.122-2.663-3.028-4.026-1.668c-8.093,8.071-10.263,19.684-15.266,29.578
				c1.336,0.361,2.67,0.723,4.004,1.084c-0.27-5.958,2.689-10.618,3.875-16.275c0.329-1.567-0.939-2.833-2.506-2.506
				c-8.836,1.847-11.471,16.882-15.109,23.566c1.248,0.338,2.495,0.676,3.742,1.014c-0.434-6.358,0.805-14.191-2.417-20.063
				c-2.459-4.483-8.86-1.934-12.384-0.725c0.75,1.29,1.502,2.579,2.252,3.869c4.993-4.07,6.941-9.266,5.845-15.598
				c-0.276-1.598-2.206-2.005-3.447-1.402c-8.849,4.297-15.719,10.643-21.124,18.826c1.42,0.599,2.84,1.198,4.26,1.796
				c1.01-6.998,7.896-12.333,5.209-19.793c-0.375-1.04-1.133-1.622-2.237-1.703c-6.806-0.502-14.081,2.041-20.276,4.611
				c-6.262,2.598-7.814,6.835-7.029,13.366c0.36,2.999,4.504,3.102,4.742,0c0.095-0.369,0.189-0.737,0.285-1.105
				c0.952-2.096-1.049-4.583-3.291-3.292c-1.432,0.824-3.698,2.838-4.774,0.812c-0.714-1.344-0.898-3.115-1.298-4.573
				c-0.812-2.963-2.385-5.642-5.591-6.271c-1.155-0.227-2.11,0.493-2.193,1.671c-0.376,5.333-1.206,12.423-8.125,11.668
				c0.723,0.55,1.446,1.101,2.169,1.651c-0.563-1.581,3.289-4.243,4.157-5.725c1.618-2.763,0.409-5.9-1.191-8.321
				c-0.993-1.502-3.563-1.853-4.471,0c-3.071,6.268-7.03,14.908-15.438,13.183c0.812,1.067,1.624,2.134,2.436,3.201
				c0.375-3.756,1.508-7.113-0.024-10.767c-1.524-3.636-6.21-3.007-6.71,0.908c-1.065,8.351-18.426,14.611-17.986,2.899
				c-1.481,0.85-2.963,1.7-4.443,2.549c0.964,0.713,0.926,1.735,1.154,2.822c0.236-0.893,0.473-1.786,0.709-2.679
				c-4.613,5.283-6.771,11.918-11.238,17.348c-1.352,1.644-2.904,3.144-4.31,4.746c-1.995,2.274-2.456,3.507-4.724,0.767
				c-1.143-1.379-5.225-1.806-6.922-1.598c-2.736,0.335-3.07,5.036-3.574,6.974c0.951,0.128,1.9,0.257,2.852,0.386
				c-0.004-0.035-0.006-0.069-0.01-0.104c-0.131-1.51-2.604-2.113-2.85-0.386c-0.697,4.903-0.631,9.692-1.709,14.564
				c-0.576,2.596,2.223,3.643,1.879,5.583c-0.771,4.333-3.791,8.142-5.1,12.347c1.153,0.156,2.307,0.312,3.459,0.468
				c-0.127-1.108-0.354-1.563-1.085-2.415c-1.101-1.284-2.914-0.141-3.03,1.255c-1.677,20.071,5.902,39.796,1.329,59.713
				c-1.712,7.457-6.188,12.923-3.856,20.908c2.167,7.42,4.178,14.763,7.566,21.761c0.846-1.472,1.689-2.944,2.535-4.417
				c-2.753,0.333-13.779-0.314-11.865,5.228C31.586,241.95,35.236,241.766,34.951,239.31L34.951,239.31z"/>
		</g>
	</g>
	<g>
		<g>
			<path d="M244.277,229.544c-0.418,0.739-0.638,1.616-0.82,2.439c0.36-0.274,0.721-0.548,1.08-0.823
				c-0.959,0.079-1.258,0.802-1.572,1.567c-0.274,0.667-0.195,1.517,0.361,2.03c0.839,0.775,2.115,0.595,2.689-0.396
				c0.128-0.22,0.212-0.474,0.283-0.718c0.092-0.311,0.118-0.675,0.031-0.991c-0.072-0.259-0.203-0.483-0.393-0.674
				c0.055,0.11,0.053,0.112-0.008,0.007c-0.219-0.357-0.71-0.619-1.131-0.461c-0.025,0.009-0.05,0.019-0.074,0.028
				c0.268-0.043,0.176-0.032-0.273,0.033c-0.413,0.114-0.756,0.412-0.974,0.775c-0.052,0.085-0.104,0.17-0.161,0.252
				c0.201-0.249,0.255-0.319,0.16-0.211c-0.396,0.378,0.093,0.259,1.469-0.36c0.241,0.14,0.482,0.281,0.723,0.421
				c0.299,0.26,0.432,0.774,0.442,1.028c-0.017-0.394-0.077-0.52-0.239-0.87c-0.094-0.2,0.18,0.451,0.094,0.215
				c-0.021-0.056-0.038-0.112-0.056-0.168c-0.207-0.664-0.335-1.177-1.073-1.468c0.273,0.36,0.549,0.72,0.822,1.081
				c0.016-0.181,0.035-0.362,0.057-0.542c0.036-0.308-0.033,0.225,0.012-0.084c0.018-0.121,0.037-0.241,0.059-0.361
				c0.059-0.339,0.131-0.684,0.259-1.004C246.459,229.254,244.804,228.61,244.277,229.544L244.277,229.544z"/>
		</g>
	</g>
	<g>
		<g>
			<path d="M247.432,219.268c1.074,0,1.074-1.667,0-1.667S246.357,219.268,247.432,219.268L247.432,219.268z"/>
		</g>
	</g>
	<g>
		<g>
			<path d="M247.432,218.577c0.185,0,0.185-0.286,0-0.286S247.247,218.577,247.432,218.577L247.432,218.577z"/>
		</g>
	</g>
	<g>
		<g>
			<path d="M247.432,216.235c0.156,0,0.156-0.241,0-0.241S247.275,216.235,247.432,216.235L247.432,216.235z"/>
		</g>
	</g>
	<g>
		<g>
			<path d="M245.7,214.936c-1.802,1.404-1.757,5.017-1.876,7.031c-0.081,1.394-0.166,2.787-0.269,4.179
				c-0.043,0.586-0.099,1.172-0.147,1.758c-0.01,0.129-0.15,1.525-0.036,0.749c-0.312,2.124,1.285,4.443,3.698,3.699
				c1.877-0.579,3.816-0.726,5.597-0.414c1.551,0.272,3.152,0.725,4.704,0.18c2.004-0.705,2.574-2.463,2.935-4.298
				c0.554-2.814,1.285-7.168-0.638-9.444c-0.573-0.679-1.863-0.673-2.438,0c-1.8,2.106-1.08,5.344-1.367,7.983
				c-0.127,1.16-0.804,1.446,0.207,0.829c0.128-0.078,0.279-0.04,0.174-0.066c-3.693-0.896-6.98-1.484-10.771-0.569
				c1.232,1.233,2.465,2.466,3.698,3.699c0.534-2.535,0.497-5.171,0.563-7.749c0.06-2.321,0.403-5.685-1.259-7.567
				C247.704,214.063,246.5,214.313,245.7,214.936L245.7,214.936z"/>
		</g>
	</g>
	<g>
		<g>
			<path d="M258.632,222.676c0.861-0.713,0.851-1.713,0.87-2.765c0.033-1.852,0.282-3.683,0.584-5.507
				c0.414-2.503,2.291-6.314,0.428-8.471c-0.268-0.309-0.857-0.486-1.244-0.329c-2.867,1.167-2.653,5.626-2.994,8.284
				c-0.272,2.129-1.529,7.778,1.05,8.958C257.807,223.064,258.225,223.014,258.632,222.676L258.632,222.676z"/>
		</g>
	</g>
	<g>
		<g>
			<path d="M31.119,238.626c0.503-2.6,0.269-5.182-0.063-7.788c-0.307-2.415-0.633-5.169-3.133-6.185
				c-1.438-0.584-2.814,0.86-2.873,2.189c-0.072,1.65,0.969,3.618,1.234,5.295c0.379,2.398,0.469,4.693,1.561,6.916
				C28.512,240.41,30.83,240.119,31.119,238.626L31.119,238.626z"/>
		</g>
	</g>
	<g>
		<g>
			<path d="M30.713,216.884c4.333-5.264,8.521-10.047,13.716-14.587c5.075-4.437,13.76-9.042,16.415-15.5
				c0.994-2.417-1.802-4.286-3.873-3.873c-2.96,0.589-6.096,3.199-8.425,5c-3.796,2.935-7.561,5.909-11.224,9.01
				c-4.462,3.778-14.431,11.432-12.383,18.426C25.613,217.659,28.994,218.971,30.713,216.884L30.713,216.884z"/>
		</g>
	</g>
	<g>
		<g>
			<path d="M57.575,181.042c0.2-0.356,0.401-0.712,0.602-1.068c-0.679,0.39-1.358,0.779-2.037,1.168
				c0.169,0.011,0.339,0.022,0.508,0.033c-1.071-1.407-2.144-2.813-3.215-4.22c-1.499,7.395-1.333,15.504-1.647,23.041
				c-0.257,6.134-1.574,15.595,2.855,20.444c1.148,1.256,3.715,1.069,4.457-0.574c1.376-3.051,0.924-5.446,0.662-8.758
				c-0.292-3.692-0.225-7.414-0.132-11.112c0.189-7.543,1.628-15.579,0.234-23.041c-0.918-4.918-9.007-1.352-6.094,2.569
				c0.38,0.439,0.644,0.945,0.791,1.518C55.088,182.278,56.988,182.084,57.575,181.042L57.575,181.042z"/>
		</g>
	</g>
	<g>
		<g>
			<path d="M57.36,183.907c2.257-0.369,4.465-1.506,6.701-2.089c2.923-0.762,5.984-1.191,8.978-1.562
				c6.353-0.787,12.761-1.008,19.121-1.737c7.418-0.851,14.633-2.316,22.138-2.452c6.194-0.112,13.892,5.851,18.769-0.092
				c1.339-1.633,0.41-3.634-1.613-3.893c-3.545-0.453-6.396-1.221-9.734-2.49c-3.789-1.44-8.6-0.738-12.547-0.464
				c-6.852,0.475-13.589,1.907-20.438,2.422c-6.447,0.485-12.882,0.993-19.28,1.942c-4.863,0.722-12.26,1.942-15.122,6.475
				C52.955,182.149,55.208,184.258,57.36,183.907L57.36,183.907z"/>
		</g>
	</g>
	<g>
		<g>
			<path d="M118.451,175.395c-1.206,6.535-0.849,13.412-0.953,20.037c-0.076,4.842-2.187,13.566,2.03,16.951
				c0.972,0.78,2.002,0.78,2.974,0c4.217-3.384,2.106-12.109,2.03-16.951c-0.104-6.625,0.253-13.502-0.953-20.037
				C123.109,172.847,118.922,172.847,118.451,175.395L118.451,175.395z"/>
		</g>
	</g>
	<g>
		<g>
			<path d="M54.792,214.466c1.851,4.845,8.631,4.064,12.819,3.714c6.417-0.536,12.745-2.011,19.19-2.198
				c7.036-0.205,14.013,0.479,21.042,0.689c5.657,0.169,13.025,0.374,17.135-4.132c1.464-1.605,0.348-3.741-1.644-3.969
				c-5.562-0.638-11.396,0.627-17.05,0.43c-6.5-0.227-12.973-1.053-19.483-0.873c-5.382,0.149-10.681,0.928-16.002,1.709
				c-2.794,0.41-5.587,0.632-8.404,0.796c-2.144,0.125-4.594-0.326-6.443,0.982C55.088,212.226,54.368,213.357,54.792,214.466
				L54.792,214.466z"/>
		</g>
	</g>
	<g>
		<g>
			<path d="M155.963,179.773c-1.279,5.362-0.943,11.012-0.704,16.473c0.222,5.036-1.151,13.487,2.446,17.393
				c1.083,1.176,3.248,1.208,4.326,0c3.475-3.894,1.566-10.982,1.26-15.797c-0.363-5.729-0.566-11.458-0.842-17.19
				C162.277,177.038,156.859,176.018,155.963,179.773L155.963,179.773z"/>
		</g>
	</g>
	<g>
		<g>
			<path d="M155.809,183.624c4.871-0.325,9.646-1.162,14.549-1.149c5.349,0.014,10.706,0.668,16.037,1.039
				c6.763,0.471,13.572-0.233,20.299-0.884c6.873-0.665,14.584-0.153,21.237-1.901c2.988-0.785,2.72-4.865,0-5.772
				c-6.478-2.162-14.552-0.514-21.237,0.003c-7.213,0.559-14.422,0.983-21.648,0.413c-9.112-0.719-24.211-3.889-30.865,4.321
				C153.039,181.102,153.6,183.771,155.809,183.624L155.809,183.624z"/>
		</g>
	</g>
	<g>
		<g>
			<path d="M157.787,208.576c-0.236,0.729-0.471,1.459-0.707,2.188c-0.566,1.039-0.406,2.237,0.4,3.099
				c5.086,5.436,14.33,4.293,20.982,3.422c6.607-0.866,12.756-1.669,19.418-1.322c6.146,0.32,33.188,4.159,33.073-6.807
				c-0.016-1.49-1.199-2.605-2.659-2.659c-4.112-0.152-8.478,1.852-12.693,2.063c-6.242,0.313-12.533-0.096-18.775-0.277
				c-5.179-0.149-10.076,0.357-15.186,1.234c-3.412,0.585-20.186,4.263-20.852-0.941
				C160.543,206.646,158.033,206.646,157.787,208.576L157.787,208.576z"/>
		</g>
	</g>
	<g>
		<g>
			<path d="M223.527,208.576c0.651-6.019,1.191-12.016,1.971-18.025c0.613-4.738,2.285-11.326-0.664-15.476
				c-0.881-1.239-2.662-1.379-3.516,0c-2.684,4.335-1.936,11.37-2.631,16.374c-0.822,5.91-1.643,11.944-0.602,17.864
				C218.67,212.637,223.219,211.432,223.527,208.576L223.527,208.576z"/>
		</g>
	</g>
	<g>
		<g>
			<path d="M119.965,192.396c3.049,2.309,7.356-0.954,10.395-2.054c4.224-1.528,8.154-1.362,12.354-0.164
				c6.55,1.87,12.248,5.012,16.986,9.869c0.699,0.718,1.961,0.738,2.658,0c6.287-6.654-7.994-13.417-12.406-15.271
				c-10.23-4.3-19.781-4.111-29.365,2.112c-0.966,0.627-1.823,1.763-1.715,2.989C118.969,190.973,119.047,191.7,119.965,192.396
				L119.965,192.396z"/>
		</g>
	</g>
	<g>
		<g>
			<path d="M221.32,192.148c3.51,4.987,8.895,7.996,14.098,10.963c3.227,1.84,6.498,3.603,9.731,5.432
				c2.874,1.625,5.511,3.663,8.817,4.25c3.044,0.541,6.178-2.503,4.261-5.542c-3.249-5.151-10.197-7.694-15.356-10.553
				c-5.557-3.081-10.834-6.712-16.466-9.637C223.352,185.476,219.027,188.891,221.32,192.148L221.32,192.148z"/>
		</g>
	</g>
	<g>
		<g>
			<path d="M169.262,173.581c-6.064-2.114-4.765-5.657-0.16-8.396c4.201-2.5,9.37-3.42,14.192-3.055
				c3.231,0.244,5.343,2.413,7.597,4.502c2.252,2.087,4.652,3.312,7.619,4.051c3.945,0.983,7.863-0.469,11.328,2.269
				c2.488,1.966,4.498,4.607,7.217,6.264c1.024,0.625,2.41-0.179,2.393-1.373c-0.054-3.734-2.968-6.601-5.679-8.821
				c-4.065-3.331-7.479-4.068-12.729-4.06c-5.53,0.009-8.575-5.649-13.401-7.552c-3.076-1.213-6.852-1.079-10.047-0.544
				c-6.094,1.02-12.438,3.591-16.239,8.66c-4.202,5.606,1.356,10.284,5.895,12.835C170.533,180.207,172.885,174.844,169.262,173.581
				L169.262,173.581z"/>
		</g>
	</g>
	<g>
		<g>
			<path d="M65.686,176.682c0.229-1.886-0.234-3.39,0.824-5.109c1.07-1.736,3.984-2.877,5.792-3.609
				c4.749-1.924,9.979-2.76,15.021-3.508c5.699-0.846,11.289-1.988,16.959-3.019c2.367-0.43,12.439-1.418,12.695,2.701
				c0.154,2.487-3.51,6.395-4.537,8.603c-1.775,3.816,3.066,6.528,5.554,3.246c5.327-7.03,9.632-15.322-0.413-20.332
				c-8.845-4.411-20.5,0.822-29.555,2.215c-7.033,1.083-14.166,2.42-20.529,5.744c-4.796,2.505-9.886,9.524-5.361,14.54
				C63.484,179.649,65.488,178.316,65.686,176.682L65.686,176.682z"/>
		</g>
	</g>
	<g>
		<g>
			<path d="M141.381,180.164c-1.005,15.601-6.424,30.359,1.969,45.026c3.123,5.459,10.236,10.881,6.993,17.724
				c-3.638,7.675-12.683,6.859-19.308,5.302c-2.326-0.547-4.459,1.928-3.152,4.103c4.412,7.346,14.588,5.592,21.047,2.431
				c7.523-3.682,12.356-12.177,10.152-20.387c-1.043-3.888-3.763-7.197-6.052-10.406c-2.913-4.084-4.95-8.375-5.418-13.422
				c-0.946-10.201,3.151-20.184,1.929-30.369C148.924,175.022,141.725,174.808,141.381,180.164L141.381,180.164z"/>
		</g>
	</g>
	<g>
		<g>
			<path d="M67.01,287.922c1.127,2.335,3.926,4.112,6.225,1.883c2.535-2.458,2.804-6.597,3.256-9.892
				c0.451-3.296,9.846-19.971,13.492-16.53c1.201,1.133,2.867,1.056,4.076,0c4.68-4.088,13.896-3.971,19.715-4.262
				c9.356-0.467,17.872,4.153,27.074,5.069c7.59,0.756,13.195-6.13,20.535-6.828c3.828-0.364,6.92,2.259,9.788,4.377
				c2.257,1.666,6.901,4.407,7.019,7.145c0.076,1.82,1.374,2.985,3.135,3.135c3.994,0.34,8.006-0.697,11.356-2.891
				c-1.489-0.854-2.978-1.709-4.468-2.563c-0.99,8.101,5.715,11.874,12.979,10.771c-1.16-0.884-2.321-1.769-3.482-2.653
				c-0.203,4.733,1.258,9.851,3.701,13.897c1.145,1.897,4.234,1.142,4.208-1.14c-0.054-4.467-2.695-8.174-2.407-12.758
				c0.086-1.357-1.324-2.938-2.75-2.751c-3.267,0.43-6.986-0.354-6.416-4.579c0.317-2.351-1.903-4.918-4.361-3.353
				c-2.717,1.731-5.189,2.085-8.359,1.749c1.045,1.045,2.09,2.09,3.135,3.135c-0.273-4.04-1.517-6.131-4.992-8.136
				c-3.492-2.014-6.454-5.019-9.994-7.063c-8.882-5.128-16.821,1.32-24.93,4.341c-5.186,1.933-12.539-1.677-17.514-3.175
				c-4.711-1.418-9.418-2.018-14.318-1.835c-7.201,0.269-17.102,1.314-22.729,6.292c1.359,0,2.717,0,4.076,0
				c-6.247-5.822-13.844,2.534-17.502,7.36c-2.162,2.853-4.286,6.092-5.273,9.574c-0.418,1.478-0.393,3.218-0.572,4.74
				c-0.122,1.025-0.316,2.036-0.518,3.048c-0.109,0.55-0.254,1.092-0.434,1.624c1.189-0.021,1.232-0.224,0.127-0.607
				C67.977,283.836,66.15,286.143,67.01,287.922L67.01,287.922z"/>
		</g>
	</g>
	<g>
		<g>
			<path d="M85.273,291.695c0.484-0.329,6.495-4.946,6.002-5.03c-0.652-1.149-1.305-2.298-1.957-3.448
				c-0.088,0.641-0.18,1.257-0.178,1.905c0.007,2.441,3.177,3.909,4.916,2.036c4.27-4.595,10.789-5.804,16.691-6.988
				c5.612-1.126,11.142-2.364,16.412-4.649c-1.361-0.357-2.722-0.714-4.082-1.07c5.547,8.383,22.791,1.573,26.871-5.406
				c-1.625-0.44-3.25-0.88-4.874-1.32c-0.163,6.941,8.914,7.995,14.011,8.629c7.332,0.912,18.869-1.331,22.301,7.07
				c0.401,0.982,1.121,1.717,2.257,1.718c5.222,0.007,9.077,5.022,12.991,7.943c1.454,1.085,3.578-1.057,2.511-2.511
				c-3.714-5.06-8.707-10.418-15.502-10.113c0.674,0.386,1.347,0.772,2.021,1.159c-3.172-6.828-8.603-7.91-15.574-8.817
				c-2.583-0.337-19.654-1.485-19.784-5.079c-0.089-2.459-3.639-3.753-4.874-1.32c-1.592,3.138-14.445,8.725-17.201,5.033
				c-1.021-1.368-2.5-1.865-4.082-1.07c-10.864,5.458-25.215,3.195-34.164,12.718c1.639,0.679,3.277,1.357,4.916,2.036
				c0.002-0.647-0.09-1.264-0.178-1.905c-0.219-1.617-2.107-2.188-3.447-1.958c-3.578,0.613-6.277,5.555-8.147,8.29
				C82.249,290.834,83.989,292.566,85.273,291.695L85.273,291.695z"/>
		</g>
	</g>
	<g>
		<g>
			<path d="M98.283,287.866c1.463,7.19,9.451,9.693,15.721,11.096c7.506,1.68,15.337,1.389,22.941,2.34
				c8.914,1.114,17.953,0.86,26.836-0.382c8.166-1.142,17.449-3.619,23.135-10.004c2.208-2.48,0.623-5.964-2.582-6.234
				c-27.418-2.31-54.656-2.657-82,0.713c0.349,2.579,0.697,5.158,1.047,7.737c7.979-1.724,18.995-3.849,26.79-0.432
				c0-2.124,0-4.248,0-6.371c-3.714,2.344-7.801,2.578-12.056,3.097c1.147,0.873,2.295,1.746,3.441,2.619
				c-0.203-0.771-0.406-1.541-0.609-2.311c-1.137,1.493-2.274,2.985-3.411,4.478c5.319-0.154,12.946-2.07,17.403,1.675
				c0.771-1.861,1.541-3.723,2.313-5.584c-4.065,0.38-7.601-0.589-11.322-2.154c0.257,1.962,0.514,3.923,0.77,5.885
				c6.964-3.56,15.801,1.185,23.311,0.469c-0.766-1.849-1.531-3.698-2.297-5.547c-1.88,1.715-8.246,4.562-9.75,0.883
				c-0.731,1.289-1.463,2.577-2.195,3.866c2.723-0.799,5.447-1.528,8.238-2.053c1.895-0.357,3.969-0.546,5.888-0.261
				c3.558,0.528-0.41,0.904-2.017,0.564c0.705,0.926,1.41,1.853,2.115,2.779c0-1.637,4.498,0.822,4.941,1.044
				c1.984,0.996,3.888,1.573,6.094,1.773c-1.133-1.133-2.265-2.265-3.397-3.398c-0.001,0.193-0.001,0.387-0.001,0.58
				c1.133-1.133,2.266-2.266,3.398-3.399c-2.979,0.325-5.405,0.121-8.131-1.296c0,1.97,0,3.941,0,5.911
				c4.021-2.065,8.327-0.668,12.431,0.38c0.307-2.265,0.612-4.53,0.919-6.794c-3.297-0.068-6.414-0.467-9.535-1.556
				c-0.301,2.224-0.602,4.448-0.902,6.672c7.818-0.95,15.846-0.351,23.439-2.729c-1.166-0.475-2.332-0.949-3.499-1.424
				c2.953,6.552-18.693,5.433-21.615,5.422c-6.235-0.023-12.411-0.26-18.554-1.44c-8.684-1.667-16.954-4.957-25.568-6.906
				c-5.541-1.254-7.845,6.95-2.349,8.521c17.075,4.878,33.94,9.526,51.853,7.539c8.101-0.899,27.055-2.746,21.896-15.522
				c-0.633-1.567-2.039-2.647-3.812-2.164c-7.376,2.012-15.165,0.975-22.694,2.031c-3.647,0.512-2.803,5.553,0,6.551
				c3.662,1.305,7.464,1.823,11.34,1.923c3.911,0.101,4.707-5.846,0.92-6.794c-6.127-1.534-11.881-2.656-17.725,0.38
				c-2.223,1.155-2.238,4.76,0,5.911c3.75,1.928,7.378,2.661,11.586,2.184c1.838-0.209,3.404-1.389,3.399-3.399
				c0-0.193-0.001-0.387-0.001-0.58c-0.005-1.973-1.55-3.239-3.398-3.398c-3.672-0.316-7.545-3.93-11.363-2.596
				c-2.818,0.984-5.436,3.385-5.436,6.574c0,1.655,1.315,2.771,2.882,2.882c3.166,0.225,7.406,0.408,9.597-2.323
				c2.07-2.582,0.918-6.101-1.425-8.039c-5.485-4.536-15.183-1.297-21.185,0.39c-1.515,0.425-2.828,2.264-2.195,3.866
				c3.457,8.744,14.398,7.286,20.404,2.042c2.078-1.814,0.481-5.76-2.297-5.547c-9.244,0.708-17.732-4.323-26.561,0.469
				c-2.674,1.451-1.649,4.938,0.77,5.885c4.297,1.684,8.385,2.828,13.033,2.486c2.623-0.193,4.618-3.543,2.313-5.584
				c-6.217-5.503-14.352-4.146-22.028-4.124c-2.362,0.007-3.938,2.246-3.411,4.478c0.184,0.776,0.367,1.552,0.55,2.328
				c0.335,1.42,1.926,2.776,3.44,2.619c5.553-0.575,10.898-0.892,15.78-3.862c2.175-1.323,2.623-5.17,0-6.371
				c-9.902-4.535-22.265-2.821-32.609-0.793c-4.331,0.849-3.376,8.2,1.048,7.737c27.092-2.833,54.847-3.638,82-1.287
				c-0.861-2.078-1.723-4.156-2.583-6.234c-4.907,5.486-12.976,7.005-19.926,8.072c-7.565,1.162-15.426,1.221-23.041,0.565
				c-6.071-0.522-12.162-0.839-18.233-1.386c-4.963-0.447-15.295-0.706-17.396-6.479C102.043,283.472,97.63,284.654,98.283,287.866
				L98.283,287.866z"/>
		</g>
	</g>
	<g>
		<g>
			<path d="M100.752,298.14c-0.064,0.088-0.129,0.177-0.194,0.265c-0.485,0.663-0.19,1.543,0.271,2.102
				c5.174,6.274,14.628,9.015,22.183,10.952c7.843,2.011,15.774,3.613,23.888,3.733c13.214,0.194,34.673-1.655,42.521-14.23
				c1.596-2.557-2.124-5.454-4.177-3.223c-9.688,10.535-25.879,12.399-39.494,12.251c-6.803-0.074-13.392-1.616-19.996-3.12
				c-8.189-1.866-15.996-4.024-22.821-9.087c-0.468-0.347-1.278-0.306-1.751,0C101.008,297.895,100.873,297.975,100.752,298.14
				L100.752,298.14z"/>
		</g>
	</g>
	<g>
		<g>
			<path d="M198.404,306.842c1.953-1.896,3.297-2.492,5.961-1.66c-0.406-1.539-0.813-3.077-1.219-4.616
				c-1.382,1.444-2.125,3.282-3.002,5.05c-0.822,1.656-0.223,4.063,1.824,4.485c2.457,0.506,2.108,7.188,2.5,9.298
				c0.607,3.267,2.713,7.018,6.43,6.857c0.75-0.032,1.248-0.689,1.082-1.421c-0.466-2.064-1.498-3.891-2.016-5.951
				c-0.553-2.195-0.548-4.513-0.816-6.752c-0.442-3.695-1.875-6.665-5.557-7.918c0.607,1.495,1.216,2.99,1.824,4.485
				c0.707-1.582,1.266-3.249,2.068-4.786c0.769-1.474,0.184-3.702-1.65-4.057c-4.268-0.826-9.84-0.049-10.795,5.027
				C194.678,306.807,196.881,308.321,198.404,306.842L198.404,306.842z"/>
		</g>
	</g>
	<g>
		<g>
			<path d="M123.709,345.587c-0.744-4.773,1.212-5.813,5.381-6.355c2.299-0.299,4.592-0.463,6.805-1.198
				c1.727-0.573,2.907-1.786,4.158-3.047c0.895-0.901,1.884-1.707,2.898-2.47c1.641-1.235,1.105-0.801,1.33,1.315
				c0.27,2.519,2.844,3.658,4.829,2c1.771-1.479,2.763-3.7,4.605-5.1c2.386-1.812,1.009,6.976,0.802,7.643
				c-0.651,2.093,1.867,4.075,3.734,2.871c2.896-1.868,5.375-4.918,8.612-6.136c1.313-0.494,4.962,4.574,6.333,5.333
				c1.881,1.041,4.194-1.078,3.007-3.006c-1.728-2.806-4.71-6.891-8.166-7.372c-4.88-0.678-8.717,4.454-12.353,6.791
				c1.245,0.957,2.49,1.914,3.734,2.871c1.242-3.971,2.55-10.72-1.896-13.37c-5.446-3.246-8.834,2.124-12.413,5.476
				c1.575,0.416,3.151,0.832,4.728,1.248c-0.684-3.677-2.532-7.399-6.872-6.299c-3.589,0.91-5.094,5.018-7.985,6.889
				c-3.252,2.105-8.03,1.478-11.576,3.334c-3.521,1.845-3.384,6.087-2.764,9.428C121.02,348.467,124.018,347.577,123.709,345.587
				L123.709,345.587z"/>
		</g>
	</g>
	<g>
		<g>
			<path d="M81.377,331.51c-0.498-1.443-1.236-2.42-1.018-4.057c-1.196,0.912-2.393,1.824-3.59,2.735
				c3.02,0.459,5.842,0.157,8.872-0.009c2.192-0.121,3.225-2.193,2.354-4.102c-1.009-2.209-0.851-4.659-1.828-6.906
				c-0.522,1.284-1.045,2.568-1.567,3.853c4.359-1.714,12.973-0.589,14.432-6.254c0.21-0.817-0.392-1.553-1.212-1.59
				c-2.664-0.122-5.278,0.993-7.942,1.252c-2.597,0.252-4.922,0.698-7.299,1.799c-1.351,0.626-1.538,2.411-0.94,3.588
				c0.972,1.916,0.765,4.313,1.376,6.359c0.875-1.15,1.752-2.3,2.628-3.451c-2.736,0.033-5.39,0.234-8.118-0.11
				c-1.651-0.209-2.688,1.458-2.836,2.836c-0.352,3.232,0.961,5.589,3.993,6.752C80.217,334.795,81.893,333.007,81.377,331.51
				L81.377,331.51z"/>
		</g>
	</g>
	<g>
		<g>
			<path d="M48.159,259.006c0.946-1.811,2.38-2.577,4.429-2.452c-0.916-0.916-1.831-1.831-2.746-2.747
				c-0.318,3.629-3.457,6.524-3.543,10.217c-0.086,3.747,2.977,5.449,6.289,5.87c-0.697-0.916-1.395-1.831-2.093-2.747
				c-1.825,7.139,3.39,14.805,10.733,9.588c0.845-0.6,0.537-1.854-0.521-1.926c-4.504-0.307-7.297-1.458-6.026-6.508
				c0.216-0.86-0.106-2.062-0.997-2.451c-3.025-1.319-1.594-2.952-0.386-5.411c1.056-2.15,1.88-4.224,2.036-6.632
				c0.101-1.537-1.326-2.691-2.746-2.747c-3.785-0.147-9.132,2.229-8.637,6.806C44.172,259.908,47.019,261.189,48.159,259.006
				L48.159,259.006z"/>
		</g>
	</g>
	<g>
		<g>
			<path d="M15.259,223.127c-0.013,3.381,1.893,6.469,3.155,9.509c1.547,3.727,2.268,7.312,1.76,11.313
				c-0.109,0.855,1.006,1.335,1.655,0.95c8.37-4.962,1.053-16.244-1.496-22.459C19.283,219.879,15.271,220.007,15.259,223.127
				L15.259,223.127z"/>
		</g>
	</g>
	<g>
		<g>
			<path d="M21.273,252.899c1.431,0.158,2.941-0.17,4.332-0.502c1.646-0.393,3.354-0.53,4.984-0.949
				c2.741-0.705,1.869-4.343-0.625-4.614c-1.645-0.178-3.423,0.334-5.02,0.705c-1.598,0.37-3.25,0.822-4.676,1.65
				C18.417,250.264,19.416,252.693,21.273,252.899L21.273,252.899z"/>
		</g>
	</g>
	<g>
		<g>
			<path d="M264.193,213.86c0.9-1.632,3.445-2.896,5.336-2.64c3.13,0.423,1.004,3.925,2.746,5.564
				c0.632,0.594,1.387,0.61,2.144,0.276c2.439-1.077,1.579-4.89,0.716-6.772c-0.786-1.713-2.689-2.837-4.492-3.105
				c-3.95-0.588-7.929,1.654-8.787,5.691C261.563,214.251,263.465,215.179,264.193,213.86L264.193,213.86z"/>
		</g>
	</g>
	<g>
		<g>
			<path d="M261.662,225c-1.181,3.305-2.044,10.273,0.832,12.933c1.333,1.232,3.512,0.38,3.551-1.471
				c0.037-1.716-0.665-3.458-0.805-5.194c-0.169-2.09-0.04-4.257-0.725-6.268C264.029,223.577,262.16,223.609,261.662,225
				L261.662,225z"/>
		</g>
	</g>
	<g>
		<g>
			<path d="M255.129,248.148c1.245,0.864,2.752-0.097,4.049,0.636c1.166,0.66,1.584,3.231,1.844,4.389
				c0.814,3.627,0.148,7.644,1.299,11.151c0.622,1.9,3.238,1.911,3.857,0c1.516-4.686,0.348-12.65-2.369-16.74
				c-1.277-1.925-3.59-3.164-5.895-2.844C256.866,244.886,253.179,246.794,255.129,248.148L255.129,248.148z"/>
		</g>
	</g>
	<g>
		<g>
			<path d="M222.105,276.579c4.822-2.405,3.944-8.66,2.602-12.943c-0.533,0.94-1.067,1.88-1.602,2.82
				c6.08-1.264,9.926-5.965,6.99-11.962c-0.416,1.021-0.831,2.042-1.246,3.064c2.072-0.762,3.986-1.23,6.211-1.328
				c2.157-0.094,3.588,0.745,5.682,0.292c0.596-0.129,0.981-0.97,0.604-1.485c-2.928-3.999-9.541-3.103-13.605-1.501
				c-1.254,0.494-1.955,1.792-1.246,3.064c2.027,3.641-1.685,5.021-4.607,5.435c-1.197,0.169-1.957,1.745-1.602,2.82
				c1.199,3.63,1.568,6.152-0.264,9.64C219.291,275.885,220.736,277.262,222.105,276.579L222.105,276.579z"/>
		</g>
	</g>
	<g>
		<g>
			<path d="M177.281,190.036c-4.396,4.995-5.864,11.589,0.053,16.002c5.225,3.896,12.678,1.782,16.186-3.213
				c3.77-5.367,3.287-15.436-4.614-16.173c-5.688-0.531-14.899,3.821-15.901,9.951c-0.209,1.273,0.896,2.125,2.074,1.595
				c3.672-1.652,6.743-4.094,10.736-5.09c4.492-1.121,4.229,2.151,3.105,5.715c-1.027,3.256-4.845,4.096-7.754,3.255
				c-4.625-1.337-2.688-5.974-0.439-8.596C182.756,191.116,179.367,187.666,177.281,190.036L177.281,190.036z"/>
		</g>
	</g>
	<g>
		<g>
			<path d="M173.093,194.83c-1.384,0.819-2.271,2.846-3.223,4.114c-0.523,0.697-0.2,1.652,0.288,2.24
				c0.561,0.671,0.614,1.489,1.289,2.264c0.64,0.733,1.344,1.603,2.104,2.199c1.882,1.478,4.808-0.349,3.475-2.681
				c-0.825-1.443-2.162-2.999-3.843-3.37c0.417,0.321,0.835,0.642,1.253,0.963c-0.484-0.761-0.979-1.396-1.662-1.989
				c0.158,0.6,0.316,1.199,0.475,1.798c0.534-1.457,2.238-2.433,2.268-4.148C175.535,195,174.133,194.214,173.093,194.83
				L173.093,194.83z"/>
		</g>
	</g>
	<g>
		<g>
			<path d="M193.882,203.84c2.964-1.573,4.277-5.323,4.144-8.505c-0.063-1.471-0.559-2.928-1.936-3.617
				c-1.413-0.707-2.912-0.517-3.83,0.815c-0.309,0.449,0.037,0.952,0.459,1.126c0.365,0.15,0.695,0.322,1.09,0.38
				c0.596,0.087,0.133-0.267,0.23,0.01c0.25,0.714,0.439,1.235,0.329,2.034c-0.208,1.494-1.034,3.679-2.406,4.473
				C189.833,201.788,191.72,204.987,193.882,203.84L193.882,203.84z"/>
		</g>
	</g>
	<g>
		<g>
			<path d="M92.601,184.283c-6.495-0.668-10.524,7.35-10.426,12.909c0.157,8.892,11.226,10.639,17.337,6.435
				c6.646-4.573,9.771-16.957,0.137-20.166c-9.335-3.11-18.022,7.819-22.799,14.427c1.703,0.718,3.406,1.435,5.108,2.153
				c0.446-2.449,1.271-4.214,2.512-6.353c-1.628-0.687-3.256-1.373-4.884-2.059c-0.146,0.792-0.389,1.541-0.522,2.335
				c-0.406,2.405,2.413,4.597,4.366,2.542c1.764-1.857,3.486-3.698,4.957-5.801c-1.443-0.844-2.887-1.688-4.33-2.531
				c-2.005,2.896-3.511,6.062-4.861,9.306c-0.41,0.986,0.257,2.317,1.138,2.796c1.372,0.746,2.661,1.62,4.009,2.406
				c0.434-1.6,0.867-3.199,1.3-4.799c-1.161-0.036-2.317-0.07-3.479-0.074c-2.508-0.008-3.788,3.765-1.336,4.936
				c2.146,1.026,4.141,2.097,6.564,1.587c1.846-0.388,2.199-3.193,0.528-4.046c-1.457-0.744-2.964-1.367-4.419-2.115
				c-0.446,1.645-0.892,3.291-1.338,4.936c1.162-0.004,2.318-0.038,3.479-0.074c2.418-0.075,3.702-3.601,1.3-4.799
				c-1.397-0.697-2.734-1.497-4.109-2.234c0.379,0.932,0.759,1.864,1.138,2.796c1.175-2.865,2.587-5.589,4.417-8.091
				c1.916-2.619-2.434-5.098-4.33-2.531c-1.26,1.706-2.793,3.177-4.321,4.638c1.456,0.847,2.911,1.694,4.366,2.542
				c0.189-0.779,0.46-1.521,0.637-2.304c0.672-2.967-3.24-4.649-4.883-2.059c-1.559,2.46-2.751,4.67-3.287,7.565
				c-0.591,3.192,3.23,4.737,5.107,2.153c3.274-4.506,7.517-9.613,12.898-11.509c1.947-0.686,4.767,0.151,4.971,2.492
				c0.199,2.294-1.328,4.492-2.85,6.038c-2.387,2.426-8.741,3.711-9.199-1.035c-0.285-2.958,1.65-7.092,5.104-6.737
				C96.24,190.332,96.203,184.653,92.601,184.283L92.601,184.283z"/>
		</g>
	</g>
	<g>
		<g>
			<path d="M104.49,199.846c1.428-2.375,3.224-4.512,4.559-6.947c0.734-1.339,0.045-2.836-1.351-3.319
				c-2.283-0.789-3.981-2.708-6.37-3.328c-0.732-0.19-1.72-0.032-2.228,0.588c-1.226,1.497-0.578,2.985,0.999,3.909
				c2.051,1.2,4.081,2.557,6.397,3.188c-0.45-1.106-0.899-2.213-1.351-3.319c-1.236,2.482-2.953,4.68-4.289,7.104
				C99.547,200.101,103.092,202.172,104.49,199.846L104.49,199.846z"/>
		</g>
	</g>
</g>
</svg>
