<svg version="1.1" xmlns="http://www.w3.org/2000/svg" xmlns:xlink="http://www.w3.org/1999/xlink" x="0px" y="0px"
	 width="124.333px" height="88.429px" viewBox="0 0 124.333 88.429" enable-background="new 0 0 124.333 88.429"
	 xml:space="preserve" fill="white">
<g id="Layer_1">
	<g>
		<g>
			<path d="M116.886,34.829c-8.443-1.544-16.681-2.659-25.279-3.433c-9.378-0.845-18.858-1.3-28.274-1.384
				c-8.787-0.079-17.578,0.093-26.348,0.666c-7.592,0.496-20.65,0.276-24.727,8.033c-1.051,1.999-0.896,4.506,0.791,6.135
				c5.936,5.728,16.523,2.788,23.936,2.317c8.78-0.557,17.549-0.846,26.348-0.868c8.787-0.022,17.617,0.104,26.399-0.213
				c9.292-0.335,18.048-1.056,27.154-2.687C121.151,42.631,121.135,35.605,116.886,34.829L116.886,34.829z"/>
		</g>
	</g>
	<g>
		<g>
			<path d="M34.241,3.956c-10.138,9.548-19.55,20.069-28.487,30.744C3.059,37.92,3.502,42.094,7.018,44.5
				c9.215,6.307,17.537,13.958,26.098,21.107c7.233,6.041,17.412,16.336,27.667,15.349c2.362-0.227,5.147-2.545,4.005-5.256
				c-3.928-9.319-15.254-15.212-22.93-21.276c-9.273-7.326-18.522-14.405-28.541-20.7c0.421,3.267,0.842,6.534,1.264,9.801
				C23.377,32.14,33.162,21.21,40.568,8.837C42.97,4.826,37.531,0.856,34.241,3.956L34.241,3.956z"/>
		</g>
	</g>
</g>
</svg>
