<svg version="1.1" xmlns="http://www.w3.org/2000/svg" xmlns:xlink="http://www.w3.org/1999/xlink" x="0px" y="0px"
	 width="437.978px" height="186.528px" viewBox="0 0 437.978 186.528" enable-background="new 0 0 437.978 186.528"
	 xml:space="preserve" fill="white">
<g id="Layer_1">
	<g>
		<g>
			<path d="M8.439,27.505c0.513,20.35,3.626,40.898,8.938,60.55c5.333,19.723,12.98,41.983,28.136,56.462
				c4.201,4.014,12.655,3.938,15.372-1.981c3.358-7.316,5.317-14.901,7.255-22.682c1.738-6.985,3.642-14.402,8.698-19.778
				c-4.344,0-8.688,0-13.031,0c0.557,0.486,2.857,3.142,1.158,0.941c0.77,0.997,1.424,2.082,2.055,3.169
				c0.71,1.223,1.317,2.496,1.89,3.787c-0.913-2.061,0.108,0.318,0.229,0.625c0.391,0.996,0.749,2.005,1.105,3.014
				c2.478,7.016,4.299,14.262,6.192,21.451c3.261,12.38,5.991,28.442,15.572,37.75c14.612,14.195,30.047-3.963,37-16.281
				c12.25-21.7,16.257-46.902,23.306-70.499c4.581-15.333,12.455-28.915,18.436-43.63c2.508-6.168-5.505-10.709-10.434-8.021
				c-12.022,6.556-17.407,17.486-22.479,29.674c-4.689,11.267-7.731,23.176-10.8,34.96c-3.091,11.872-6.154,23.764-10.533,35.242
				c-1.878,4.924-4.267,9.641-6.922,14.188c-1.16,1.988-2.448,3.893-3.783,5.767c-1.763,2.474,1.255-1.479-0.521,0.669
				c-0.636,0.769-1.329,1.484-2.04,2.183c-0.482,0.475-2.303,1.832,0.15,0.006c-0.438,0.326-0.911,0.596-1.388,0.861
				c-1.697,0.946,2.435-0.854,0.683-0.333c-1.747,0.519,2.799-0.193,1.038-0.147c0.354-0.01,1.834,0.389,2.024,0.492
				c-0.708-0.385-1.816-1.505,0.603,0.53c-0.507-0.426-0.95-0.927-1.386-1.423c-1.32-1.507,1.451,2.01,0.252,0.282
				c-0.342-0.494-0.65-1.011-0.96-1.525c-0.682-1.134-1.267-2.325-1.836-3.518c-0.31-0.648-0.596-1.309-0.882-1.968
				c1.043,2.398,0.02-0.029-0.144-0.444c-0.694-1.775-1.321-3.577-1.936-5.382c-4.888-14.357-8.117-29.241-14.367-43.119
				c-2.011-4.463-4.554-9.041-8.251-12.331c-3.688-3.284-9.404-3.778-13.031,0c-12.312,12.823-12.24,30.492-19.824,45.612
				c5.124-0.661,10.248-1.321,15.372-1.981c-12.896-12.51-19.7-31.301-24.901-48.773C28.976,63.5,24.927,44.642,21.872,25.688
				C20.63,17.975,8.249,19.931,8.439,27.505L8.439,27.505z"/>
		</g>
	</g>
	<g>
		<g>
			<path d="M187.132,127.284c5.342-2.356,11.83-4.977,15.484-9.785c0.523-0.688,0.817-1.225,0.436-0.766
				c0.695-0.835,1.189-1.625,1.474-2.696c0.461-1.738,0.062-3.036-0.622-4.583c-0.101-0.227-0.211-0.429-0.345-0.638
				c-1.25-1.935-0.716-1.2-0.532-0.833c-5.326-10.589-24.58-4.145-32.021-0.052c-5.971,3.284-10.55,8.391-13.026,14.715
				c-2.874,7.341-0.919,15.154,2.455,21.933c4.162,8.362,12.853,14.24,22.306,13.82c8.795-0.391,16.501-5.567,22.505-11.646
				c10.45-10.58,18.245-26.392,16.2-41.485c-1.218-8.982-9.342-15.245-18.218-14.616c-9.167,0.65-22.046,8.033-20.063,18.667
				c0.978,5.241,7.101,6.447,11.202,4.558c3.453-1.591,5.407-5.44,8.887-7.312c0.761-0.409,2.279-0.949,2.898-0.848
				c2.1,0.341,0.449,0.009,1.032,0.562c-0.87-0.826,0.066,0.51,0.248,1.384c0.25,1.202-0.329,4.397-1.165,7.063
				c-1.079,3.444-2.984,6.734-5.146,10.03c-1.937,2.954-4.185,5.552-6.929,8.213c-1.357,1.315-2.615,2.318-3.299,2.809
				c-0.729,0.522-1.495,0.99-2.261,1.456c-0.312,0.189-3.439,1.721-1.608,0.957c-0.812,0.339-5.144,1.254-2.797,0.986
				c-0.739,0.084-1.484,0.06-2.227,0.033c2.409,0.088,0.341,0.011-0.319-0.165c-2.337-0.624,1.759,0.973-0.416-0.208
				c-2.232-1.212,1.476,1.338-0.599-0.358c-2.106-1.723-1.756-1.411-3.123-3.9c-0.188-0.342-1.275-2.893-0.361-0.609
				c-0.277-0.692-0.484-1.409-0.689-2.125c-0.166-0.581-0.527-2.956-0.155-0.069c-0.082-0.634-0.089-1.277-0.107-1.914
				c-0.018-0.611,0.015-1.214,0.062-1.823c-0.215,2.842-0.111,1.012,0.069,0.275c0.137-0.557,0.339-1.096,0.541-1.631
				c-1.023,2.72-0.039,0.357,0.336-0.265c0.302-0.5,1.544-2.049-0.114,0.029c0.365-0.458,0.771-0.881,1.173-1.305
				c0.497-0.523,3.452-2.865,1.317-1.283c0.977-0.724,2.02-1.353,3.074-1.953c0.527-0.3,1.071-0.571,1.613-0.842
				c2.227-1.113-0.724,0.229,0.683-0.333c2.124-0.85,4.356-1.439,6.562-2.036c0.973-0.263,1.964-0.456,2.959-0.615
				c-2.63,0.421,2.067-0.203,2.967-0.366c-3.017,0.545,2.427-0.779,3.117-1.113c-0.728,0.352-3.771,0.365-3.116,0.511
				c0.909,0.204-1.172-0.675-0.464-0.155c2.556,1.877,0.064-0.013-0.316-0.358c-0.678-0.613-1.104-1.801-0.871-2.689
				c-0.029,0.114-0.498,0.965-1.063,1.61c-2.785,3.181-6.477,5.447-10.051,7.621C182.003,124.785,184.361,128.506,187.132,127.284
				L187.132,127.284z"/>
		</g>
	</g>
	<g>
		<g>
			<path d="M223.753,119.707c-0.297,5.054-0.347,10.096-0.813,15.138c-0.774,8.367,11.917,11.405,15.641,4.236
				c4.434-8.534,8.49-17.307,13.446-25.556c0.938-1.561,1.941-3.082,2.98-4.577c0.121-0.176,1.82-2.418,0.536-0.781
				c0.485-0.619,1-1.212,1.517-1.805c0.972-1.117,2.035-2.149,3.137-3.137c0.342-0.307,2.251-1.724,0.272-0.264
				c0.736-0.543,1.519-1.02,2.306-1.485c0.59-0.348,1.205-0.648,1.819-0.948c2.125-1.038-1.982,0.741,0.258-0.078
				c1.354-0.495,2.763-0.833,4.173-1.13c0.746-0.157,1.499-0.29,2.249-0.423c2.615-0.463-2.125,0.215,0.622-0.065
				c1.758-0.179,3.528-0.226,5.294-0.248c9.985-0.125,20.189,1.36,29.866-1.284c4.651-1.271,4.97-7.201,1.268-9.699
				c-8.989-6.064-21.269-8.076-32.059-8.241c-8.088-0.124-16.158,1.374-23.152,5.585c-16.037,9.656-23.421,31.278-29.873,47.667
				c5.114-0.668,10.228-1.336,15.341-2.005c-2.098-3.467-2.179-6.943-2.419-10.901C235.677,111.717,224.221,111.708,223.753,119.707
				L223.753,119.707z"/>
		</g>
	</g>
	<g>
		<g>
			<path d="M344.879,41.783c-6.222,14.286-12.662,28.397-19.986,42.159c-7.521,14.131-15.663,27.92-23.444,41.907
				c-4.987,8.965,4.688,17.125,13.191,13.192c21.984-10.167,39.434-28.705,57.121-44.763c8.6-7.807,17.41-15.349,27.236-21.583
				c4.793-3.041,9.674-5.845,14.781-8.331c2.001-0.974,4.069-1.823,6.142-2.633c1.424-0.557,3.059-0.92,4.38-1.694
				c0.257-0.151,5.821-4.849,2.661-2.687c-2.879-1.171-5.758-2.343-8.637-3.514c0.021,0.12-0.952,2.762-0.977,2.868
				c-0.934,4.045,3.713,6.602,6.749,3.929c2.552-2.247,4.203-3.561,5.565-6.797c1.249-2.964-1.321-6.459-4.106-7.232
				c0.392,0.279,0.782,0.558,1.173,0.836c-0.933-0.926-2.032-1.567-3.298-1.922c-1.518-0.562-2.902-0.732-4.507-0.545
				c-3.308,0.386-6.584,0.901-9.795,1.792c-5.809,1.613-11.317,4.109-16.618,6.951c-11.133,5.967-21.021,14.546-30.438,22.874
				c-18.336,16.215-35.222,34.342-57.165,45.8c4.397,4.397,8.795,8.795,13.191,13.192c14.247-28.787,31.385-57.075,39.859-88.286
				C360.025,39.682,348.188,34.185,344.879,41.783L344.879,41.783z"/>
		</g>
	</g>
	<g>
		<g>
			<path d="M346.986,96.745c8.485,14.695,16.86,29.418,25.526,44.012c4.402,7.413,8.799,14.835,13.071,22.323
				c4.144,7.263,8.064,16.57,16.405,19.6c3.555,1.291,7.813-1.416,8.685-4.931c2.001-8.069-3.419-16.19-7.53-22.798
				c-4.564-7.337-9.37-14.502-14.346-21.565c-10.163-14.428-21.132-28.328-30.915-43.01
				C353.408,83.659,342.879,89.633,346.986,96.745L346.986,96.745z"/>
		</g>
	</g>	
</g>
</svg>
