<svg version="1.0" xmlns="http://www.w3.org/2000/svg"
 width="225.000000pt" height="225.000000pt" viewBox="0 0 225.000000 225.000000"
 preserveAspectRatio="xMidYMid meet">

<g transform="translate(0.000000,225.000000) scale(0.100000,-0.100000)"
fill="white" stroke="none">
<path d="M938 2206 c-143 -59 -254 -206 -323 -429 l-27 -87 -120 -37 c-83 -26
-124 -44 -133 -58 -7 -11 -38 -220 -69 -465 -32 -245 -70 -541 -85 -658 -19
-149 -25 -215 -17 -217 6 -2 290 -56 631 -119 l620 -115 338 73 c186 41 339
75 341 77 5 7 -234 1614 -243 1629 -6 11 -35 17 -101 22 l-93 7 -74 72 c-60
58 -77 70 -96 65 -75 -22 -81 -21 -101 31 -37 90 -124 163 -194 163 -17 0 -37
9 -48 21 -46 52 -119 61 -206 25z m126 -64 c3 -5 -15 -23 -40 -40 -60 -43
-120 -138 -152 -245 l-27 -88 -79 -25 c-43 -13 -81 -23 -83 -21 -7 8 28 101
70 186 69 142 180 237 279 240 15 1 29 -3 32 -7z m203 -94 c18 -18 41 -54 52
-80 l20 -47 -51 -16 c-29 -8 -52 -15 -53 -15 -1 0 -5 33 -8 73 -4 39 -9 82
-13 95 -10 33 16 28 53 -10z m-119 -94 c5 -47 5 -87 2 -89 -13 -8 -204 -64
-207 -61 -7 7 37 113 66 159 17 25 49 60 72 77 53 38 57 33 67 -86z m-1 -504
l31 -11 -40 -122 c-23 -67 -42 -123 -43 -125 -1 -1 -18 4 -38 13 -52 22 -136
29 -185 16 -44 -12 -82 -55 -82 -94 0 -36 35 -78 102 -123 125 -85 185 -172
195 -283 6 -68 -17 -167 -53 -229 -31 -52 -103 -106 -164 -123 -102 -29 -250
-3 -349 60 -74 48 -73 46 -44 141 14 47 28 88 32 92 3 3 35 -11 70 -32 106
-65 187 -64 220 4 24 51 2 92 -94 180 -124 113 -157 189 -136 313 30 174 149
293 336 333 50 11 200 5 242 -10z"/>
</g>
</svg>