<svg version="1.1" id="Layer_1" xmlns="http://www.w3.org/2000/svg" xmlns:xlink="http://www.w3.org/1999/xlink" x="0px" y="0px"
	 width="555.333px" height="87.334px" viewBox="0 0 555.333 87.334" enable-background="new 0 0 555.333 87.334"
	 xml:space="preserve">
<g>
	<path fill-rule="evenodd" clip-rule="evenodd" fill="#FFFFFF" d="M86.631,48.622c0,12.605,0,24.503,0,36.761
		c-27.43,0-54.654,0-82.127,0C3.46,81.831,3.945,78.24,4.191,73.955c17.45,0,34.824,0,52.169,0c1.039-2.905,0.697-5.188,0.422-8.154
		c-17.376,0-34.749,0-52.484,0c0-14.231,0-27.781,0-41.849c17.335,0,34.584,0,51.726,0c1.585-2.785,0.984-5.207,0.729-8.324
		c-17.463,0-34.833,0-52.341,0c-0.721-4.262-0.597-7.82-0.185-11.709c27.489,0,54.718,0,82.329,0c0,12.014,0,23.917,0,36.541
		c-17.313,0-34.679,0-52.062,0c-0.921,2.928-0.687,5.187-0.26,8.162C51.6,48.622,68.971,48.622,86.631,48.622z"/>
	<path fill-rule="evenodd" clip-rule="evenodd" fill="#FFFFFF" d="M383.334,65.199c-3.513,0-6.153,0-9.094,0
		c-2.592-4.752-5.205-9.541-7.782-14.267c-2.037-0.953-4.017-0.583-6.322-0.353c-1.128,4.617,0.075,9.472-0.748,14.291
		c-2.43,0.78-4.7,0.475-7.325,0.237c0-13.638,0-27.174,0-41.032c6.043,0,11.863-0.278,17.645,0.073
		c6.48,0.395,10.874,4.053,12.174,9.342c1.525,6.199-0.193,10.367-5.948,14.505c-0.385,0.277-0.657,0.713-1.142,1.254
		C377.503,54.313,380.222,59.389,383.334,65.199z M359.973,43.376c4.949-0.261,9.878,1.5,13.239-3.067
		c1.494-2.03,1.396-4.538-0.263-6.475c-3.577-4.177-8.335-2.71-12.936-2.836C359.492,35.261,359.543,39.018,359.973,43.376z"/>
	<path fill-rule="evenodd" clip-rule="evenodd" fill="#FFFFFF" d="M192.915,39.923c0,8.211,0,16.423,0,24.664
		c-2.63,1.192-5.026,0.717-7.678,0.523c0-13.667,0-27.063,0-40.67c2.286-0.777,4.54-0.451,7.089-0.191
		c5.611,8.924,11.244,17.881,17.205,27.362c0-9.435,0-18.208,0-27.237c2.233-0.824,4.625-0.184,7.25-0.307
		c0,13.857,0,27.254,0,40.705c-2.168,1.002-4.3,0.481-6.886,0.396c-5.252-8.367-10.62-16.92-15.988-25.473
		C193.577,39.772,193.246,39.847,192.915,39.923z"/>
	<path fill-rule="evenodd" clip-rule="evenodd" fill="#FFFFFF" d="M129.035,24.196c9.707,0,19.142,0,28.611,0
		c1.073,2.148,0.646,4.266,0.34,6.959c-6.861,0-13.738,0-20.678,0c-1.083,3.27-0.409,6.064-0.69,9.262c6.509,0,12.769,0,19.01,0
		c1.016,2.471,0.714,4.546,0.33,7.134c-6.31,0-12.541,0-19.021,0c0,3.573,0,6.646,0,10.211c7.341,0,14.583,0,21.732,0
		c1.505,2.59,1.034,4.796,0.632,7.291c-10.104,0-20.021,0-30.267,0C129.035,51.476,129.035,37.937,129.035,24.196z"/>
	<path fill-rule="evenodd" clip-rule="evenodd" fill="#FFFFFF" d="M268.867,51.921c-1.895-2.285-4.439-2.618-6.841-3.216
		c-3.224-0.803-6.542-1.297-9.685-2.334c-4.229-1.396-7.145-4.161-7.57-8.933c-0.454-5.087,1.203-9.083,5.668-11.87
		c6.443-4.022,20.789-4.22,26.778,5.728c-1.289,2.171-3.678,3.105-6.139,5.176c-3.215-5.045-7.844-7.095-13.617-5.725
		c-2.372,0.563-4.254,1.854-4.489,4.548c1.059,3.546,4.144,3.692,6.813,4.292c3.892,0.877,7.882,1.395,11.519,3.141
		c7.879,3.781,9.196,13.696,2.67,19.447c-7.226,6.367-25.784,5.875-31.237-4.542c1.432-2.147,3.902-3.114,6.117-4.784
		c4.814,5.644,10.712,7.338,17.547,5.055C269.056,57.016,269.619,54.778,268.867,51.921z"/>
	<path fill-rule="evenodd" clip-rule="evenodd" fill="#FFFFFF" d="M433.979,24.231c3.006-0.277,5.271-0.422,7.885,0.097
		c0,10.411,0.467,20.695-0.157,30.914c-0.445,7.287-8.819,11.804-18.605,11.082c-8.507-0.628-14.019-5.665-14.095-13.131
		c-0.097-9.599-0.023-19.198-0.023-28.8c2.576-0.598,4.857-0.521,7.91,0.003c0,5.163-0.002,10.407,0,15.651
		c0.002,3.658-0.093,7.32,0.035,10.975c0.176,5.01,3.142,7.59,8.507,7.618c5.208,0.027,8.439-2.718,8.509-7.643
		C434.068,42.21,433.979,33.42,433.979,24.231z"/>
	<path fill-rule="evenodd" clip-rule="evenodd" fill="#FFFFFF" d="M495.769,50.776c2.548,0.544,4.744,1.615,7.199,2.97
		c-2.67,7.272-7.697,11.556-15.271,12.444c-7.726,0.906-14.4-1.583-18.373-8.457c-4.933-8.535-4.872-17.539-0.026-26.17
		c3.568-6.354,11.689-9.605,19.459-8.352c7.128,1.152,11.45,5.24,13.173,12.842c-2.309,0.609-4.64,1.226-6.896,1.822
		c-3.577-6.488-6.524-8.236-11.777-7.186c-4.474,0.895-7.85,5.33-8.416,11.156c-0.324,3.335-0.271,6.629,1.065,9.812
		c1.685,4.011,4.473,6.566,8.909,6.969c4.309,0.39,7.313-1.677,9.434-5.269C494.742,52.52,495.235,51.681,495.769,50.776z"/>
	<path fill-rule="evenodd" clip-rule="evenodd" fill="#FFFFFF" d="M317.923,64.747c-3.252,0.933-5.643,0.501-8.53,0.433
		c0-11.282,0-22.165,0-33.047c-3.674-1.169-7.046-0.077-10.387-0.839c-1.333-2.133-0.375-4.4-0.729-6.962
		c10.361,0,20.223,0,30.132,0c0.888,2.266,0.292,4.386,0.465,6.595c-3.538,1.359-7.096,0.081-10.951,0.995
		C317.923,42.708,317.923,53.58,317.923,64.747z"/>
	<path fill-rule="evenodd" clip-rule="evenodd" fill="#FFFFFF" d="M532.308,31.508c-4.077,0-7.338,0-10.896,0
		c0-2.47,0-4.558,0-7.085c9.793,0,19.646,0,29.76,0c0.872,2.139,0.535,4.354,0.146,7.072c-3.581,0-7.001,0-10.901,0
		c0,11.361,0,22.243,0,33.184c-2.827,1.163-5.241,0.398-8.108,0.682C532.308,54.037,532.308,43.147,532.308,31.508z"/>
</g>
</svg>
