<svg width="189px" height="25px" viewBox="0 0 189 25" version="1.1" xmlns="http://www.w3.org/2000/svg" xmlns:xlink="http://www.w3.org/1999/xlink">
    <!-- Generator: sketchtool 42 (36781) - http://www.bohemiancoding.com/sketch -->
    <title>Fish Institute Logo</title>
    <desc></desc>
    <defs>
        <polygon id="path-1" points="72.2931616 24.8939683 0 24.8939683 0 0.204992254 72.2931616 0.204992254"></polygon>
    </defs>
    <g id="Page-1" stroke="none" stroke-width="1" fill="none" fill-rule="evenodd">
        <g id="FISH-Home" transform="translate(-626.000000, -13.000000)">
            <g id="Page-1" transform="translate(626.000000, 13.000000)">
                <g id="Group-3" transform="translate(0.000000, 0.034469)">
                    <mask id="mask-2" fill="white">
                        <use xlink:href="#path-1"></use>
                    </mask>
                    <g id="Clip-2"></g>
                    <path d="M52.0233555,24.3013961 L58.3412948,24.3013961 L58.3412948,15.0183396 L65.9754616,15.0183396 L65.9754616,24.3013961 L72.2931616,24.3013961 L72.2931616,0.79766019 L65.9754616,0.79766019 L65.9754616,9.32360495 L58.3412948,9.32360495 L58.3412948,0.79766019 L52.0233555,0.79766019 L52.0233555,24.3013961 Z M28.7918582,16.5655954 C29.1210945,22.074104 32.5431421,24.8497815 39.0584797,24.894064 C40.7474907,24.894064 42.217569,24.7071199 43.4677577,24.3344284 C44.7181857,23.9614977 45.7489633,23.4403999 46.5610477,22.7706564 C47.3724141,22.101631 47.9758545,21.2949707 48.370651,20.3511542 C48.7656867,19.4080557 48.9630849,18.3543707 48.9630849,17.1910564 C48.9630849,15.3259237 48.3814181,13.7839338 47.2190417,12.5660443 C46.0561868,11.3479154 44.0929717,10.4646583 41.3289181,9.91603352 L38.1370488,9.29057257 C37.2156178,9.11535733 36.5461387,8.86258781 36.129808,8.53346083 C35.7129986,8.20433384 35.5048332,7.76557765 35.5048332,7.21671352 C35.5048332,6.6027421 35.7622884,6.1139586 36.2779164,5.75179924 C36.7933052,5.38963987 37.5886406,5.20867987 38.6636833,5.20867987 C39.8480726,5.20867987 40.7202138,5.43894908 41.2796284,5.89996622 C41.839043,6.36098337 42.217569,7.06328051 42.4149672,8.00685765 L48.5352691,7.38115733 C48.4252046,6.43805892 48.1732527,5.53278019 47.7784563,4.66556051 C47.3834206,3.79881956 46.8022324,3.03596305 46.0344131,2.37770908 C45.2663546,1.71921575 44.2791242,1.19261257 43.0729613,0.79766019 C41.8663198,0.402468444 40.4074872,0.204992254 38.6967026,0.204992254 C35.7567851,0.204992254 33.4480634,0.82542654 31.7700589,2.06509829 C30.0918152,3.3050094 29.2526933,5.14285448 29.2526933,7.57887289 C29.2526933,9.5981567 29.877668,11.1782056 31.1283353,12.3190196 C32.378524,13.4603123 34.3087197,14.2727173 36.9196401,14.755038 L40.0454708,15.3477059 C41.0327012,15.5451821 41.7124689,15.8249999 42.0857309,16.1871592 C42.4585145,16.5490792 42.6451455,17.0048303 42.6451455,17.5532157 C42.6451455,18.2772951 42.3654382,18.8369307 41.8060236,19.231883 C41.2466091,19.6270748 40.4074872,19.824551 39.288658,19.824551 C37.9724306,19.824551 36.9741938,19.5559834 36.2944261,19.01813 C35.6141799,18.4805161 35.2086163,17.6633237 35.0770175,16.5655954 L28.7918582,16.5655954 Z M19.512467,24.3013961 L25.8304063,24.3013961 L25.8304063,0.79766019 L19.512467,0.79766019 L19.512467,24.3013961 Z M-4.78541136e-05,0.79766019 L16.0908979,0.79766019 L16.0908979,6.0646494 L6.21907276,6.0646494 L6.21907276,10.4756691 L15.5314833,10.4756691 L15.5314833,15.7426583 L6.21907276,15.7426583 L6.21907276,24.3013961 L-4.78541136e-05,24.3013961 L-4.78541136e-05,0.79766019 Z" id="Fill-1" fill="white" mask="url(#mask-2)"></path>
                </g>
                <path d="M185.155462,14.3945063 C185.155462,13.5828193 185.06741,12.8472504 184.892025,12.1889964 C184.7164,11.5305031 184.442435,10.9658409 184.069652,10.4935736 C183.69615,10.021785 183.21402,9.65412025 182.621586,9.39105803 C182.029392,9.12751708 181.316126,8.99586629 180.482986,8.99586629 C178.96936,8.99586629 177.789756,9.45664406 176.945371,10.378439 C176.100746,11.2999945 175.601388,12.6390028 175.448255,14.3945063 L185.155462,14.3945063 Z M187.754897,19.5626377 C187.469687,21.2087514 186.739911,22.5037164 185.566768,23.4470542 C184.392906,24.390392 182.70892,24.8624199 180.515527,24.8624199 C177.927098,24.8624199 175.94187,24.0782599 174.559843,22.5087431 C173.177816,20.9401837 172.486803,18.7509507 172.486803,15.9417622 C172.486803,14.4715818 172.684201,13.165606 173.078998,12.0245526 C173.474033,10.8834993 174.027705,9.92891137 174.740971,9.16054946 C175.453279,8.39266629 176.303886,7.80574311 177.291117,7.39930121 C178.278108,6.9935774 179.352672,6.79011708 180.515527,6.79011708 C181.831754,6.79011708 182.96159,6.99908279 183.904794,7.4158174 C184.847999,7.83303073 185.621082,8.40894311 186.225001,9.1437939 C186.827963,9.87960216 187.277792,10.7518485 187.573769,11.7610117 C187.870226,12.7706536 188.018334,13.8791533 188.018334,15.0857926 L188.018334,16.5341907 L175.382455,16.5341907 C175.382455,17.3901603 175.497784,18.1858098 175.727962,18.9206606 C175.95838,19.6562295 176.287377,20.2927012 176.715192,20.8300758 C177.143008,21.3681685 177.674428,21.7901691 178.311127,22.0975139 C178.947108,22.405098 179.681669,22.5580523 180.515527,22.5580523 C181.94134,22.5580523 182.983603,22.2897241 183.641836,21.7516314 C184.29983,21.2142568 184.74918,20.4844326 184.991083,19.5626377 L187.754897,19.5626377 Z M164.096302,18.805526 C164.096302,19.6614955 164.156359,20.4516396 164.27743,21.175719 C164.397544,21.8997983 164.633464,22.5254987 164.984713,23.0521018 C165.335484,23.578705 165.807565,23.9849076 166.39976,24.2699914 C166.992194,24.5548358 167.770541,24.6979761 168.735997,24.6979761 C169.438017,24.6979761 170.046482,24.6486669 170.56235,24.5498091 C171.077499,24.4511907 171.554605,24.3250453 171.993666,24.171373 L171.50029,21.9658631 C171.192828,22.075971 170.858327,22.1633393 170.496311,22.2289253 C170.134534,22.2949901 169.711982,22.3280225 169.229613,22.3280225 C168.461315,22.3280225 167.891372,22.075971 167.518589,21.5706714 C167.145327,21.0660898 166.959174,20.396825 166.959174,19.5626377 L166.959174,9.58853422 L171.467271,9.58853422 L171.467271,7.31719898 L166.959174,7.31719898 L166.959174,2.67543137 L164.096302,2.67543137 L164.096302,7.31719898 L161.463847,7.31719898 L161.463847,9.58853422 L164.096302,9.58853422 L164.096302,18.805526 Z M145.538237,18.6080498 C145.538237,20.693159 145.971078,22.256931 146.837716,23.2988872 C147.704354,24.3410828 149.102651,24.8624199 151.033564,24.8624199 C152.152154,24.8624199 153.193938,24.6101291 154.159395,24.1053082 C155.124373,23.600966 156.023552,22.8000504 156.85741,21.7023222 L156.85741,24.3358168 L159.687502,24.3358168 L159.687502,7.31719898 L156.824869,7.31719898 L156.824869,17.3901603 C156.824869,18.2458904 156.681785,18.9429215 156.397054,19.4802961 C156.111604,20.0183888 155.694555,20.5287152 155.146626,21.0112752 C154.11513,21.9328307 152.963521,22.3936085 151.691559,22.3936085 C150.528464,22.3936085 149.689342,22.0644815 149.174193,21.4062276 C148.658565,20.7477342 148.40111,19.6284631 148.40111,18.0484142 L148.40111,7.31719898 L145.538237,7.31719898 L145.538237,18.6080498 Z M136.193525,18.805526 C136.193525,19.6614955 136.253582,20.4516396 136.374653,21.175719 C136.494767,21.8997983 136.730688,22.5254987 137.081937,23.0521018 C137.432708,23.578705 137.904549,23.9849076 138.496983,24.2699914 C139.089417,24.5548358 139.867764,24.6979761 140.833221,24.6979761 C141.535001,24.6979761 142.143706,24.6486669 142.659573,24.5498091 C143.174723,24.4511907 143.651828,24.3250453 144.09089,24.171373 L143.597274,21.9658631 C143.289812,22.075971 142.955551,22.1633393 142.593534,22.2289253 C142.231518,22.2949901 141.809206,22.3280225 141.326836,22.3280225 C140.558538,22.3280225 139.988356,22.075971 139.615812,21.5706714 C139.242311,21.0660898 139.056398,20.396825 139.056398,19.5626377 L139.056398,9.58853422 L143.564494,9.58853422 L143.564494,7.31719898 L139.056398,7.31719898 L139.056398,2.67543137 L136.193525,2.67543137 L136.193525,7.31719898 L133.56107,7.31719898 L133.56107,9.58853422 L136.193525,9.58853422 L136.193525,18.805526 Z M128.855815,24.3360561 L131.718687,24.3360561 L131.718687,7.31719898 L128.855815,7.31719898 L128.855815,24.3360561 Z M128.756996,4.15686184 L131.817267,4.15686184 L131.817267,0.832080889 L128.756996,0.832080889 L128.756996,4.15686184 Z M119.346724,18.805526 C119.346724,19.6614955 119.406781,20.4516396 119.527852,21.175719 C119.647965,21.8997983 119.883886,22.5254987 120.235135,23.0521018 C120.585906,23.578705 121.057748,23.9849076 121.650182,24.2699914 C122.242376,24.5548358 123.020723,24.6979761 123.986419,24.6979761 C124.6882,24.6979761 125.296904,24.6486669 125.812532,24.5498091 C126.327921,24.4511907 126.805027,24.3250453 127.244088,24.171373 L126.750473,21.9658631 C126.44301,22.075971 126.108749,22.1633393 125.746733,22.2289253 C125.384717,22.2949901 124.962404,22.3280225 124.480035,22.3280225 C123.711737,22.3280225 123.141555,22.075971 122.769011,21.5706714 C122.395509,21.0660898 122.209596,20.396825 122.209596,19.5626377 L122.209596,9.58853422 L126.717693,9.58853422 L126.717693,7.31719898 L122.209596,7.31719898 L122.209596,2.67543137 L119.346724,2.67543137 L119.346724,7.31719898 L116.714269,7.31719898 L116.714269,9.58853422 L119.346724,9.58853422 L119.346724,18.805526 Z M101.249016,19.3651615 C101.315055,20.3748034 101.556,21.230773 101.973049,21.9328307 C102.389619,22.6356066 102.938027,23.2002688 103.618512,23.6280142 C104.297801,24.055999 105.082609,24.3688491 105.97126,24.5663253 C106.859432,24.7638015 107.818907,24.8624199 108.850403,24.8624199 C109.990527,24.8624199 110.989003,24.7360352 111.844634,24.4839837 C112.700266,24.2321717 113.412814,23.8807837 113.983474,23.430538 C114.553895,22.9810104 114.981472,22.4544072 115.266921,21.8504891 C115.551893,21.2472891 115.694498,20.583051 115.694498,19.8589717 C115.694498,18.3009444 115.261179,17.1158479 114.395019,16.3039215 C113.528142,15.4922345 112.096586,14.9211095 110.100591,14.5919825 L107.632755,14.1970301 C106.974761,14.0874009 106.43688,13.9557501 106.02055,13.8018383 C105.603262,13.6486447 105.274265,13.4676847 105.033319,13.258719 C104.791656,13.0504714 104.627038,12.8091914 104.539704,12.5344003 C104.451652,12.2605666 104.407866,11.9477164 104.407866,11.5965679 C104.407866,11.2674409 104.473905,10.9545907 104.605503,10.6582568 C104.737102,10.3619228 104.961777,10.0933552 105.280007,9.85159644 C105.597758,9.61055581 106.02055,9.41858502 106.546945,9.27568406 C107.07334,9.13326184 107.731573,9.06169168 108.521166,9.06169168 C109.222947,9.06169168 109.809878,9.12249041 110.281719,9.24289105 C110.753082,9.36353105 111.153621,9.53898565 111.482857,9.76949422 C111.811854,10.0000028 112.075052,10.2908314 112.27245,10.6417406 C112.469848,10.9931285 112.645234,11.3988523 112.799085,11.8596301 L115.39852,11.4318847 C115.244669,10.7956523 115.025019,10.192213 114.740287,9.62132724 C114.455076,9.05092025 114.049273,8.5571101 113.522878,8.13989676 C112.996483,7.72340152 112.321979,7.39427454 111.499128,7.15227644 C110.676516,6.91123581 109.650763,6.79011708 108.422587,6.79011708 C107.45713,6.79011708 106.563215,6.90549105 105.740842,7.13599962 C104.917991,7.36650819 104.204964,7.69563517 103.601763,8.12361994 C102.998323,8.5516047 102.526721,9.07318121 102.186956,9.68715263 C101.846474,10.3016028 101.676832,11.0038999 101.676832,11.7940441 C101.676832,12.5841882 101.802927,13.258719 102.055118,13.8183545 C102.30731,14.3782295 102.685596,14.850018 103.190457,15.2339596 C103.69484,15.6181406 104.309286,15.9307514 105.033319,16.1720314 C105.757113,16.4140295 106.601259,16.6115057 107.566955,16.7644599 L109.738814,17.0938263 C110.374795,17.2036949 110.890423,17.3463564 111.285459,17.5215717 C111.680256,17.6977444 111.987,17.9002472 112.206651,18.1307558 C112.425583,18.361025 112.573692,18.624566 112.650976,18.9206606 C112.727543,19.2169945 112.766065,19.5298447 112.766065,19.8589717 C112.766065,20.6711374 112.464106,21.323886 111.861144,21.8176961 C111.257464,22.3112669 110.23219,22.5580523 108.784364,22.5580523 C107.402337,22.5580523 106.310785,22.3227564 105.510425,21.8504891 C104.709347,21.3789399 104.210468,20.550258 104.013069,19.3651615 L101.249016,19.3651615 Z M84.4014966,24.3358168 L87.264369,24.3358168 L87.264369,14.2628555 C87.264369,13.406886 87.4069742,12.710573 87.6921847,12.1724803 C87.9769167,11.6351057 88.3939653,11.1247793 88.9426127,10.6417406 C89.4469951,10.1594199 90.0119129,9.808032 90.6373662,9.58853422 C91.2623409,9.36927581 91.8928188,9.25916787 92.5292785,9.25916787 C93.7139071,9.25916787 94.591073,9.58326819 95.1617333,10.2305114 C95.7319151,10.8779939 96.0171256,11.9915203 96.0171256,13.5715691 L96.0171256,24.3358168 L98.879998,24.3358168 L98.879998,13.0119336 C98.879998,10.9708676 98.4136596,9.42361168 97.4814615,8.37040533 C96.5490241,7.31719898 95.1174683,6.79011708 93.1872726,6.79011708 C92.0684434,6.79011708 91.0044072,7.03211517 89.9954032,7.51467517 C88.98616,7.99747454 88.0649683,8.7983901 87.2313496,9.91766121 L87.2313496,7.31719898 L84.4014966,7.31719898 L84.4014966,24.3358168 Z M78.0512557,24.3360561 L80.9141281,24.3360561 L80.9141281,7.31719898 L78.0512557,7.31719898 L78.0512557,24.3360561 Z M77.952437,4.15686184 L81.0127075,4.15686184 L81.0127075,0.832080889 L77.952437,0.832080889 L77.952437,4.15686184 Z" id="Fill-4" fill="white"></path>
            </g>
        </g>
    </g>
</svg>
