<svg xmlns="http://www.w3.org/2000/svg" width="155" height="40" viewBox="0 0 155 40">
    <!-- <defs>
        <linearGradient id="a" x1="-19.969%" x2="121.549%" y1="-36.473%" y2="144.655%">
            <stop offset="0%" stop-color="#52E5E7"/>
            <stop offset="100%" stop-color="#130CB7"/>
        </linearGradient>
    </defs> -->
    <path fill="white" fill-rule="evenodd" d="M150.98 33.896v.598h1.682c-.096.95-.762 1.599-1.797 1.599-1.191 0-1.999-.853-1.999-2.223 0-1.371.799-2.231 1.93-2.231 1.017 0 1.645.557 1.793 1.424l.729-.046c-.183-1.263-1.068-2.029-2.531-2.029-1.526 0-2.701 1.17-2.701 2.874 0 1.721 1.13 2.873 2.692 2.873.86 0 1.64-.386 1.884-1.09v.985h.692v-2.734h-2.375zm-5.716 1.433v-4.236h.71v5.536h-.604l-3.209-4.446v4.446h-.71v-5.536h.79l3.023 4.236zm-6.943 1.3h.762v-5.536h-.762v5.536zm-4.695 0v-4.903h-2.007v-.633h4.803v.633h-2.042v4.903h-.754zm-8.605 0v-5.536h.763v2.373h3.173v-2.373h.763v5.536h-.763v-2.54h-3.173v2.54h-.763zm-4.704-2.733v.598H122c-.096.95-.762 1.599-1.797 1.599-1.191 0-1.999-.853-1.999-2.223 0-1.371.799-2.231 1.93-2.231 1.019 0 1.648.558 1.793 1.427l.73-.045c-.181-1.266-1.068-2.033-2.532-2.033-1.526 0-2.7 1.17-2.7 2.874 0 1.721 1.13 2.873 2.691 2.873.86 0 1.64-.386 1.884-1.09v.985h.692v-2.734h-2.375zm-5.765 2.733h.763v-5.536h-.763v5.536zm-4.986-5.536v4.904h3.076v.632h-3.839v-5.536h.763zm-8.827 4.912c1.35 0 2.087-.8 2.087-2.144s-.737-2.144-2.087-2.144h-1.192v4.288h1.192zm-1.954-4.912h1.998c1.736 0 2.832 1.037 2.832 2.768 0 1.731-1.096 2.768-2.832 2.768h-1.998v-5.536zm-1.962 5.536h-3.936v-5.536h3.857v.633h-3.12v1.74h2.48v.624h-2.48v1.907h3.2v.632zm-8.922-5.536v4.904h3.077v.632h-3.84v-5.536h.763zm59.67-13.382l-3.332.724c-2.088.443-3.574.805-3.574 2.576 0 1.208.924 1.933 2.45 1.933 2.53 0 4.457-1.933 4.457-4.79v-.443zm4.699 3.824c0 .926.481 1.368 1.244 1.368.482 0 .964-.12 1.486-.362v2.576c-.763.604-1.727 1.127-3.333 1.127-2.007 0-3.292-1.167-3.734-3.1-1.004 2.054-3.413 3.14-6.023 3.14-3.694 0-5.943-1.851-5.943-4.91 0-3.381 2.73-4.79 6.746-5.595l4.859-.966v-.403c0-1.972-1.045-3.18-3.092-3.18-2.008 0-3.092 1.208-3.494 2.939l-4.376-.403c.602-3.622 3.373-6.158 8.07-6.158 4.578 0 7.59 2.173 7.59 6.843v7.084zm-21.575-2.083c-.606 1.979-2.01 3.17-4.235 3.17-2.65 0-4.497-1.973-4.497-5.636 0-3.702 1.846-5.675 4.497-5.675 2.215 0 3.618 1.153 4.228 3.084l4.11-.4c-.835-3.628-3.642-6.387-8.338-6.387-5.46 0-9.357 3.744-9.357 9.378 0 5.635 3.896 9.339 9.357 9.339 4.732 0 7.547-2.802 8.356-6.472l-4.12-.4zm-20.407 6.39h4.819V8.09h-4.819v17.75zm-11.586-14.37h-2.53V8.614l1.205-.201c1.727-.282 2.209-1.168 2.61-2.818l.563-2.415h2.93v4.91h4.82v3.382h-4.82v8.775c0 1.53.683 2.214 2.129 2.214.964 0 1.967-.363 3.011-.846v3.18c-1.285.966-2.73 1.53-4.898 1.53-2.73 0-5.02-1.208-5.02-4.991v-9.862zm-16.835 5.836c0 3.26 1.927 5.233 4.657 5.233 3.052 0 4.618-2.214 4.618-5.555 0-3.38-1.566-5.595-4.618-5.595-2.73 0-4.657 2.013-4.657 5.233v.684zm.04 15.135h-4.819V8.091h4.819v3.421c.803-2.173 2.93-3.904 6.103-3.904 5.22 0 7.99 4.146 7.99 9.378 0 5.233-2.77 9.339-7.99 9.339-3.172 0-5.3-1.731-6.103-3.864v9.982zM61.863 4.428c-4.658 0-7.63 3.421-7.63 8.734 0 5.314 2.972 8.735 7.63 8.735 4.657 0 7.629-3.421 7.629-8.735 0-5.313-2.972-8.734-7.63-8.734zm0 21.897c-7.389 0-12.85-5.354-12.85-13.163S54.474 0 61.863 0c7.348 0 12.809 5.353 12.809 13.162 0 7.81-5.461 13.163-12.81 13.163zm48.299-23.3a2.539 2.539 0 0 1 2.535-2.542c1.4 0 2.536 1.138 2.536 2.542a2.539 2.539 0 0 1-2.536 2.542 2.539 2.539 0 0 1-2.535-2.542zm-107.48 9.04a2.683 2.683 0 1 0 0 5.366 2.683 2.683 0 0 0 0-5.366zm0 11.785a1.688 1.688 0 1 0 0 3.375 1.688 1.688 0 0 0 0-3.375zm0 10.785a1.688 1.688 0 1 0 0 3.375 1.688 1.688 0 0 0 0-3.375zm0-32.357a1.688 1.688 0 1 0 0 3.375 1.688 1.688 0 0 0 0-3.375zM34.979 33.64a2.683 2.683 0 1 0 0 5.365 2.683 2.683 0 0 0 0-5.365zm-10.764-.995a3.678 3.678 0 1 0 0 7.355 3.678 3.678 0 0 0 0-7.355zM34.978 1.283a2.683 2.683 0 1 0 0 5.365 2.683 2.683 0 0 0 0-5.365zM13.45 11.07a3.678 3.678 0 1 0 0 7.356 3.678 3.678 0 0 0 0-7.356zm0-9.787a2.683 2.683 0 1 0 0 5.366 2.683 2.683 0 0 0 0-5.366zM24.214.288a3.678 3.678 0 1 0 0 7.356 3.678 3.678 0 0 0 0-7.356zm10.764 21.571a3.678 3.678 0 1 0 0 7.356 3.678 3.678 0 0 0 0-7.356zm0-10.79a3.678 3.678 0 1 0 0 7.357 3.678 3.678 0 0 0 0-7.356zM24.214 13.06a1.687 1.687 0 1 0 0 3.375 1.687 1.687 0 0 0 0-3.375zM13.45 34.635a1.688 1.688 0 1 0 0 3.375 1.688 1.688 0 0 0 0-3.375zM24.214 23.85a1.687 1.687 0 1 0 0 3.375 1.687 1.687 0 0 0 0-3.375zm-8.08 1.687a2.683 2.683 0 1 1-5.366 0 2.683 2.683 0 0 1 5.365 0z"/>
</svg>
