<svg version="1.1" id="Layer_1" xmlns="http://www.w3.org/2000/svg" xmlns:xlink="http://www.w3.org/1999/xlink" x="0px" y="0px"
	 width="754px" height="196px" viewBox="0 0 754 196" enable-background="new 0 0 754 196" xml:space="preserve">
<g>
	<path fill-rule="evenodd" clip-rule="evenodd" fill="#FFFFFF" d="M5.251,34.313c0.791,0.076,1.616,0.273,2.094-0.673
		c2.101,0,4.178,0,6.255,0c2.48,0,4.96,0.042,7.439-0.02c1.103-0.027,2.201-0.265,3.367-0.416c0.061-0.467,0.111-0.851,0.169-1.295
		c0.648-0.391,0.857-1.015,0.754-1.8c-0.072-0.552-0.089-1.114-0.09-1.671c-0.01-4.64-0.005-9.279-0.019-13.919
		c-0.001-0.594-0.077-1.188-0.116-1.762c0.358-0.438,0.808-0.507,1.311-0.506c4.918,0.005,9.838-0.009,14.756,0.007
		c0.408,0.001,0.815,0.18,1.218,0.275c0,0.85,0,1.561,0,2.272c0,4.36,0.006,8.72-0.005,13.08c-0.002,0.717-0.073,1.434-0.118,2.15
		c-0.042,0.654,0.033,1.229,0.552,1.748c0.264,0.263,0.278,0.774,0.438,1.272c0.843,0.415,1.841,0.592,2.889,0.586
		c4.759-0.027,9.519-0.039,14.278-0.068c0.54-0.003,1.049-0.007,1.252,0.37c-0.058,4.721-0.031,9.264,0.053,13.812
		c-0.152,0.508-0.561,0.649-1.091,0.63c-1.635-0.059-3.271-0.121-4.907-0.135c-2.479-0.022-4.96,0.004-7.439-0.009
		c-1.717-0.01-3.447-0.139-5.137,0.894c-0.021,0.31-0.055,0.778-0.087,1.246c-0.913,0.921-0.779,2.108-0.798,3.244
		c-0.026,1.593-0.007,3.187-0.004,4.78c0.001,0.399,0.005,0.798,0.027,1.196c0.018,0.318,0.09,0.635,0.093,0.952
		c0.025,2.752,0.039,5.504,0.059,8.256c0.007,0.918-0.274,1.222-1.209,1.223c-4.959,0.006-9.919,0.007-14.878,0
		c-0.923-0.001-1.195-0.314-1.191-1.246c0.025-5.319,0.059-10.638,0.059-15.957c0-0.804,0.17-1.647-0.575-2.35
		c-0.264-0.249-0.146-0.905-0.2-1.366c-1.438-0.682-2.919-0.918-4.504-0.889c-3.798,0.07-7.599,0.023-11.399,0.024
		c-0.36,0-0.743-0.071-1.075,0.027c-0.859,0.254-1.565,0.011-2.22-0.522c0-0.16,0-0.32,0-0.48c0.157-0.294,0.448-0.586,0.451-0.882
		c0.037-3.537,0.034-7.074,0.033-10.611c0-0.396-0.002-0.816-0.484-0.988C5.251,34.633,5.251,34.473,5.251,34.313z"/>
	<path fill-rule="evenodd" clip-rule="evenodd" fill="#FFFFFF" d="M671.973,187.914c-0.197-0.421-0.471-0.788-0.283-1.335
		c0.137-0.397,0.061-0.87,0.061-1.31c-0.002-30.866-0.008-61.733-0.01-92.6c0-5.957,0.006-11.915,0.01-17.872
		c0-0.713,0-1.427,0-2.365c0.102-0.052,0.395-0.327,0.691-0.331c2.834-0.032,5.668-0.019,8.625-0.019
		c0.078,0.381,0.205,0.71,0.205,1.04c-0.001,14.354-0.008,28.707-0.027,43.061c-0.005,2.953-0.102,5.906-0.096,8.859
		c0.014,6.476,0.082,12.951,0.096,19.426c0.018,8.433,0.012,16.865-0.002,25.297c-0.005,2.953-0.089,5.906-0.09,8.859
		c0,2.59,0.074,5.179,0.094,7.769c0.003,0.507-0.1,1.014-0.154,1.521C678.052,187.914,675.012,187.914,671.973,187.914z"/>
	<path fill-rule="evenodd" clip-rule="evenodd" fill="#FFFFFF" d="M5.251,34.793c0.481,0.172,0.483,0.592,0.484,0.988
		c0.001,3.537,0.004,7.074-0.033,10.611c-0.003,0.295-0.294,0.588-0.451,0.882C5.251,43.113,5.251,38.953,5.251,34.793z"/>
	<path fill-rule="evenodd" clip-rule="evenodd" fill="#FFFFFF" d="M233.984,173.159c-0.344,0.083-0.588,0.195-0.832,0.195
		c-5.438-0.007-10.875-0.058-16.312-0.018c-1.177,0.009-1.867-0.381-2.316-1.449c-0.272-0.648-0.716-1.228-1.106-1.823
		c-0.958-1.46-1.953-2.898-2.889-4.373c-0.57-0.898-1.042-1.858-1.594-2.769c-0.307-0.505-0.704-0.954-1.031-1.448
		c-0.965-1.457-1.928-2.916-2.869-4.388c-0.554-0.866-1.063-1.76-1.597-2.638c-0.473-0.777-0.937-1.56-1.431-2.323
		c-1.058-1.634-2.092-3.287-3.215-4.875c-0.724-1.023-1.104-2.339-2.327-2.958c-0.448-0.227-0.949-0.492-1.426-0.493
		c-2.836-0.005-5.672,0.086-8.508,0.096c-1.756,0.006-3.513-0.09-5.269-0.108c-0.596-0.006-1.197,0.057-1.789,0.136
		c-0.805,0.107-1.215,0.488-1.371,1.272c-0.069,0.349-0.065,0.716-0.065,1.074c-0.002,8.038,0,16.075,0.002,24.112
		c0,0.876,0,1.752,0,2.806c-0.213,0.05-0.536,0.191-0.858,0.191c-4.755,0.009-9.51,0.001-14.265-0.013
		c-0.345-0.001-0.689-0.082-0.948-0.115c0-5.018,0-9.92,0-14.824c0-20.833,0-41.667-0.001-62.5c0-2.359-0.016-4.719-0.006-7.078
		c0.002-0.378,0.106-0.756,0.172-1.2c0.741,0,1.371,0,2.001,0c12.556,0,25.112-0.012,37.668,0.014
		c1.953,0.004,3.907,0.153,5.857,0.294c0.457,0.033,0.901,0.29,1.34,0.471c0.254,0.105,0.484,0.378,0.728,0.38
		c1.372,0.017,2.463,0.812,3.658,1.292c0.909,0.366,1.771,0.891,2.583,1.447c1.374,0.941,2.798,1.85,4.001,2.984
		c1.054,0.993,2.22,1.901,3.014,3.182c0.731,1.178,1.702,2.205,2.447,3.376c1.346,2.116,2.47,4.346,3.065,6.813
		c0.28,1.161,0.797,2.285,0.926,3.457c0.217,1.968,0.592,3.937,0.268,5.95c-0.208,1.295-0.201,2.624-0.338,3.933
		c-0.053,0.51-0.227,1.009-0.361,1.508c-0.187,0.689-0.389,1.375-0.582,2.063c-0.043,0.153-0.053,0.32-0.119,0.462
		c-0.584,1.254-1.147,2.52-1.778,3.751c-0.469,0.917-0.999,1.807-1.556,2.673c-0.408,0.634-0.872,1.24-1.371,1.806
		c-1.259,1.43-2.521,2.854-4.169,3.881c-0.838,0.522-1.532,1.339-2.422,1.696c-0.935,0.375-1.712,0.979-2.611,1.383
		c-0.879,0.395-1.036,0.908-0.513,1.702c0.939,1.424,1.925,2.818,2.861,4.244c0.873,1.328,1.702,2.683,2.557,4.023
		c1.068,1.675,2.151,3.34,3.212,5.019c1.253,1.985,2.482,3.985,3.734,5.971c0.87,1.379,1.767,2.74,2.642,4.116
		c1.344,2.115,2.667,4.242,4.024,6.348C233.173,172.312,233.556,172.663,233.984,173.159z M178.048,115.673
		c-0.003,0-0.006,0-0.009,0c0,4.36-0.004,8.72,0.002,13.08c0.002,1.392,0.281,1.676,1.66,1.779c0.16,0.012,0.319,0.017,0.479,0.017
		c7.079-0.002,14.159,0.005,21.238-0.02c0.751-0.002,1.565-0.036,2.237-0.32c1.34-0.568,2.775-0.987,3.907-1.971
		c0.957-0.831,2.066-1.499,2.677-2.693c0.395-0.771,0.874-1.506,1.371-2.218c0.987-1.415,1.467-3.08,1.636-4.692
		c0.263-2.51,0.591-5.111-0.585-7.548c-0.085-0.176-0.123-0.384-0.14-0.581c-0.108-1.253-0.857-2.274-1.517-3.198
		c-1.766-2.472-3.797-4.729-6.985-5.433c-0.185-0.041-0.358-0.181-0.514-0.303c-0.564-0.444-1.211-0.572-1.912-0.573
		c-2.959-0.003-5.919-0.027-8.878-0.032c-4.28-0.006-8.56-0.017-12.839,0.005c-1.512,0.008-1.824,0.357-1.827,1.862
		C178.043,107.113,178.048,111.394,178.048,115.673z"/>
	<path fill-rule="evenodd" clip-rule="evenodd" fill="#FFFFFF" d="M285.522,173.7c-2.684-0.14-5.396-0.276-8.106-0.432
		c-0.31-0.018-0.648-0.087-0.914-0.237c-0.899-0.508-1.88-0.665-2.881-0.722c-0.618-0.035-1.156-0.185-1.675-0.547
		c-0.345-0.24-0.797-0.346-1.216-0.458c-0.653-0.174-1.33-0.243-1.878-0.723c-0.19-0.166-0.513-0.184-0.779-0.256
		c-0.191-0.052-0.412-0.04-0.577-0.132c-0.993-0.552-1.975-1.124-2.957-1.695c-0.649-0.378-1.281-0.785-1.937-1.147
		c-2.953-1.628-5.527-3.757-7.863-6.154c-2.081-2.136-4.075-4.364-5.59-6.97c-0.574-0.987-1.292-1.893-1.842-2.891
		c-0.552-1.001-0.999-2.064-1.451-3.118c-0.486-1.132-0.983-2.266-1.371-3.433c-0.59-1.775-1.204-3.555-1.598-5.377
		c-0.394-1.826-0.534-3.708-0.779-5.566c-0.083-0.632-0.108-1.274-0.228-1.899c-0.214-1.118-0.272-2.219,0.121-3.311
		c0.04-0.112,0.071-0.231,0.083-0.349c0.174-1.826,0.309-3.657,0.531-5.477c0.115-0.941,0.381-1.865,0.586-2.795
		c0.034-0.154,0.144-0.295,0.163-0.449c0.216-1.723,1.012-3.269,1.523-4.9c0.353-1.127,0.904-2.204,1.465-3.25
		c0.959-1.787,1.894-3.603,3.029-5.276c1.113-1.639,2.399-3.176,3.731-4.648c1.361-1.505,2.806-2.95,4.334-4.285
		c1.25-1.092,2.669-1.989,4.024-2.958c0.615-0.44,1.241-0.866,1.887-1.259c0.979-0.594,1.948-1.216,2.977-1.71
		c1.022-0.491,2.146-0.772,3.167-1.268c1.218-0.591,2.454-1.068,3.799-1.252c0.183-0.025,0.334-0.228,0.519-0.285
		c0.64-0.198,1.28-0.475,1.935-0.525c1.162-0.089,2.285-0.208,3.385-0.666c0.644-0.269,1.397-0.37,2.103-0.378
		c3.159-0.039,6.32-0.047,9.479,0.003c0.782,0.013,1.587,0.206,2.331,0.461c0.919,0.316,1.832,0.53,2.805,0.557
		c0.879,0.025,1.763,0.111,2.48,0.727c0.059,0.05,0.139,0.099,0.213,0.105c1.409,0.12,2.633,0.804,3.923,1.285
		c0.476,0.177,0.928,0.421,1.392,0.633c0.249,0.114,0.496,0.233,0.751,0.334c0.295,0.116,0.624,0.168,0.891,0.327
		c1.767,1.051,3.587,2.029,5.26,3.215c1.59,1.127,3.089,2.405,4.502,3.75c1.558,1.482,3.041,3.057,4.425,4.702
		c0.993,1.18,1.785,2.531,2.64,3.823c0.655,0.989,1.293,1.991,1.89,3.016c0.456,0.783,0.883,1.59,1.236,2.424
		c0.529,1.244,0.931,2.543,1.48,3.778c0.852,1.915,1.146,3.984,1.696,5.979c0.398,1.444,0.484,2.991,0.571,4.5
		c0.121,2.107,0.483,4.206,0.21,6.333c-0.264,2.057-0.389,4.133-0.697,6.183c-0.2,1.336-0.611,2.641-0.944,3.956
		c-0.068,0.267-0.205,0.518-0.322,0.771c-0.136,0.29-0.381,0.562-0.413,0.86c-0.155,1.431-0.969,2.61-1.474,3.9
		c-0.488,1.245-1.272,2.371-1.885,3.57c-1.021,1.997-2.349,3.784-3.764,5.505c-1.644,1.998-3.298,3.999-5.317,5.639
		c-1.199,0.973-2.44,1.902-3.716,2.771c-1.471,1.001-2.988,1.935-4.511,2.856c-0.669,0.404-1.371,0.821-2.114,1.023
		c-1.38,0.375-2.533,1.333-3.994,1.482c-0.306,0.031-0.648,0.135-0.886,0.32c-0.641,0.498-1.378,0.549-2.137,0.66
		c-0.816,0.12-1.608,0.402-2.41,0.618c-0.382,0.103-0.757,0.289-1.143,0.312C290.978,173.432,288.266,173.56,285.522,173.7z
		 M286.596,100.974c0-0.041,0-0.083,0-0.124c-1.277,0-2.56-0.065-3.832,0.017c-1.534,0.099-3.145-0.073-4.483,0.985
		c-0.137,0.108-0.384,0.108-0.579,0.106c-0.916-0.008-1.729,0.249-2.417,0.871c-0.115,0.104-0.264,0.204-0.412,0.233
		c-1.435,0.285-2.569,1.152-3.741,1.938c-0.755,0.506-1.519,1.015-2.204,1.608c-0.959,0.832-1.907,1.69-2.75,2.635
		c-0.87,0.975-1.675,2.024-2.387,3.12c-0.988,1.521-1.867,3.114-2.779,4.683c-0.097,0.167-0.099,0.385-0.162,0.573
		c-0.164,0.489-0.327,0.978-0.508,1.46c-0.154,0.409-0.419,0.795-0.489,1.216c-0.385,2.312-1.246,4.505-1.306,6.915
		c-0.097,3.841-0.315,7.659,0.975,11.37c0.09,0.259,0.093,0.55,0.125,0.828c0.089,0.8,0.275,1.555,0.717,2.257
		c0.247,0.392,0.318,0.891,0.482,1.337c0.137,0.371,0.262,0.751,0.446,1.099c0.539,1.019,1.046,2.061,1.674,3.023
		c0.927,1.424,1.845,2.876,2.953,4.155c1.512,1.748,3.312,3.216,5.227,4.52c0.683,0.465,1.377,0.957,2.138,1.256
		c1.126,0.442,2.086,1.299,3.365,1.368c0.142,0.008,0.289,0.135,0.413,0.233c0.661,0.523,1.434,0.651,2.248,0.698
		c0.592,0.034,1.201,0.078,1.764,0.246c3.102,0.928,6.192,1.048,9.296,0.021c0.412-0.136,0.878-0.315,1.278-0.245
		c1.937,0.34,3.298-1.286,5.083-1.426c0.131-0.01,0.246-0.192,0.376-0.283c0.229-0.159,0.445-0.358,0.698-0.454
		c1.625-0.617,2.901-1.781,4.294-2.752c1.372-0.956,2.633-2.056,3.642-3.412c0.901-1.211,1.881-2.371,2.691-3.64
		c0.789-1.237,1.409-2.582,2.093-3.885c0.109-0.209,0.163-0.448,0.242-0.672c0.212-0.599,0.423-1.197,0.637-1.795
		c0.174-0.486,0.394-0.96,0.519-1.459c0.27-1.081,0.495-2.173,0.732-3.262c0.102-0.467,0.258-0.934,0.275-1.405
		c0.084-2.273,0.18-4.548,0.169-6.822c-0.006-1.19-0.161-2.391-0.361-3.567c-0.206-1.212-0.532-2.406-0.839-3.599
		c-0.118-0.459-0.317-0.9-0.497-1.342c-0.166-0.406-0.467-0.791-0.514-1.207c-0.155-1.367-1.043-2.403-1.616-3.556
		c-0.753-1.515-1.845-2.867-2.832-4.26c-1.47-2.075-3.456-3.631-5.429-5.177c-0.961-0.753-2.061-1.331-3.105-1.975
		c-0.199-0.122-0.437-0.179-0.655-0.271c-0.432-0.185-0.868-0.36-1.29-0.564c-0.284-0.138-0.546-0.454-0.82-0.456
		c-1.201-0.009-2.208-0.599-3.295-0.957c-0.482-0.159-1.021-0.186-1.536-0.196C289.075,100.956,287.835,100.974,286.596,100.974z"/>
	<path fill-rule="evenodd" clip-rule="evenodd" fill="#FFFFFF" d="M487.692,123.237c0,1.628-0.01,2.98,0.002,4.333
		c0.021,2.318,0.062,4.635,0.073,6.953c0.002,0.39-0.097,0.781-0.158,1.237c-0.359,0.031-0.668,0.08-0.976,0.08
		c-11.597,0.001-23.194-0.003-34.792-0.002c-0.438,0-0.885,0.001-1.311,0.09c-1.16,0.243-1.518,0.713-1.518,1.917
		c-0.001,5.199,0.004,10.397,0.004,15.596c0,1.439-0.018,2.879-0.008,4.319c0.006,0.943,0.393,1.396,1.313,1.545
		c0.313,0.051,0.639,0.039,0.958,0.039c14.116,0,28.233-0.003,42.351-0.002c0.348,0,0.695,0.044,1.107,0.072
		c0,4.62,0,9.148,0,13.763c-0.223,0.066-0.477,0.208-0.73,0.208c-5.518-0.017-11.034-0.07-16.551-0.075
		c-14.518-0.012-29.034-0.003-43.551-0.007c-0.348,0-0.695-0.049-1.138-0.082c0.057-0.713,0.148-1.333,0.148-1.953
		c0.007-11.877,0.002-23.754,0.001-35.631c-0.001-11.797-0.003-23.595-0.003-35.392c0-3.359,0.008-6.718,0.003-10.077
		c0-0.438-0.076-0.876-0.071-1.314c0.003-0.372,0.072-0.743,0.119-1.174c20.155,0,40.179,0,60.355,0
		c0.091,0.305,0.289,0.664,0.291,1.024c0.02,3.957,0.01,7.914,0.005,11.871c-0.001,0.035-0.037,0.07-0.144,0.261
		c-0.222,0.038-0.555,0.143-0.887,0.143c-13.717-0.002-27.434-0.014-41.15-0.023c-0.318,0-0.645-0.011-0.955,0.048
		c-1.156,0.219-1.477,0.8-1.473,1.688c0.027,6.278,0.006,12.557,0.01,18.835c0,0.955,0.186,1.199,1.096,1.438
		c0.42,0.11,0.865,0.167,1.299,0.167c11.678,0.001,23.354-0.008,35.031-0.008C486.895,123.123,487.346,123.204,487.692,123.237z"/>
	<path fill-rule="evenodd" clip-rule="evenodd" fill="#FFFFFF" d="M580.561,163.527c0.025-0.212-0.02-0.556,0.113-0.803
		c0.89-1.646,1.836-3.262,2.727-4.907c0.547-1.013,1.018-2.067,1.545-3.093c0.381-0.741,0.788-1.468,1.198-2.193
		c0.445-0.787,0.907-1.565,1.409-2.431c0.568,0.309,1.175,0.594,1.732,0.954c0.734,0.472,1.393,1.07,2.151,1.494
		c1.029,0.574,2.125,1.03,3.187,1.545c0.673,0.327,1.33,0.687,2.007,1.003c1.21,0.565,2.428,1.112,3.646,1.658
		c0.251,0.112,0.514,0.237,0.781,0.268c0.848,0.099,1.61,0.37,2.354,0.805c0.421,0.247,0.985,0.244,1.481,0.367
		c0.611,0.151,1.281,0.205,1.813,0.501c0.803,0.449,1.629,0.65,2.518,0.633c1.135-0.022,2.201,0.224,3.289,0.543
		c0.981,0.288,2.037,0.391,3.066,0.433c1.678,0.069,3.359,0.049,5.039,0.013c1.116-0.024,2.217-0.165,3.271-0.619
		c0.499-0.215,1.077-0.311,1.625-0.336c0.862-0.039,1.625-0.229,2.354-0.738c0.738-0.517,1.633-0.755,2.367-1.342
		c1.014-0.811,1.851-1.752,2.508-2.846c0.258-0.429,0.306-0.981,0.465-1.473c0.591-1.832,0.391-3.643-0.285-5.384
		c-0.297-0.762-0.804-1.479-1.352-2.097c-1.143-1.287-2.479-2.333-4.086-3.036c-1.188-0.52-2.264-1.331-3.481-1.733
		c-1.271-0.419-2.544-0.819-3.806-1.277c-0.949-0.345-2.021-0.211-2.934-0.875c-0.433-0.315-1.166-0.189-1.742-0.341
		c-0.643-0.169-1.256-0.445-1.895-0.638c-0.485-0.146-0.989-0.33-1.484-0.328c-0.872,0.004-1.623-0.224-2.385-0.646
		c-0.535-0.296-1.207-0.505-1.809-0.483c-1.084,0.04-1.882-0.57-2.803-0.917c-0.87-0.328-1.953,0.025-2.684-0.813
		c-0.075-0.085-0.203-0.176-0.307-0.176c-1.494,0-2.668-0.95-4.021-1.373c-1.154-0.36-2.227-1.003-3.309-1.572
		c-0.809-0.425-1.582-0.918-2.357-1.404c-2.188-1.368-3.998-3.094-5.475-5.243c-0.687-1-1.074-2.115-1.694-3.125
		c-0.222-0.361-0.306-0.813-0.415-1.233c-0.111-0.424-0.15-0.867-0.268-1.29c-0.7-2.532-0.916-5.096-0.533-7.702
		c0.271-1.851,0.548-3.701,0.835-5.549c0.036-0.232,0.144-0.454,0.229-0.676c0.313-0.813,0.59-1.644,0.96-2.431
		c0.421-0.894,0.847-1.806,1.415-2.607c0.896-1.262,1.843-2.503,2.898-3.631c0.972-1.039,2.088-1.949,3.19-2.855
		c1.351-1.11,2.78-2.111,4.479-2.643c0.916-0.979,2.461-0.703,3.37-1.693c1.431-0.053,2.651-0.779,3.958-1.233
		c0.182-0.063,0.396-0.038,0.596-0.035c1.212,0.016,2.365-0.189,3.507-0.646c0.685-0.273,1.476-0.373,2.222-0.382
		c3.278-0.041,6.559-0.039,9.838-0.01c1.235,0.011,2.431,0.235,3.615,0.682c0.793,0.3,1.719,0.319,2.588,0.333
		c0.908,0.015,1.742,0.171,2.506,0.663c0.135,0.085,0.28,0.211,0.423,0.215c1.708,0.044,3.15,0.992,4.753,1.391
		c0.448,0.111,0.866,0.343,1.296,0.523c0.255,0.107,0.497,0.261,0.761,0.325c0.701,0.172,1.392,0.334,1.949,0.851
		c0.163,0.151,0.432,0.197,0.659,0.264c0.151,0.044,0.338-0.002,0.472,0.065c1.042,0.532,2.08,1.071,3.108,1.631
		c0.901,0.49,1.788,1.007,2.68,1.517c0.333,0.19,0.658,0.395,1.076,0.646c-0.38,0.812-0.663,1.555-1.058,2.232
		c-1.275,2.193-2.609,4.353-3.886,6.546c-0.56,0.96-1.031,1.972-1.546,2.958c-0.4,0.768-0.805,0.813-1.516,0.318
		c-0.906-0.631-1.854-1.207-2.804-1.77c-1.081-0.64-2.181-1.249-3.284-1.85c-0.238-0.13-0.526-0.17-0.793-0.247
		c-1.317-0.38-2.481-1.215-3.895-1.314c-0.816-0.776-1.833-0.882-2.894-0.925c-0.377-0.015-0.741-0.255-1.118-0.369
		c-0.678-0.205-1.352-0.493-2.045-0.563c-1.47-0.148-2.951-0.167-4.426-0.267c-0.35-0.024-0.719-0.102-1.031-0.253
		c-0.695-0.336-1.362-0.308-2.091-0.098c-0.679,0.196-1.393,0.295-2.099,0.364c-1.152,0.112-2.313,0.152-3.467,0.253
		c-0.354,0.031-0.739,0.091-1.038,0.263c-0.658,0.379-1.352,0.604-2.067,0.846c-0.798,0.27-1.492,0.897-2.179,1.435
		c-1.345,1.051-2.245,2.465-3.044,3.944c-0.131,0.24-0.205,0.53-0.229,0.804c-0.135,1.548-0.407,3.109-0.015,4.648
		c0.31,1.208,0.907,2.313,1.768,3.206c1.13,1.173,2.482,2.039,3.914,2.857c1.185,0.677,2.602,0.794,3.645,1.712
		c0.029,0.025,0.073,0.045,0.11,0.045c1.987-0.01,3.593,1.513,5.612,1.393c0.263-0.016,0.584,0.057,0.795,0.206
		c0.828,0.586,1.779,0.636,2.732,0.766c0.657,0.089,1.289,0.355,1.938,0.527c0.608,0.161,1.215,0.357,1.836,0.436
		c0.795,0.101,1.565,0.165,2.268,0.642c0.341,0.231,0.815,0.319,1.24,0.36c0.926,0.088,1.812,0.207,2.585,0.813
		c0.261,0.204,0.668,0.309,1.008,0.308c0.837-0.002,1.571,0.223,2.226,0.739c0.092,0.073,0.209,0.154,0.318,0.159
		c1.477,0.064,2.688,0.914,4.022,1.386c0.997,0.353,1.961,0.855,2.861,1.417c1.409,0.879,2.811,1.792,4.106,2.827
		c0.952,0.761,1.784,1.696,2.572,2.636c0.789,0.941,1.633,1.905,2.134,3.004c0.603,1.322,1.352,2.62,1.521,4.124
		c0.106,0.949,0.356,1.882,0.476,2.83c0.379,2.984,0.356,5.937-0.22,8.928c-0.351,1.825-0.983,3.525-1.564,5.254
		c-0.287,0.854-0.78,1.663-1.301,2.408c-1.528,2.191-3.229,4.241-5.426,5.807c-0.771,0.55-1.685,0.908-2.431,1.485
		c-0.93,0.72-2.059,1.008-3.041,1.596c-0.266,0.159-0.574,0.262-0.875,0.34c-0.732,0.19-1.459,0.333-2.1,0.816
		c-0.316,0.238-0.83,0.21-1.25,0.318c-0.843,0.217-1.684,0.446-2.525,0.669c-0.419,0.111-0.835,0.297-1.259,0.319
		c-2.036,0.104-4.028,0.43-6.04,0.772c-2.328,0.396-4.745,0.7-7.139,0.201c-0.117-0.024-0.241-0.053-0.356-0.039
		c-1.628,0.205-3.144-0.427-4.718-0.614c-1.307-0.155-2.625-0.222-3.941-0.283c-0.809-0.037-1.545-0.216-2.307-0.523
		c-0.793-0.319-1.701-0.352-2.561-0.502c-0.468-0.082-1.047-0.001-1.387-0.251c-0.865-0.638-1.854-0.69-2.83-0.847
		c-0.594-0.095-1.171-0.168-1.655-0.601c-0.188-0.168-0.508-0.219-0.776-0.261c-0.873-0.134-1.642-0.515-2.451-0.835
		c-1.098-0.434-2.177-0.883-3.255-1.364c-0.569-0.254-1.131-0.486-1.685-0.8c-1.025-0.582-2.146-0.991-3.203-1.521
		c-0.779-0.39-1.527-0.846-2.277-1.294C581.59,164.235,581.142,163.913,580.561,163.527z"/>
	<path fill-rule="evenodd" clip-rule="evenodd" fill="#FFFFFF" d="M501.504,163.429c2.403-4.639,4.787-9.023,7.268-13.453
		c0.316,0.188,0.521,0.285,0.697,0.419c1.297,0.987,2.768,1.711,4.098,2.622c1.033,0.707,2.194,1.095,3.264,1.632
		c1.1,0.552,2.15,1.374,3.459,1.513c0.266,0.028,0.584,0.133,0.758,0.316c0.489,0.517,1.135,0.533,1.75,0.685
		c0.457,0.112,0.982,0.191,1.326,0.472c0.547,0.446,1.128,0.581,1.779,0.552c0.659-0.03,1.279,0.084,1.832,0.443
		c0.875,0.568,1.836,0.757,2.859,0.719c0.969-0.036,1.868,0.154,2.797,0.496c0.914,0.336,1.951,0.416,2.939,0.451
		c1.877,0.066,3.759,0.029,5.639,0.014c0.436-0.003,0.879-0.054,1.306-0.145c1.475-0.313,2.87-0.985,4.434-0.915
		c0.28,0.013,0.597-0.213,0.854-0.388c0.498-0.337,1.037-0.541,1.59-0.766c0.711-0.289,1.378-0.824,1.898-1.402
		c0.653-0.727,1.336-1.418,1.813-2.343c0.58-1.125,0.728-2.234,0.788-3.446c0.126-2.518-0.927-4.483-2.699-6.125
		c-1.045-0.968-2.146-1.835-3.497-2.43c-0.822-0.362-1.534-0.951-2.482-1.089c-0.317-0.046-0.568-0.508-0.891-0.57
		c-1.365-0.265-2.602-0.912-3.924-1.273c-0.875-0.239-1.774-0.333-2.624-0.733c-0.595-0.28-1.313-0.292-1.969-0.452
		c-0.497-0.121-1.057-0.178-1.456-0.455c-0.565-0.392-1.145-0.559-1.795-0.537c-0.911,0.03-1.699-0.259-2.502-0.683
		c-0.57-0.302-1.29-0.319-1.939-0.478c-0.57-0.139-1.197-0.19-1.687-0.474c-0.578-0.335-1.144-0.564-1.799-0.544
		c-0.636,0.019-1.173-0.187-1.649-0.594c-0.119-0.103-0.248-0.243-0.389-0.263c-1.23-0.177-2.346-0.657-3.473-1.159
		c-0.644-0.287-1.314-0.463-1.945-0.846c-0.969-0.587-2.082-0.928-3.09-1.458c-0.699-0.368-1.344-0.851-1.98-1.327
		c-1.885-1.411-3.638-2.988-4.914-4.973c-0.694-1.081-1.248-2.267-1.719-3.503c-0.995-2.611-0.988-5.319-1.02-8.012
		c-0.022-1.905,0.096-3.866,0.543-5.707c0.369-1.516,0.671-3.118,1.564-4.493c0.452-0.695,0.725-1.505,1.145-2.224
		c1.772-3.03,3.98-5.655,7.031-7.496c0.816-0.491,1.512-1.229,2.373-1.585c1.09-0.451,2.107-1.046,3.221-1.468
		c1.215-0.459,2.479-0.786,3.656-1.287c1.1-0.467,2.164-0.723,3.333-0.8c0.745-0.05,1.499-0.236,2.21-0.477
		c0.918-0.311,1.83-0.525,2.806-0.52c3.159,0.018,6.319,0.016,9.479,0.006c1.253-0.004,2.437,0.251,3.63,0.643
		c0.854,0.28,1.799,0.338,2.708,0.381c0.897,0.042,1.706,0.2,2.507,0.662c0.522,0.302,1.204,0.365,1.826,0.447
		c0.561,0.073,1.114,0.082,1.536,0.539c0.104,0.113,0.259,0.235,0.401,0.25c1.32,0.14,2.453,0.834,3.689,1.221
		c0.189,0.059,0.387,0.107,0.563,0.194c1.168,0.573,2.333,1.152,3.496,1.735c0.743,0.373,1.483,0.752,2.221,1.136
		c1.051,0.547,2.098,1.103,3.18,1.672c0.349,0.55,0.058,1.015-0.239,1.511c-0.67,1.118-1.308,2.257-1.957,3.388
		c-0.395,0.688-0.783,1.379-1.182,2.066c-1.094,1.888-2.19,3.774-3.311,5.704c-0.25-0.037-0.52-0.002-0.694-0.114
		c-1.334-0.854-2.644-1.745-3.976-2.602c-0.296-0.19-0.656-0.277-0.977-0.432c-0.426-0.206-0.828-0.466-1.265-0.644
		c-1.272-0.517-2.554-1.01-3.836-1.501c-0.478-0.184-1.028-0.247-1.438-0.523c-0.631-0.427-1.297-0.597-2.027-0.607
		c-0.61-0.009-1.152-0.158-1.701-0.467c-0.504-0.283-1.113-0.459-1.691-0.515c-1.432-0.138-2.874-0.152-4.307-0.273
		c-0.588-0.049-1.178-0.197-1.738-0.384c-0.643-0.214-1.227-0.229-1.854,0.064c-0.387,0.18-0.834,0.28-1.262,0.314
		c-1.313,0.104-2.631,0.156-3.947,0.233c-0.238,0.014-0.52-0.026-0.708,0.084c-1.196,0.7-2.61,0.894-3.774,1.688
		c-1.135,0.775-2.107,1.684-2.945,2.774c-1.221,1.589-1.749,3.464-1.729,5.358c0.023,2.277,0.864,4.362,2.737,5.875
		c0.65,0.525,1.276,1.083,1.936,1.597c0.242,0.189,0.555,0.286,0.824,0.444c1.12,0.661,2.418,0.932,3.536,1.562
		c0.578,0.325,1.123,0.535,1.767,0.632c0.576,0.088,1.193,0.212,1.684,0.503c0.686,0.407,1.393,0.579,2.158,0.609
		c0.682,0.026,1.288,0.183,1.926,0.501c0.688,0.343,1.531,0.409,2.318,0.506c0.722,0.09,1.396,0.211,2.038,0.606
		c0.385,0.237,0.899,0.333,1.363,0.356c1.014,0.051,1.968,0.186,2.849,0.771c0.334,0.222,0.841,0.171,1.261,0.278
		c0.688,0.175,1.437,0.259,2.036,0.601c0.584,0.333,1.148,0.554,1.795,0.535c0.555-0.017,1.022,0.156,1.438,0.49
		c0.555,0.446,1.191,0.628,1.888,0.661c0.238,0.011,0.551-0.029,0.699,0.102c0.722,0.633,1.66,0.733,2.478,1.112
		c1.396,0.646,2.771,1.371,4.053,2.216c1.629,1.074,3.113,2.339,4.467,3.771c1.415,1.497,2.553,3.195,3.358,5.031
		c0.856,1.954,1.507,4.038,1.499,6.239c-0.008,2.16,0.051,4.321-0.027,6.478c-0.048,1.307-0.156,2.634-0.775,3.846
		c-0.123,0.243-0.156,0.533-0.229,0.803c-0.443,1.656-1.197,3.156-2.071,4.632c-0.801,1.352-1.761,2.564-2.817,3.685
		c-0.922,0.979-2.007,1.82-3.094,2.623c-1.002,0.742-2.036,1.519-3.178,1.977c-1.196,0.48-2.211,1.45-3.607,1.432
		c-0.188-0.002-0.424,0.06-0.559,0.18c-0.738,0.664-1.633,0.727-2.562,0.819c-0.612,0.061-1.197,0.382-1.8,0.568
		c-0.451,0.139-0.904,0.309-1.368,0.359c-1.428,0.155-2.896,0.107-4.284,0.424c-1.563,0.356-3.142,0.482-4.716,0.658
		c-1.106,0.123-2.235,0.063-3.353,0.035c-0.835-0.021-1.667-0.122-2.5-0.186c-0.358-0.028-0.743,0.022-1.07-0.092
		c-2.156-0.749-4.4-0.73-6.634-0.833c-0.47-0.021-0.979-0.072-1.391-0.271c-0.997-0.484-2.038-0.689-3.128-0.717
		c-0.73-0.018-1.404-0.141-2.035-0.581c-0.337-0.235-0.809-0.322-1.232-0.377c-0.908-0.117-1.836-0.108-2.572-0.802
		c-0.153-0.144-0.442-0.162-0.676-0.2c-0.949-0.153-1.882-0.331-2.686-0.932c-0.207-0.155-0.531-0.145-0.792-0.237
		c-0.446-0.158-0.889-0.329-1.327-0.506c-0.547-0.221-1.087-0.457-1.633-0.68c-0.109-0.045-0.242-0.042-0.343-0.098
		c-1.591-0.88-3.181-1.761-4.765-2.653C503.658,164.678,502.673,164.101,501.504,163.429z"/>
	<path fill-rule="evenodd" clip-rule="evenodd" fill="#FFFFFF" d="M97.831,173.286c-5.423,0.047-10.757,0.001-16.168,0.021
		c0-28.572,0-57.014,0-85.541c0.386-0.047,0.689-0.117,0.993-0.117c12.917-0.004,25.833-0.016,38.75,0.017
		c1.591,0.004,3.184,0.231,4.772,0.39c0.348,0.035,0.68,0.218,1.021,0.332c0.671,0.224,1.342,0.449,2.016,0.667
		c0.112,0.036,0.267-0.003,0.35,0.06c0.738,0.568,1.673,0.745,2.446,1.185c2.172,1.235,4.353,2.51,6.147,4.276
		c1.468,1.446,2.992,2.842,4.167,4.583c1.002,1.487,1.978,2.987,2.722,4.607c0.742,1.615,1.622,3.185,1.849,5.011
		c0.102,0.817,0.529,1.59,0.676,2.407c0.594,3.296,0.507,6.612-0.053,9.892c-0.266,1.556-0.825,3.072-1.363,4.565
		c-0.497,1.376-1.11,2.715-1.739,4.038c-0.372,0.783-0.801,1.562-1.333,2.24c-1.223,1.558-2.435,3.144-3.825,4.546
		c-1.108,1.117-2.457,2.004-3.732,2.948c-0.825,0.61-1.702,1.151-2.574,1.696c-0.226,0.141-0.544,0.133-0.773,0.271
		c-1.436,0.867-3.11,1.109-4.622,1.781c-0.64,0.284-1.376,0.453-2.076,0.479c-2.437,0.092-4.876,0.116-7.315,0.132
		c-2.833,0.019-5.667-0.015-8.5,0.008c-2.151,0.017-4.302,0.095-6.453,0.125c-0.637,0.009-1.275-0.077-1.913-0.079
		c-0.634-0.002-1.282-0.025-1.9,0.088c-1.142,0.21-1.536,0.724-1.574,1.904c-0.022,0.679-0.007,1.359-0.007,2.039
		c0.003,7.838,0.007,15.675,0.01,23.513C97.831,171.927,97.831,172.482,97.831,173.286z M97.831,115.702c-0.003,0-0.005,0-0.008,0
		c0,1.679,0,3.358,0,5.037c-0.001,2.679-0.007,5.357-0.003,8.036c0.001,1.171,0.261,1.499,1.395,1.7
		c0.428,0.076,0.874,0.079,1.312,0.079c5.876-0.001,11.753-0.005,17.63-0.015c1.709-0.002,3.452,0.167,4.974-0.892
		c1.396-0.154,2.304-1.189,3.394-1.892c1.025-0.66,1.747-1.602,2.392-2.627c0.744-1.182,1.483-2.351,1.733-3.758
		c0.083-0.471,0.187-0.947,0.357-1.392c0.481-1.26,0.485-2.564,0.542-3.888c0.084-1.959-0.427-3.794-0.877-5.653
		c-0.084-0.348-0.138-0.721-0.307-1.025c-0.538-0.967-1.091-1.929-1.698-2.854c-1.478-2.254-3.351-4.011-6.079-4.64
		c-0.19-0.043-0.383-0.133-0.54-0.249c-0.748-0.551-1.604-0.68-2.499-0.683c-2.398-0.006-4.797-0.021-7.196-0.024
		c-4.118-0.006-8.235-0.014-12.353-0.007c-1.831,0.003-2.173,0.368-2.17,2.153C97.834,107.307,97.831,111.504,97.831,115.702z"/>
	<path fill-rule="evenodd" clip-rule="evenodd" fill="#FFFFFF" d="M406.11,147.326c4.35,2.391,8.563,4.707,12.813,7.042
		c0.188,0.904-0.313,1.64-0.764,2.3c-0.94,1.375-1.941,2.719-3.029,3.979c-1.831,2.121-3.936,3.949-6.298,5.472
		c-0.832,0.536-1.61,1.162-2.473,1.638c-0.997,0.549-2.063,0.974-3.094,1.462c-0.283,0.134-0.553,0.294-0.823,0.453
		c-0.204,0.121-0.383,0.304-0.601,0.38c-1.222,0.424-2.451,0.83-3.683,1.226c-0.264,0.084-0.616,0.015-0.813,0.166
		c-1.014,0.783-2.205,0.845-3.4,0.952c-0.392,0.035-0.833,0.101-1.147,0.309c-0.935,0.618-1.968,0.563-3.007,0.615
		c-1.195,0.059-2.387,0.189-3.58,0.289c-0.239,0.02-0.477,0.065-0.715,0.064c-3.076-0.02-6.156,0.108-9.219-0.317
		c-0.433-0.06-0.878-0.042-1.317-0.044c-0.808-0.005-1.555-0.123-2.287-0.563c-0.486-0.291-1.133-0.367-1.719-0.423
		c-0.691-0.065-1.338-0.15-1.902-0.608c-0.207-0.168-0.494-0.281-0.76-0.324c-0.797-0.13-1.555-0.302-2.185-0.878
		c-0.179-0.164-0.533-0.123-0.79-0.22c-0.331-0.125-0.656-0.276-0.962-0.452c-0.24-0.138-0.423-0.39-0.673-0.491
		c-2.794-1.132-5.191-2.92-7.527-4.748c-2.851-2.23-5.465-4.734-7.54-7.745c-0.902-1.308-1.899-2.552-2.764-3.882
		c-0.602-0.927-1.062-1.946-1.57-2.933c-0.417-0.812-0.834-1.626-1.212-2.457c-0.56-1.23-1.202-2.439-1.597-3.723
		c-0.633-2.054-1.409-4.077-1.645-6.243c-0.103-0.95-0.318-1.888-0.462-2.834c-0.102-0.669-0.18-1.342-0.25-2.015
		c-0.09-0.872-0.27-1.751-0.217-2.616c0.124-2.026,0.346-4.047,0.561-6.066c0.102-0.951,0.222-1.907,0.434-2.838
		c0.319-1.399,0.686-2.792,1.107-4.164c0.521-1.701,1.056-3.397,1.918-4.977c0.588-1.077,1.017-2.239,1.565-3.34
		c0.373-0.746,0.787-1.479,1.255-2.168c2.222-3.267,4.694-6.334,7.683-8.928c1.466-1.272,3.106-2.348,4.697-3.472
		c0.899-0.636,1.825-1.247,2.794-1.766c1.045-0.559,2.157-0.992,3.235-1.49c1.214-0.561,2.416-1.15,3.638-1.691
		c0.315-0.14,0.694-0.129,1.034-0.222c0.681-0.188,1.395-0.319,2.024-0.621c0.71-0.34,1.428-0.493,2.195-0.503
		c1.286-0.015,2.524-0.202,3.758-0.631c0.848-0.295,1.802-0.368,2.712-0.385c2.559-0.049,5.119-0.016,7.678-0.018
		c1.05,0,2.031,0.279,3.041,0.556c1.216,0.334,2.517,0.355,3.774,0.549c0.538,0.083,1.067,0.24,1.588,0.402
		c0.221,0.069,0.4,0.328,0.616,0.353c1.436,0.16,2.723,0.74,4.045,1.27c1.356,0.542,2.702,1.067,3.943,1.854
		c0.798,0.507,1.669,0.898,2.48,1.386c0.612,0.368,1.21,0.771,1.765,1.22c1.362,1.101,2.82,2.12,4.006,3.39
		c1.431,1.531,2.939,3.029,3.976,4.902c0.417,0.753,0.978,1.426,1.564,2.265c-1.154,0.826-2.167,1.577-3.209,2.288
		c-0.884,0.603-1.805,1.152-2.701,1.738c-0.632,0.413-1.244,0.855-1.873,1.272c-1.089,0.724-2.166,1.469-3.287,2.141
		c-0.463,0.278-1.026,0.389-1.536,0.574c-0.486-0.703-0.94-1.301-1.333-1.937c-1.512-2.456-3.606-4.33-5.944-5.952
		c-0.941-0.652-1.867-1.476-2.926-1.773c-1.476-0.414-2.661-1.693-4.348-1.449c-0.207,0.029-0.458-0.122-0.663-0.236
		c-0.933-0.522-1.937-0.726-2.997-0.723c-3.036,0.008-6.072,0.002-9.108,0.017c-0.968,0.005-1.915,0.132-2.731,0.73
		c-0.096,0.07-0.217,0.169-0.316,0.16c-1.499-0.146-2.619,0.832-3.891,1.332c-0.803,0.316-1.551,0.789-2.285,1.253
		c-2.194,1.39-4.22,3.003-5.88,5.004c-2.145,2.584-3.992,5.367-5.089,8.582c-0.563,1.651-1.122,3.304-1.642,4.969
		c-0.165,0.528-0.253,1.095-0.283,1.649c-0.171,3.104-0.522,6.19-0.166,9.324c0.219,1.921,0.628,3.757,1.129,5.61
		c0.768,2.836,2.002,5.454,3.579,7.885c1.491,2.298,3.192,4.476,5.341,6.224c1.074,0.873,2.241,1.634,3.396,2.401
		c0.891,0.591,1.825,1.115,2.746,1.66c0.237,0.141,0.497,0.356,0.743,0.352c0.822-0.014,1.415,0.432,2.078,0.81
		c0.46,0.262,1.051,0.361,1.592,0.395c0.688,0.043,1.329,0.14,1.967,0.433c0.536,0.246,1.141,0.462,1.719,0.472
		c2.073,0.035,4.167,0.142,6.216-0.101c1.592-0.188,3.111-0.915,4.769-0.939c0.367-0.005,0.741-0.274,1.091-0.46
		c0.529-0.281,1.032-0.603,1.675-0.566c0.188,0.011,0.398-0.069,0.571-0.16c3.149-1.642,6.163-3.485,8.504-6.218
		c0.771-0.9,1.382-1.938,2.073-2.907C405.328,148.374,405.703,147.878,406.11,147.326z"/>
	<path fill-rule="evenodd" clip-rule="evenodd" fill="#FFFFFF" d="M712.514,88.777c1.451,2.046,2.85,4.018,4.282,6.037
		c-0.245,0.189-0.449,0.373-0.677,0.521c-2.658,1.728-4.27,4.188-5.26,7.171c-0.771,2.323-0.705,4.691-0.385,6.995
		c0.308,2.216,1.446,4.213,3.006,5.885c2.729,2.929,6.106,4.52,10.092,4.921c3.359,0.338,6.537-0.183,9.498-1.796
		c3.12-1.699,5.416-4.144,6.619-7.554c0.505-1.436,0.85-2.894,0.947-4.407c0.063-0.963-0.239-1.889-0.366-2.826
		c-0.193-1.422-0.703-2.69-1.298-3.938c-1.061-2.229-2.637-4.083-4.453-5.734c-0.164-0.149-0.418-0.268-0.635-0.277
		c-0.758-0.033-1.519-0.02-2.278-0.008c-0.564,0.009-0.894,0.329-0.983,0.866c-0.064,0.392-0.094,0.793-0.094,1.19
		c0,2.12,0.02,4.239,0.02,6.358c0,0.263-0.078,0.526-0.127,0.833c-1.781,0-3.49,0-5.344,0c-0.136-1.248-0.042-2.552-0.058-3.851
		c-0.017-1.319-0.005-2.64-0.005-3.959c0-1.32,0.002-2.64,0.002-3.96c0-1.313,0-2.627,0-4.017c7.39,0,14.688,0,21.99,0
		c0.279,0.734,0.367,4.406,0.131,6.507c-1.471,0-2.963,0-4.391,0c-0.436,0.636-0.207,1.061,0.133,1.413
		c1.264,1.308,2.228,2.817,2.947,4.469c0.762,1.749,1.452,3.534,1.451,5.49c-0.002,1.679,0.067,3.364-0.055,5.036
		c-0.081,1.099-0.357,2.206-0.702,3.258c-0.631,1.928-1.429,3.79-2.591,5.479c-2.369,3.439-5.426,6.037-9.246,7.746
		c-3.611,1.616-7.391,2.257-11.318,1.924c-6.867-0.583-12.252-3.78-16.222-9.383c-1.134-1.599-2.081-3.343-2.642-5.195
		c-0.709-2.344-1.218-4.743-1.18-7.258c0.033-2.127,0.115-4.244,0.631-6.286C705.2,95.494,707.806,91.484,712.514,88.777z"/>
	<path fill-rule="evenodd" clip-rule="evenodd" fill="#FFFFFF" d="M747.161,130.297c0,2.854,0,5.584,0,8.396
		c-1.188,0.476-2.357,0.957-3.536,1.414c-2.154,0.835-4.316,1.65-6.47,2.487c-0.777,0.302-1.173,0.815-1.165,1.732
		c0.038,4.716,0.036,9.434,0.001,14.15c-0.007,0.91,0.354,1.402,1.167,1.709c1.601,0.605,3.184,1.261,4.781,1.876
		c1.708,0.658,3.425,1.294,5.213,1.968c0,2.784,0,5.561,0,8.412c-14.479-5.81-28.961-11.563-43.387-17.364c0-2.587,0-5.013,0-7.485
		C718.219,141.832,732.633,136.087,747.161,130.297z M713.053,151.599c0.197,0.118,0.407,0.289,0.648,0.383
		c2.449,0.956,4.904,1.899,7.358,2.844c2.749,1.058,5.503,2.104,8.246,3.176c0.998,0.39,1.498,0.149,1.505-0.888
		c0.023-3.756,0.021-7.513,0.001-11.27c-0.006-1.08-0.458-1.334-1.46-0.952c-1.86,0.709-3.723,1.417-5.594,2.097
		c-3.254,1.184-6.518,2.341-9.771,3.528C713.539,150.679,713.107,150.925,713.053,151.599z"/>
</g>
</svg>
