<svg version="1.1" id="Layer_1" xmlns="http://www.w3.org/2000/svg" xmlns:xlink="http://www.w3.org/1999/xlink" x="0px" y="0px"
	 width="1291.435px" height="436.479px" viewBox="0 0 1291.435 436.479" enable-background="new 0 0 1291.435 436.479"
	 xml:space="preserve">
<g>
	<path fill-rule="evenodd" clip-rule="evenodd" fill="#FFFFFF" d="M407.239,429.013c-1.949,0.3-3.792,0.721-5.653,0.835
		c-2.324,0.143-4.666,0.086-6.997,0.019c-2.063-0.06-4.087,0.241-6.14-0.887c-1.586-0.872-3.946,0.8-5.542-1.072
		c-3.572,0.256-6.806-1.196-10.157-2.037c-2.708-0.68-5.509-1.186-8.059-2.263c-5.107-2.158-10.191-4.435-15.057-7.082
		c-3.73-2.031-7.141-4.63-10.542-7.249c-4.471-3.44-8.346-7.435-12.187-11.46c-5.173-5.423-9.849-11.349-13.429-17.924
		c-2.871-5.272-4.998-10.936-6.241-16.93c-0.389-1.872-0.165-4.08-1.035-5.511c-1.107-1.818-0.213-3.63-0.892-5.158
		c-1.258-2.836-0.281-5.884-1.05-8.582c-1.296-4.552-0.073-9.204-1.01-13.592c-1.363-6.39,0.084-12.859-1.03-19.083
		c-1.238-6.909-0.392-13.758-0.867-20.61c-0.143-2.042-0.771-4.048-0.934-6.09c-0.167-2.108-0.037-4.239-0.372-6.396
		c-1.188,5.621-3.88,10.693-5.258,16.149c-0.954,3.775-2.475,7.365-3.298,11.127c-0.478,2.181-2.698,3.683-2.109,6.146
		c-2.333,4.866-4.389,9.893-7.065,14.562c-3.961,6.909-7.935,13.838-12.725,20.235c-2.596,3.467-5.258,6.877-8.002,10.235
		c-2.708,3.312-5.646,6.347-8.617,9.374c-6.202,6.313-13.339,11.426-20.799,16.141c-3.948,2.496-8.021,4.741-12.095,7.013
		c-6.396,3.566-13.405,5.47-20.165,8.066c-2.391,0.918-4.895,0.589-7.285,1.74c-2.183,1.052-5.182,0.337-7.462,1.274
		c-2.851,1.171-5.875,0.132-8.497,1.211c-2.935,1.208-5.99-0.146-8.687,0.773c-3.883,1.324-7.88,0.111-11.593,1.011
		c-6.378,1.544-12.823,0.027-19.097,0.982c-11.03,1.678-22.133-0.093-33.078,1.088c-7.401,0.799-14.738,0.637-22.104,0.781
		c-7.33,0.144-14.757-0.692-21.973,0.226c-7.905,1.006-15.744,0.602-23.609,0.77c-7.829,0.166-15.664,0.036-23.497,0.036
		c-1.133,0-2.266,0-3.651,0c0-6.208-0.558-12.243,0.169-18.119c0.63-5.099,1.244-10.278,2.754-15.3
		c1.427-4.745,2.875-9.419,4.868-13.992c4.136-9.492,8.303-16.525,13.435-23.458c4.271-5.768,9.379-10.724,14.708-15.278
		c5.629-4.813,12.273-8.271,19.359-11.046c6.384-2.501,12.815-3.836,19.47-4.993c2.734-0.476,5.505-0.242,8.098-0.894
		c6.676-1.678,13.489-0.037,20.085-1.043c9.212-1.403,18.405-0.664,27.603-0.838c9.329-0.177,18.664-0.036,27.997-0.049
		c0.452-0.001,0.905-0.147,2.147-0.362c-11.381-3.701-22.025-7.176-32.68-10.621c-2.937-0.949-5.828-2.112-8.63-3.303
		c-6.806-2.891-13.44-6.237-19.952-9.754c-7.478-4.04-14.71-8.503-21.158-14.138c-3.508-3.065-7.317-5.79-10.774-8.908
		c-1.896-1.709-3.39-3.881-4.98-5.91c-1.491-1.901-4.081-2.896-4.608-5.586c-3.47-2.763-5.318-6.782-7.886-10.239
		c-4.093-5.511-6.955-11.752-9.972-17.864c-3.409-6.907-6.417-14.045-8.53-21.444c-1.02-3.571-2.519-7.107-2.573-10.97
		c-0.021-1.532-0.715-3.044-0.919-4.59c-0.187-1.413,0.307-2.961-1.019-4.094c-0.083-0.07-0.032-0.324-0.008-0.487
		c0.719-4.771-0.96-9.359-1.055-14.084c-0.098-4.866-0.748-9.719-0.911-14.586c-0.167-4.994,0.608-10.107-0.218-14.967
		c-0.833-4.91-0.7-9.743-0.797-14.615c-0.1-4.998-0.141-10.003,0.003-14.998c0.286-9.887-1.492-19.674-1.108-29.587
		c0.38-9.817,0.914-19.751-0.135-29.47c-1.212-11.241-0.25-22.417-0.777-33.606c-0.038-0.813-0.005-1.629-0.005-2.915
		c3.13,0.463,6.007-0.08,9.125,0.942c3.285,1.077,7.025,0.682,10.524,1.208c3.72,0.56,7.461,1.2,11.065,2.245
		c5.929,1.718,11.922,3.4,17.578,5.821c5.951,2.547,11.771,5.581,17.219,9.072c5.521,3.537,10.731,7.594,15.482,12.226
		c4.76,4.641,8.293,10.148,12.002,15.555c4.493,6.549,7.113,13.798,8.004,21.681c2.255,2.929,0.432,6.511,1.648,9.807
		c1.083,2.931-0.202,6.654,0.458,9.841c1.353,6.531,0.017,13.18,1.072,19.576c1.086,6.582-0.08,13.177,0.976,19.588
		c1.027,6.236,0.168,12.47,1.021,18.586c0.445,3.194,0.691,6.37,0.836,9.387c0.578,0.625,1.024,1.109,1.716,1.856
		c1.461-6.137,2.772-12.063,4.31-17.932c0.899-3.43,1.935-6.86,3.306-10.124c2.742-6.53,5.405-13.136,8.751-19.361
		c3.847-7.158,8.169-14.048,13.017-20.649c6.4-8.716,13.424-16.821,21.365-24.079c6.681-6.104,13.64-11.872,21.711-16.271
		c3.808-2.075,7.614-4.139,11.5-6.073c4.594-2.286,16.383-6.689,22.261-7.847c2.416-0.476,4.939-1.251,7.075-2.187
		c2.273-0.996,4.616-0.357,6.878-1.57c2.232-1.196,5.358-0.588,7.965-1.263c2.64-0.684,5.58-0.273,7.897-1.4
		c2.618-1.273,5.655,0.853,7.9-1.503c0.158-0.167,0.645-0.005,0.977-0.024c5.528-0.33,11.138-0.19,16.563-1.125
		c5.888-1.015,11.845-0.077,17.575-1.052c5.915-1.007,11.749-0.635,17.616-0.787c5.828-0.151,11.742,0.577,17.481-0.157
		c13.033-1.667,26.07-0.59,39.099-0.824c13.161-0.237,26.33-0.052,39.852-0.052c0.025,2.488,0.938,4.986-0.688,7.409
		c-0.235,0.352-0.096,0.952-0.138,1.437c-0.332,3.861-0.281,7.806-1.092,11.564c-1.148,5.325-2.112,10.691-3.563,15.979
		c-1.197,4.366-3.067,8.436-4.31,12.735c-1.217,4.214-3.444,7.955-5.509,11.709c-3.589,6.527-7.539,12.885-12.98,18.138
		c-2.758,2.662-5.276,5.589-8.17,8.087c-6.796,5.871-13.828,11.432-22.706,13.942c-4.281,3.191-9.701,3.07-14.479,4.861
		c-2.265,0.849-5.003,0.492-7.563,0.977c-4.755,0.899-9.694,1.119-14.554,1.091c-6.563-0.037-12.985,1.511-19.589,1.153
		c-6.813-0.369-13.66-0.082-20.493-0.082c-6.666,0-13.332-0.005-19.998,0.015c-0.284,0.001-0.568,0.224-1.127,0.457
		c9.138,3.226,18.047,6.435,27.004,9.504c4.523,1.55,9.046,3.092,13.413,5.037c4.363,1.942,8.884,3.646,12.975,6.063
		c7.003,4.141,14.031,8.221,20.622,13.102c7.571,5.606,14.241,12.099,20.563,18.934c4.724,5.108,8.849,10.818,12.531,16.768
		c2.696,4.355,5.489,8.705,7.63,13.339c3.485,7.544,6.58,15.277,9.245,23.162c0.602,1.777,0.313,3.667,0.972,5.586
		c1.017,2.961,0.799,6.334,1.197,9.521c0.235,1.874,0.681,3.721,0.974,5.589c0.293,1.869-0.679,3.961,0.998,5.595
		c0.083,0.081,0.026,0.324,0.009,0.488c-0.494,4.426,0.896,8.726,0.936,13.085c0.061,6.719,1.796,13.336,1.066,20.084
		c1.945,5.091,0.087,10.501,1.13,15.557c1.354,6.56-0.028,13.171,0.995,19.592c1.601,10.044-0.222,20.158,1.044,30.081
		c1.348,10.567,0.429,21.078,0.8,31.605c0.249,7.042-1.451,13.994-1.09,21.088C409.379,423.489,408.081,425.916,407.239,429.013z
		 M222.309,136.882c-2.165,0-4.33-0.013-6.494,0.003c-2.239,0.017-4.547-0.392-6.58,0.997c-4.875-0.346-9.256,1.684-13.722,3.074
		c-4.246,1.322-8.636,2.724-12.357,5.057c-5.063,3.173-10.27,6.15-14.848,10.199c-4.141,3.661-8.078,7.331-11.562,11.662
		c-5.65,7.024-9.844,14.793-12.924,23.15c-2.738,7.428-4.614,15.108-4.45,23.143c0.055,2.663,0.244,5.354-0.043,7.987
		c-0.505,4.62,1.055,9.03,1.052,13.579c1.716,1.704,0.594,4.02,1.292,5.959c2.348,6.527,4.749,13.001,8.059,19.152
		c2.818,5.24,6.369,9.876,10.371,14.15c3.113,3.324,6.7,6.213,10.138,9.226c3.56,3.121,7.733,5.608,11.91,7.436
		c5.021,2.195,10.161,4.353,15.741,5.521c5.758,1.205,11.461,2.363,17.317,2.673c3.321,0.175,6.659,0.031,9.989,0.031
		c0.833,0,1.972,0.35,2.442-0.063c1.597-1.4,3.421-0.701,5.135-0.954c1.705-0.252,3.377-0.794,5.087-0.947
		c2.375-0.214,4.529-1.117,6.77-1.771c4.602-1.345,9.03-2.977,13.372-5.134c5.255-2.61,11.427-5.712,14.738-9.008
		c4.067-4.049,8.367-7.895,11.654-12.655c2.048-2.966,4.39-5.817,5.902-9.047c3.263-6.964,7.239-13.658,8.614-21.414
		c0.824-4.652,2.562-9.136,2.478-13.958c-0.052-2.996,0.115-6.001-0.047-8.99c-0.148-2.74,0.552-5.499-0.574-8.241
		c-1.089-2.651-0.502-5.601-1.203-8.463c-1.296-5.298-2.447-10.561-4.818-15.521c-2.931-6.131-6.576-11.691-10.824-17.054
		c-4.415-5.572-9.676-10.061-14.947-14.631c-1.409-1.222-3.091-2.139-4.682-3.142c-4.194-2.643-8.542-4.96-13.167-6.806
		c-7.194-2.87-14.598-4.717-22.326-5.181C226.645,136.773,224.474,136.882,222.309,136.882z"/>
	<path fill-rule="evenodd" clip-rule="evenodd" fill="#FFFFFF" d="M544.45,315.474c0,6.751,0,12.73,0,18.89
		c-1.188,1.029-2.438,2.11-4.119,3.566c-3.748,1.556-8.351,0.905-12.883,0.934c-9.831,0.061-19.662,0.019-29.492,0.019
		c-1.126,0-2.251,0-3.475,0c0-102.066,0-203.832,0-306c5.435,0,10.942-0.504,16.309,0.149c4.878,0.594,9.547,2.524,13.708,5.433
		c5.486,3.836,9.733,8.661,12.923,14.565c3.812,7.054,6.333,13.613,8.065,20.676c0.462,1.884,0.258,4.081,1.073,5.508
		c1.045,1.829,0.244,3.611,0.892,5.157c1.257,2.999,0.361,6.167,1.028,9.09c1.489,6.523,0.727,13.071,0.87,19.604
		c0.146,6.662,0.032,13.329,0.032,19.994c0,0.816,0,1.633,0,3.056c2.6-1.766,4.89-3.211,7.062-4.817
		c6.29-4.65,12.886-8.799,20.038-11.977c6.224-2.766,12.602-5.064,19.299-6.563c2.396-0.536,5.105-0.066,7.008-1.072
		c2.358-1.246,4.601-0.098,6.668-0.858c3.163-1.163,6.389-1.03,9.601-0.894c2.553,0.109,5.111-0.58,7.699,0.692
		c2.251,1.106,5.199-0.629,7.471,1.257c2.359-0.752,4.462,0.601,6.543,1.155c2.054,0.547,4.194,0.975,6.258,1.713
		c10.401,3.72,17.577,6.994,24.245,11.491c7.25,4.89,13.586,10.865,19.206,17.424c7.028,8.2,12.409,17.658,16.562,27.589
		c2.787,6.666,5.496,13.497,6.464,20.851c0.29,2.203,1.74,4.258,1.939,6.681c0.181,2.197,0.56,4.479,1.073,6.556
		c2.679,10.818,1.626,21.782,1.863,32.696c0.012,0.499,0.032,1.002-0.003,1.499c-0.325,4.694-0.196,9.482-1.123,14.057
		c-0.964,4.754-1.674,9.584-2.941,14.26c-1.207,4.453-2.914,8.778-4.535,13.108c-2.109,5.633-4.298,11.225-7.363,16.45
		c-2.857,4.873-5.634,9.751-9.17,14.214c-3.521,4.443-6.794,9.127-11.06,12.859c-5.941,5.199-12.137,10.102-19.375,13.505
		c-4.801,2.257-9.74,3.917-14.957,4.959c-3.881,0.774-7.771,1.423-11.648,2.12c-3.741,0.673-7.557,0.08-11.078,0.966
		c-4.578,1.152-9.086,0.7-13.621,0.787c-1.854,0.035-3.71-0.732-5.587-0.903c-1.817-0.166-3.722,0.259-5.482-0.097
		c-3.867-0.778-7.83-1.107-11.623-2.107c-3.556-0.938-7-2.389-10.386-3.86c-7.461-3.244-14.241-7.679-20.889-12.321
		c-0.135-0.094-0.234-0.237-0.356-0.35C553.083,323.414,548.985,319.645,544.45,315.474z M547.381,228.493
		c0,4.166-0.386,8.386,0.188,12.471c0.231,1.65,0.937,3.383,0.762,5.106c-0.205,2.018,1.007,3.742,0.98,5.588
		c-0.06,4.219,1.386,8.136,2.531,11.996c1.705,5.742,4.158,11.273,7.491,16.387c3.359,5.154,7.594,9.563,12.254,13.327
		c5.908,4.773,12.896,7.99,20.106,10.472c3.902,1.344,7.906,2.366,12.157,2.084c3.151-0.209,6.329-0.041,9.495-0.041
		c0.833,0,1.896,0.332,2.46-0.057c2.524-1.743,5.627-1.626,8.377-2.74c2.879-1.166,5.548-2.701,8.391-3.884
		c3.481-1.447,6.918-3.103,9.595-5.723c3.141-3.073,6.355-6.055,9.009-9.694c3.544-4.861,6.1-10.129,8.143-15.657
		c2.059-5.573,4.085-11.224,4.061-17.316c1.892-2.68,0.18-5.891,1.122-8.541c1.092-3.072,0.909-6.087,0.831-9.126
		c-0.13-5.033,0.157-10.03-0.75-15.119c-0.832-4.664-1.399-9.436-2.026-14.156c-0.902-6.786-3.234-12.999-5.894-19.103
		c-4.18-9.593-8.785-14.494-14.703-19.829c-4.605-4.151-9.616-7.508-15.534-9.59c-4.281-1.506-8.653-3.209-13.062-3.293
		c-7.174-0.138-14.391-0.946-21.612,0.673c-3.224,0.723-6.393,1.55-9.385,2.761c-9.905,4.012-17.55,10.972-22.849,20.068
		c-3.147,5.402-5.998,11.116-7.676,17.3c-1.396,5.141-2.836,10.349-3.285,15.57c-0.545,6.324-1.883,12.651-1.183,19.067
		C547.413,227.823,547.381,228.16,547.381,228.493z"/>
	<path fill-rule="evenodd" clip-rule="evenodd" fill="#FFFFFF" d="M914.228,183.535c-1.916,0.561-3.288,0.878-4.599,1.362
		c-3.452,1.276-7.033,0.976-10.592,0.982c-6.666,0.011-13.337-0.133-19.997,0.076c-2.362,0.074-4.419-0.729-6.432-1.46
		c-4.525-1.646-6.114-5.758-4.86-10.521c2.055-7.805,5.023-15.247,8.687-22.401c1.356-2.648,2.972-5.208,5.104-7.406
		c1.791-1.847,3.156-4.121,5.021-5.877c2.448-2.305,5.157-4.344,7.83-6.396c6.208-4.768,13.099-8.433,20.196-11.595
		c5.202-2.318,10.701-3.995,16.246-5.441c4.551-1.188,9.16-2.068,13.737-3.093c4.217-0.943,8.493-1.133,12.718-1.747
		c4.243-0.617,8.646-0.136,12.979-0.136c4.5,0,9.006-0.14,13.498,0.052c2.699,0.115,5.435,0.669,8.046,1.166
		c2.359,0.449,5.125,0.032,7.213,1.782c3.675-0.779,6.727,1.554,10.144,2.16c3.41,0.604,6.62,2.438,9.862,3.859
		c3.105,1.36,6.266,2.669,9.173,4.389c3.522,2.085,7.125,4.093,10.128,6.99c1.971,1.902,4.463,3.319,6.216,5.382
		c3.151,3.709,6.354,7.449,8.196,12.078c2.133,5.362,3.915,10.799,4.734,16.564c0.264,1.852,0.879,3.657,0.959,5.597
		c0.071,1.706,0.762,3.38,0.906,5.091c0.168,1.986-0.402,4.122,0.121,5.974c1.648,5.837,0.186,11.801,0.993,17.599
		c1.86,13.351,0.624,26.733,0.871,40.096c0.246,13.329-0.438,26.691,0.261,39.987c0.352,6.697,0.41,13.41,0.919,20.087
		c0.204,2.675,1.037,5.334,0.881,8.096c-0.155,2.75,1.716,5.259,0.993,8.085c1.697,5.491,3.376,10.932,7.029,15.611
		c2.393,3.063,4.598,6.182,8.14,8.013c0.544,0.281,1.144,0.456,1.716,0.679c-0.895,2.525-3.486,2.899-5.335,3.423
		c-4.647,1.317-9.292,2.675-14.132,3.5c-4.946,0.844-9.83,0.964-14.615,0.562c-5.059-0.426-10.255-0.922-15.051-3.383
		c-2.293-1.176-4.803-2.034-7.139-3.268c-5.099-2.69-7.263-7.872-10.609-12.05c-0.879-1.097-1.713-2.229-2.633-3.431
		c-5.495,2.873-10.522,6.021-15.939,8.208c-7.718,3.113-15.286,6.727-23.625,8.209c-2.388,0.424-4.721,1.675-7.194,1.832
		c-2.409,0.153-4.765,0.825-7.035,1.288c-3.073,0.627-6.38-0.122-9.038,0.997c-3.174,1.337-6.15,0.446-9.186,0.715
		c-3.142,0.277-6.327,0.062-9.494,0.062c-3.166,0-6.384,0.36-9.489-0.075c-6.479-0.907-12.927-1.698-19.01-4.784
		c-5.428-2.752-10.749-5.512-15.822-8.916c-3.637-2.44-6.235-5.783-9.392-8.617c-4.921-4.42-8.207-9.975-11.265-15.808
		c-2.046-3.905-2.922-8.131-4.544-12.13c-1.043-2.573-1.143-5.604-1.287-8.449c-0.201-3.989-0.005-7.998-0.061-11.997
		c-0.112-8.032,1.968-15.62,4.424-23.169c3.265-10.033,9.876-17.352,18.477-23.022c4.656-3.07,9.64-5.435,15.03-7.182
		c4.114-1.334,8.189-2.783,12.39-3.856c4.233-1.083,8.442-2.225,12.738-3.098c3.39-0.688,6.664-1.854,10.19-1.944
		c1.203-0.031,2.377-0.695,3.592-0.931c1.229-0.238,2.38-0.186,3.683-0.8c1.905-0.898,4.275-0.252,6.541-1.063
		c2.791-0.999,6.091-0.483,9.01-1.239c4.409-1.143,8.983-1.266,13.371-2.662c2.006-0.639,4.315-0.906,6.5-1.202
		c1.429-0.193,2.75-0.353,4.118-0.967c1.078-0.484,2.43-0.679,3.581-0.928c4.582-0.992,9.076-2.325,13.261-4.263
		c5.239-2.427,10.649-5.153,13.028-10.937c1.591-3.868,2.473-7.748,1.484-12.347c-1.145-5.334-4.07-8.886-7.655-12.384
		c-3.446-3.361-7.345-5.726-11.969-7.349c-5.849-2.053-11.676-3.424-17.863-4.084c-3.876-0.413-7.753-1.048-11.601-0.724
		c-6.883,0.582-13.773,1.611-20.172,4.351c-7.797,3.338-13.191,9.559-18.148,16.182
		C921.754,176.658,917.713,179.986,914.228,183.535z M1003.797,232.742c-2.081,0.807-3.759,1.867-5.534,2.068
		c-5.979,0.678-11.732,2.511-17.714,3.253c-2.173,0.269-4.665,0.146-6.515,1.011c-1.657,0.775-3.126,0.551-4.67,0.817
		c-1.701,0.294-3.393,0.646-5.083,0.995c-1.531,0.316-3.042,0.801-4.587,0.961c-1.896,0.196-3.726,0.123-5.63,0.912
		c-1.658,0.688-3.873-0.347-5.53,1.123c-5.878,0.208-11.282,2.428-16.824,4.024c-5.193,1.497-10.342,3.577-13.628,7.945
		c-4.774,6.345-7.653,13.527-7.773,21.76c-0.128,8.725,4.696,14.352,10.964,19.236c1.574,1.228,3.411,2.177,5.243,2.998
		c2.243,1.005,4.624,1.697,6.917,2.6c4.693,1.848,9.476,3.369,14.565,3.415c6.452,0.059,12.922,0.453,19.176-1.934
		c4.178-1.595,8.596-2.561,12.76-4.186c3.436-1.34,6.669-3.205,9.966-4.888c4.701-2.4,8.331-6.122,11.855-9.923
		c0.8-0.862,1.19-2.155,1.61-3.309c2.202-6.049,2.242-12.486,2.868-18.753c0.659-6.597,0.241-13.313,0.1-19.972
		c-0.054-2.526-0.561-5.06-1.048-7.553C1005.118,234.484,1004.384,233.732,1003.797,232.742z"/>
	<path fill-rule="evenodd" clip-rule="evenodd" fill="#FFFFFF" d="M1280.77,254.882c0.963,0.911,1.808,1.71,2.571,2.432
		c0.146,2.057-0.164,3.859-0.862,5.737c-0.639,1.719,0.529,3.919-1.098,5.549c-0.541,6.29-2.933,12.047-4.927,17.951
		c-2.159,6.396-5.432,12.138-9.008,17.771c-4.245,6.687-9.678,12.43-15.675,17.41c-4.544,3.773-9.016,7.952-14.733,10.149
		c-8.044,6.191-17.989,8.058-27.063,11.906c-4.699-0.315-8.884,2.718-13.631,2.094c-8.628,2.048-17.389,0.687-26.083,0.928
		c-3.447,0.095-6.842-1.01-10.249-1.68c-3.233-0.636-6.416-1.325-9.615-2.146c-7.88-2.023-14.445-4.258-22.975-8.542
		c-7.723-3.879-14.817-8.606-20.844-14.854c-1.504-1.559-3.049-3.078-4.594-4.598c-6.173-6.074-10.759-13.249-14.606-20.946
		c-4.177-8.354-7.241-17.058-9.1-26.248c-0.72-3.556-1.026-7.196-1.974-10.67c-1.052-3.86-0.204-7.877-1.078-11.567
		c-1.358-5.738-0.467-11.428-0.838-17.12c-0.395-6.063,1.74-11.995,0.992-18.083c1.389-2.389,0.46-5.151,1.126-7.549
		c0.712-2.561,0.407-5.148,0.953-7.602c1.752-7.872,3.454-15.781,6.432-23.317c2.563-6.49,5.381-12.843,9.445-18.597
		c1.644-2.328,3.023-4.822,5.011-6.924c1.539-1.628,2.72-3.602,4.29-5.194c5.872-5.955,12.622-10.825,19.667-15.262
		c6.817-4.294,13.975-7.936,21.756-10.225c1.773-0.521,3.466-1.514,5.26-1.718c1.908-0.216,3.705-0.898,5.541-1.262
		c4.715-0.935,9.516-1.194,14.162-2.051c6.435-1.186,12.769-0.551,19.126-0.644c2.805-0.041,5.645,0.942,8.583,0.942
		c2.861,0,5.855,0.18,8.548,1.041c2.876,0.919,5.865,1.001,8.708,1.882c2.808,0.871,5.652,1.63,8.434,2.574
		c2.77,0.94,5.504,1.992,8.23,3.051c7.583,2.944,14.622,6.744,21.308,11.347c6.621,4.559,9.898,7.8,14.749,13.749
		c4.42,5.422,7.393,11.456,9.964,17.896c1.474,3.691,3.217,7.337,4.929,10.947c1.367,2.882,1.911,5.936,2.642,8.889
		c1.023,4.139-1.76,6.828-6.317,7.586c-10.83,1.802-21.727,0.777-32.588,0.858c-3.384,0.025-6.778-1.229-10.033-1.871
		c-3.611-1.776-4.83-5.268-5.733-8.512c-0.901-3.238-2.172-6.271-4.14-8.762c-2.016-2.554-3.254-6.068-6.899-7.096
		c-4.6-5.308-11.113-7.581-17.117-10.586c-3.933-1.969-8.208-3.148-12.723-3.076c-3.499,0.055-6.999,0.012-10.498,0.011
		c-5.126-0.002-9.907,1.582-14.617,3.336c-7.425,2.766-13.731,7.269-19.061,13.079c-2.999,3.271-5.388,7.022-7.852,10.721
		c-3.132,4.698-4.604,10.11-6.902,15.155c-1.396,3.061-1.732,6.634-2.358,10.011c-1.113,6.001-2.547,11.978-2.023,18.164
		c-2.036,6.609-1.354,13.467-0.767,20.062c0.563,6.317,0.442,13.006,3.688,18.894c0.198,4.502,2.276,8.478,4.377,12.164
		c2.962,5.2,5.994,10.479,10.453,14.698c3.567,3.375,6.786,7.14,10.922,9.868c4.543,2.998,9.448,5.262,14.658,6.845
		c5.622,1.708,12.855,2.746,18.155,1.921c4.125-0.644,8.365-1.455,12.142-3.208c3.79-1.76,7.403-3.95,10.853-6.489
		c5.044-3.711,9.085-8.17,12.169-13.461c3.03-5.198,5.81-10.573,8.281-16.06c2.021-4.485,4.57-8.569,8.481-11.393
		c2.01-1.45,4.951-2.104,7.508-2.207c7.154-0.287,14.327-0.1,21.493-0.1c3.498,1.928,7.655,0.106,11.191,1.962
		C1279.502,255.116,1280.283,254.882,1280.77,254.882z"/>
	<path fill-rule="evenodd" clip-rule="evenodd" fill="#FFFFFF" d="M732.557,112.754c1.783,0.545,3.556-0.578,5.205,0.901
		c0.477,0.427,1.567,0.208,2.377,0.219c1.832,0.024,3.668-0.06,5.497,0.02c7.025,0.304,14.05,0.655,21.074,0.988
		c3.208,1.716,7.416,0.012,10.251,3c2.764,0.31,3.955,2.852,4.236,4.655c0.659,4.225,2.159,8.283,2.258,12.635
		c0.072,3.159,0.833,6.303,1.349,9.884c0.579-0.415,1.143-0.709,1.567-1.14c5.912-6,11.571-12.277,17.792-17.937
		c3.659-3.328,8.084-5.874,12.589-8.098c5.211-2.571,12.222-5.565,19.589-7c2.515-2.288,6.173,0.378,8.666-2
		c2.999,0,6.007-0.151,8.992,0.053c2.017,0.139,3.998,0.777,6.226,1.24c2.058,2.654,3.26,5.709,3.215,9.456
		c-0.152,12.969-0.059,25.941-0.059,39.251c-5.272,0-10.395,0.108-15.511-0.029c-5.4-0.146-10.651,1.775-16.077,1.029
		c-6.816,1.806-13.443,3.994-18.813,8.885c-2.765,2.519-5.697,4.86-8.394,7.448c-5.434,5.215-9.544,11.366-12.378,18.348
		c-2.164,5.332-3.929,10.759-4.893,16.479c-0.878,5.207-2.251,10.327-1.936,15.674c-1.867,3.208-0.47,6.753-1.035,10.074
		c-1.9,11.155-0.707,22.384-0.918,33.574c-0.213,11.323-0.047,22.653-0.047,33.98s0,22.654,0,33.982
		c-4.065,0.805-34.076,1.046-50.824,0.399C732.557,263.526,732.557,188.319,732.557,112.754z"/>
</g>
</svg>
