<?xml version="1.0" encoding="utf-8"?>
<!-- Generator: Adobe Illustrator 16.0.0, SVG Export Plug-In . SVG Version: 6.00 Build 0)  -->
<!DOCTYPE svg PUBLIC "-//W3C//DTD SVG 1.1//EN" "http://www.w3.org/Graphics/SVG/1.1/DTD/svg11.dtd">
<svg version="1.1" id="Layer_1" xmlns="http://www.w3.org/2000/svg" xmlns:xlink="http://www.w3.org/1999/xlink" x="0px" y="0px"
	 width="512px" height="512px" viewBox="0 0 512 512" enable-background="new 0 0 512 512" xml:space="preserve">
<g>
	<path fill-rule="evenodd" clip-rule="evenodd" fill="#FFFFFF" stroke="#FFFFFF" stroke-width="10" stroke-miterlimit="10" d="
		M142.746,198.864c0.478-41.777,15.123-77.873,44.933-107.076c81.652-79.99,218.979-44.716,250.777,66.787
		c3.767,13.207,5.718,26.66,5.419,40.413c0.001-0.001,0.152,0.069,0.152,0.069c-100.23,0.024-200.462,0.05-300.692,0.077
		c-0.166,0-0.332,0.023-0.498,0.036L142.746,198.864z"/>
	<path fill-rule="evenodd" clip-rule="evenodd" fill="#FFFFFF" stroke="#FFFFFF" stroke-width="10" stroke-miterlimit="10" d="
		M143.096,417.981c-1.012-0.924-0.688-2.151-0.689-3.271c-0.016-21.888-0.015-43.774,0.009-65.662
		c0.001-0.978,0.254-1.955,0.39-2.933c100.298-0.011,200.597-0.022,300.896-0.033c0.064,23.57,0.133,47.142,0.173,70.712
		c0.001,0.45-0.331,0.901-0.508,1.353c-2.496-0.05-4.993-0.144-7.489-0.144C338.282,417.991,240.688,417.986,143.096,417.981z
		 M359.578,382.322c0.009-6.163-3.966-11.992-9.534-13.98c-6.209-2.218-13.188-0.435-16.942,5.025
		c-1.898,2.76-3.931,3.427-7.021,3.411c-22.151-0.109-44.305-0.127-66.456-0.001c-4.33,0.025-7.589-0.566-10.683-4.413
		c-5.367-6.673-15.377-6.477-21.217-0.453c-5.977,6.166-5.473,16.261,1.088,21.762c6.463,5.419,16.212,4.496,21.191-2.453
		c1.954-2.728,4.028-3.356,7.078-3.345c23.151,0.091,46.304,0.101,69.454-0.014c2.97-0.015,4.789,0.804,6.521,3.338
		c3.629,5.31,10.261,7.132,16.392,5.077C355.631,394.204,359.567,388.78,359.578,382.322z"/>
	<path fill-rule="evenodd" clip-rule="evenodd" fill="#FFFFFF" stroke="#FFFFFF" stroke-width="10" stroke-miterlimit="10" d="
		M443.7,346.083c-100.299,0.011-200.598,0.022-300.896,0.033c-0.132-2.105-0.264-4.211-0.396-6.315
		c5.546-7.541,13.14-13.147,19.171-20.196c4.384-5.122,8.933-8.133,15.726-4.873c0.699,0.336,1.64,0.191,2.47,0.23
		c27.153,1.258,48.402-14.17,55.606-40.371c6.983,0.179,13.967,0.358,20.951,0.538c0.082,0.826,0.147,1.654,0.248,2.478
		c2.464,20.146,18.94,33.946,39.457,33.05c18.324-0.801,33.629-16.736,33.943-35.341c1.818-0.114,3.636-0.328,5.454-0.329
		c36.066-0.018,72.133-0.01,108.199-0.008C443.656,298.68,443.679,322.381,443.7,346.083z"/>
	<path fill-rule="evenodd" clip-rule="evenodd" fill="#FFFFFF" stroke="#FFFFFF" stroke-width="10" stroke-miterlimit="10" d="
		M143.096,417.981c97.593,0.005,195.187,0.01,292.78,0.022c2.496,0,4.993,0.094,7.489,0.144
		c-8.488,11.038-18.811,20.157-30.078,28.193c-31.559,22.51-66.884,34.405-105.467,36.794c-46.736,2.894-90.149-7.39-129.553-33.153
		c-11.893-7.775-22.565-17.03-32.048-27.62C145.038,421.042,143.391,419.967,143.096,417.981z"/>
	<path fill-rule="evenodd" clip-rule="evenodd" fill="#FFFFFF" stroke="#FFFFFF" stroke-width="10" stroke-miterlimit="10" d="
		M235.383,274.592c-7.205,26.2-28.454,41.628-55.607,40.37c-0.83-0.039-1.771,0.105-2.47-0.23
		c-6.793-3.26-11.342-0.249-15.726,4.873c-6.031,7.049-13.625,12.655-19.171,20.196c-1.924,0.108-2.751,1.741-3.893,2.88
		c-14.38,14.328-28.648,28.769-43.117,43.006c-12.115,11.922-31.927,7.64-37.489-8.292c-3.121-8.94-1.418-17.358,5.567-24.329
		c19.555-19.511,39.076-39.056,58.597-58.602c2.819-2.824,5.25-6.14,8.402-8.508c5.271-3.962,6.098-8.538,3.375-14.181
		c-1.043-13.552,1.541-26.23,9.071-37.721c0.77-0.858,1.564-1.696,2.305-2.579c14.245-16.972,36.013-23.491,56.155-16.998
		c3.243,1.046,3.81,1.835,1.13,4.347c-4.732,4.436-9.278,9.078-13.784,13.748c-5.26,5.449-7.184,11.978-5.053,19.284
		c4.198,14.398,21.068,19.253,32.364,9.235c5.756-5.104,11.035-10.744,16.874-16.48C237.269,254.815,236.849,264.66,235.383,274.592
		z"/>
	<path fill-rule="evenodd" clip-rule="evenodd" fill="#FFFFFF" stroke="#FFFFFF" stroke-width="10" stroke-miterlimit="10" d="
		M444.154,273.144c0.051,0.317-0.06,0.562-0.332,0.734c-36.359,0.031-72.719,0.051-109.078,0.115c-1.941,0.003-4-0.566-5.81,0.696
		c-11.962,0.228-23.924,0.504-35.882-0.145c-0.01-22.961,0.113-45.924-0.142-68.882c-0.052-4.671,1.345-5.787,5.862-5.772
		c46.42,0.158,92.841,0.095,139.262,0.105c1.968,0.001,4.026-0.381,5.76,1.011c0.013,23.661,0.025,47.322,0.038,70.983
		c-0.101,0.106-0.303,0.285-0.286,0.307c0.139,0.191,0.315,0.355,0.481,0.527L444.154,273.144z M348.504,234.185
		c-0.014,9.58,7.136,16.84,16.538,16.792c9.258-0.048,16.76-7.688,16.615-16.922c-0.144-9.203-7.916-16.817-16.995-16.651
		C355.64,217.569,348.518,224.965,348.504,234.185z"/>
	<path fill-rule="evenodd" clip-rule="evenodd" fill="#FFFFFF" stroke="#FFFFFF" stroke-width="10" stroke-miterlimit="10" d="
		M443.833,271.99c-0.013-23.661-0.025-47.322-0.038-70.983c0.078-0.649,0.155-1.3,0.232-1.949c0,0-0.151-0.07-0.152-0.069
		c18.87,1.88,31.077,11.139,35.439,26.879c6.409,23.13-9.2,45.228-33.191,46.995c-0.66,0.049-1.313,0.186-1.97,0.281
		c0.001,0-0.125-0.319-0.125-0.318C444.107,272.514,444.043,272.235,443.833,271.99z"/>
	<path fill-rule="evenodd" clip-rule="evenodd" fill="#FFFFFF" stroke="#FFFFFF" stroke-width="10" stroke-miterlimit="10" d="
		M142.923,234.055c-7.53,11.49-10.114,24.169-9.071,37.721c-17.118-4.254-29.079-20.343-27.877-37.495
		c1.298-18.523,14.521-32.758,32.338-34.819c1.481-0.172,2.957-0.397,4.435-0.598c-0.001,0.001,0.09,0.308,0.091,0.307
		C142.866,210.798,142.895,222.427,142.923,234.055z"/>
	<path fill-rule="evenodd" clip-rule="evenodd" fill="#FFFFFF" stroke="#FFFFFF" stroke-width="10" stroke-miterlimit="10" d="
		M79.007,422.616c0,11.66,0.021,11.239-12.515,10.636c-22.543-1.085-41.722-18.77-45.958-40.411
		c-2.436-12.445-1.758-13.529,10.672-13.53c1.332,0,2.677,0.126,3.991-0.025c3.463-0.399,4.522,1.012,4.643,4.506
		c0.62,18.016,14.526,30.461,32.592,29.464c6.577-0.362,6.577-0.362,6.575,6.366C79.007,420.619,79.007,421.618,79.007,422.616z"/>
	<path fill-rule="evenodd" clip-rule="evenodd" fill="#FFFFFF" stroke="#FFFFFF" stroke-width="10" stroke-miterlimit="10" d="
		M328.935,274.689c1.81-1.263,3.868-0.693,5.81-0.696c36.359-0.064,72.719-0.084,109.078-0.115
		c-0.062,0.366-0.125,0.733-0.188,1.101c-36.066-0.002-72.133-0.01-108.199,0.008c-1.818,0.001-3.636,0.215-5.453,0.328
		C329.634,275.105,329.284,274.897,328.935,274.689z"/>
	<path fill-rule="evenodd" clip-rule="evenodd" fill="#FFFFFF" stroke="#FFFFFF" stroke-width="10" stroke-miterlimit="10" d="
		M142.923,234.055c-0.028-11.628-0.057-23.257-0.085-34.885c0.165-0.012,0.331-0.035,0.497-0.035
		c100.23-0.027,200.462-0.053,300.692-0.077c-0.077,0.649-0.154,1.3-0.232,1.949c-1.733-1.392-3.792-1.01-5.76-1.011
		c-46.421-0.011-92.842,0.053-139.262-0.105c-4.518-0.015-5.914,1.102-5.862,5.772c0.255,22.958,0.132,45.921,0.142,68.883
		c-1.808,0.124-3.615,0.339-5.425,0.356c-10.432,0.102-20.863,0.156-31.295,0.227c-6.984-0.18-13.968-0.359-20.951-0.538
		c1.467-9.931,1.887-19.775-2.468-29.979c-5.839,5.736-11.118,11.377-16.874,16.48c-11.296,10.018-28.166,5.163-32.364-9.235
		c-2.131-7.307-0.207-13.835,5.053-19.284c4.506-4.67,9.052-9.313,13.784-13.748c2.68-2.512,2.113-3.301-1.13-4.347
		c-20.143-6.493-41.91,0.026-56.155,16.998C144.487,232.358,143.692,233.196,142.923,234.055z M198.003,234.035
		c-0.029,9.595,7.03,16.898,16.385,16.95c9.214,0.052,16.802-7.544,16.772-16.788c-0.029-9.151-7.848-16.942-16.879-16.818
		C205.277,217.502,198.03,224.917,198.003,234.035z"/>
	<path fill-rule="evenodd" clip-rule="evenodd" fill="#FFFFFF" stroke="#FFFFFF" stroke-width="10" stroke-miterlimit="10" d="
		M359.578,382.322c-0.011,6.458-3.947,11.882-10.128,13.954c-6.131,2.055-12.763,0.232-16.392-5.077
		c-1.732-2.534-3.552-3.353-6.521-3.338c-23.15,0.114-46.303,0.104-69.454,0.014c-3.05-0.012-5.124,0.617-7.078,3.345
		c-4.979,6.949-14.729,7.872-21.191,2.453c-6.561-5.501-7.064-15.596-1.088-21.762c5.84-6.023,15.85-6.22,21.217,0.453
		c3.094,3.847,6.353,4.438,10.683,4.413c22.151-0.126,44.305-0.108,66.456,0.001c3.09,0.016,5.122-0.651,7.021-3.411
		c3.755-5.46,10.733-7.243,16.942-5.025C355.612,370.33,359.587,376.159,359.578,382.322z"/>
	<path fill-rule="evenodd" clip-rule="evenodd" fill="#FFFFFF" stroke="#FFFFFF" stroke-width="10" stroke-miterlimit="10" d="
		M256.333,275.129c10.432-0.07,20.863-0.125,31.295-0.227c1.81-0.018,3.617-0.232,5.425-0.356
		c11.958,0.647,23.92,0.371,35.882,0.144c0.35,0.208,0.699,0.416,1.048,0.625c-0.315,18.605-15.62,34.541-33.944,35.342
		c-20.517,0.896-36.993-12.903-39.457-33.05C256.48,276.783,256.415,275.955,256.333,275.129z"/>
	<path fill-rule="evenodd" clip-rule="evenodd" fill="#FFFFFF" stroke="#FFFFFF" stroke-width="10" stroke-miterlimit="10" d="
		M348.504,234.185c0.014-9.22,7.136-16.615,16.158-16.781c9.079-0.166,16.852,7.448,16.995,16.651
		c0.145,9.233-7.357,16.874-16.615,16.922C355.64,251.024,348.49,243.765,348.504,234.185z"/>
	<path fill-rule="evenodd" clip-rule="evenodd" fill="#FFFFFF" stroke="#FFFFFF" stroke-width="10" stroke-miterlimit="10" d="
		M443.833,271.99c0.21,0.245,0.274,0.523,0.195,0.835c-0.166-0.173-0.343-0.337-0.481-0.528
		C443.53,272.275,443.732,272.097,443.833,271.99z"/>
	<path fill-rule="evenodd" clip-rule="evenodd" fill="#FFFFFF" stroke="#FFFFFF" stroke-width="10" stroke-miterlimit="10" d="
		M198.003,234.035c0.027-9.118,7.274-16.533,16.278-16.656c9.031-0.124,16.85,7.667,16.879,16.818
		c0.029,9.244-7.559,16.84-16.772,16.788C205.033,250.934,197.974,243.63,198.003,234.035z"/>
</g>
</svg>
